<svg width="448" height="908" viewBox="0 0 448 908" fill="none" xmlns="http://www.w3.org/2000/svg">
<g filter="url(#filter0_dd_1357_5781)">
<path fill-rule="evenodd" clip-rule="evenodd" d="M214.503 67.3236C214 69.6348 214 72.4232 214 78V134H80C53.6013 134 40.402 134 32.201 142.201C24 150.402 24 163.601 24 190V359C40.5685 359 54 372.431 54 389C54 405.569 40.5685 419 24 419V718C24 744.399 24 757.598 32.201 765.799C39.0521 772.65 49.3913 773.778 68 773.963V800C68 804.646 68 806.969 68.3496 808.906C69.9804 817.945 77.0549 825.02 86.0938 826.65C88.0313 827 90.3542 827 95 827C99.6458 827 101.969 827 103.906 826.65C112.945 825.02 120.02 817.945 121.65 808.906C122 806.969 122 804.646 122 800V775L122 774.478L122 774C122.002 769.081 122.031 766.492 122.503 764.324C124.334 755.907 130.907 749.334 139.324 747.503C141.635 747 144.423 747 150 747C155.577 747 158.365 747 160.676 747.503C169.093 749.334 175.666 755.907 177.497 764.324C177.969 766.492 177.998 769.081 178 774C178 774.323 178 774.656 178 775V805V830C178 835.577 178 838.365 178.503 840.676C180.334 849.093 186.907 855.666 195.324 857.497C197.635 858 200.423 858 206 858C211.577 858 214.365 858 216.676 857.497C225.093 855.666 231.666 849.093 233.497 840.676C234 838.365 234 835.577 234 830V774H368C394.399 774 407.598 774 415.799 765.799C424 757.598 424 744.399 424 718V419C407.431 419 394 405.569 394 389C394 372.431 407.431 359 424 359V190C424 163.601 424 150.402 415.799 142.201C408.948 135.35 398.609 134.222 380 134.037V108C380 103.354 380 101.031 379.65 99.0938C378.02 90.0549 370.945 82.9804 361.906 81.3496C359.969 81 357.646 81 353 81C348.354 81 346.031 81 344.094 81.3496C335.055 82.9804 327.98 90.0549 326.35 99.0938C326 101.031 326 103.354 326 108V125V134V155C326 160.577 326 163.365 325.497 165.676C323.666 174.093 317.093 180.666 308.676 182.497C306.365 183 303.577 183 298 183C292.423 183 289.635 183 287.324 182.497C278.907 180.666 272.334 174.093 270.503 165.676C270 163.365 270 160.577 270 155V134V125V78C270 72.4232 270 69.6348 269.497 67.3236C267.666 58.9074 261.093 52.3336 252.676 50.5028C250.365 50 247.577 50 242 50C236.423 50 233.635 50 231.324 50.5028C222.907 52.3336 216.334 58.9074 214.503 67.3236Z" fill="url(#paint0_linear_1357_5781)"/>
</g>
<circle cx="241.5" cy="17.5" r="17.5" fill="#10B3FB"/>
<circle cx="206.5" cy="890.5" r="17.5" fill="#275FE7"/>
<defs>
<filter id="filter0_dd_1357_5781" x="0" y="18" width="448" height="872" filterUnits="userSpaceOnUse" color-interpolation-filters="sRGB">
<feFlood flood-opacity="0" result="BackgroundImageFix"/>
<feColorMatrix in="SourceAlpha" type="matrix" values="0 0 0 0 0 0 0 0 0 0 0 0 0 0 0 0 0 0 127 0" result="hardAlpha"/>
<feOffset dy="8"/>
<feGaussianBlur stdDeviation="12"/>
<feComposite in2="hardAlpha" operator="out"/>
<feColorMatrix type="matrix" values="0 0 0 0 0.133333 0 0 0 0 0.556863 0 0 0 0 0.898039 0 0 0 0.16 0"/>
<feBlend mode="normal" in2="BackgroundImageFix" result="effect1_dropShadow_1357_5781"/>
<feColorMatrix in="SourceAlpha" type="matrix" values="0 0 0 0 0 0 0 0 0 0 0 0 0 0 0 0 0 0 127 0" result="hardAlpha"/>
<feOffset dy="-8"/>
<feGaussianBlur stdDeviation="12"/>
<feComposite in2="hardAlpha" operator="out"/>
<feColorMatrix type="matrix" values="0 0 0 0 0.133333 0 0 0 0 0.556863 0 0 0 0 0.898039 0 0 0 0.16 0"/>
<feBlend mode="normal" in2="effect1_dropShadow_1357_5781" result="effect2_dropShadow_1357_5781"/>
<feBlend mode="normal" in="SourceGraphic" in2="effect2_dropShadow_1357_5781" result="shape"/>
</filter>
<linearGradient id="paint0_linear_1357_5781" x1="224" y1="50" x2="224" y2="858" gradientUnits="userSpaceOnUse">
<stop stop-color="#0CC2FF"/>
<stop offset="1" stop-color="#275EE7"/>
</linearGradient>
</defs>
</svg>
