<svg width="332" height="560" viewBox="0 0 332 560" fill="none" xmlns="http://www.w3.org/2000/svg">
<g filter="url(#filter0_dd_1357_5813)">
<path fill-rule="evenodd" clip-rule="evenodd" d="M0 72C0 45.6014 0 32.402 8.20101 24.201C16.402 16 29.6013 16 56 16H264C290.399 16 303.598 16 311.799 24.201C320 32.402 320 45.6013 320 72V201.625C306.745 201.625 296 212.706 296 226.375C296 240.044 306.745 251.125 320 251.125V488C320 514.399 320 527.598 311.799 535.799C303.598 544 290.399 544 264 544H56C29.6013 544 16.402 544 8.20101 535.799C0 527.598 0 514.399 0 488V251.125C13.2548 251.125 24 240.044 24 226.375C24 212.706 13.2548 201.625 0 201.625V72Z" fill="#E1EFF3"/>
</g>
<path d="M25 229.399L296 229.399" stroke="#228EE5" stroke-width="2" stroke-dasharray="6 6"/>
<path d="M103.655 361.232C103.655 360.907 103.717 360.6 103.839 360.312C103.962 360.024 104.13 359.773 104.343 359.56C104.557 359.341 104.802 359.171 105.079 359.048C105.362 358.925 105.663 358.864 105.983 358.864C106.309 358.864 106.615 358.925 106.903 359.048C107.191 359.171 107.442 359.341 107.655 359.56C107.869 359.773 108.037 360.024 108.159 360.312C108.282 360.6 108.343 360.907 108.343 361.232C108.343 361.552 108.282 361.853 108.159 362.136C108.037 362.413 107.869 362.659 107.655 362.872C107.442 363.085 107.191 363.253 106.903 363.376C106.615 363.499 106.309 363.56 105.983 363.56C105.663 363.56 105.362 363.499 105.079 363.376C104.802 363.253 104.557 363.085 104.343 362.872C104.13 362.659 103.962 362.413 103.839 362.136C103.717 361.853 103.655 361.552 103.655 361.232ZM127.84 364.096C127.893 364.096 127.939 364.115 127.976 364.152L128.296 364.496C128.061 364.747 127.805 364.973 127.528 365.176C127.256 365.373 126.955 365.544 126.624 365.688C126.299 365.827 125.939 365.933 125.544 366.008C125.155 366.088 124.725 366.128 124.256 366.128C123.472 366.128 122.752 365.992 122.096 365.72C121.445 365.443 120.885 365.053 120.416 364.552C119.947 364.045 119.581 363.435 119.32 362.72C119.064 362.005 118.936 361.211 118.936 360.336C118.936 359.477 119.069 358.693 119.336 357.984C119.603 357.275 119.976 356.667 120.456 356.16C120.936 355.648 121.512 355.253 122.184 354.976C122.856 354.693 123.597 354.552 124.408 354.552C125.181 354.552 125.867 354.672 126.464 354.912C127.061 355.152 127.605 355.491 128.096 355.928L127.848 356.288C127.805 356.352 127.739 356.384 127.648 356.384C127.584 356.384 127.48 356.325 127.336 356.208C127.192 356.091 126.992 355.963 126.736 355.824C126.48 355.68 126.16 355.549 125.776 355.432C125.397 355.315 124.941 355.256 124.408 355.256C123.725 355.256 123.099 355.373 122.528 355.608C121.963 355.843 121.475 356.179 121.064 356.616C120.659 357.053 120.341 357.587 120.112 358.216C119.883 358.845 119.768 359.552 119.768 360.336C119.768 361.136 119.883 361.851 120.112 362.48C120.347 363.109 120.667 363.643 121.072 364.08C121.477 364.512 121.955 364.845 122.504 365.08C123.059 365.309 123.656 365.424 124.296 365.424C124.701 365.424 125.061 365.397 125.376 365.344C125.696 365.291 125.989 365.211 126.256 365.104C126.523 364.997 126.771 364.867 127 364.712C127.229 364.557 127.456 364.376 127.68 364.168C127.707 364.147 127.733 364.131 127.76 364.12C127.787 364.104 127.813 364.096 127.84 364.096ZM134.581 362.152C133.823 362.179 133.17 362.24 132.621 362.336C132.077 362.427 131.626 362.552 131.269 362.712C130.917 362.872 130.655 363.064 130.485 363.288C130.314 363.507 130.229 363.757 130.229 364.04C130.229 364.307 130.271 364.539 130.357 364.736C130.447 364.928 130.565 365.088 130.709 365.216C130.858 365.339 131.029 365.429 131.221 365.488C131.413 365.547 131.613 365.576 131.821 365.576C132.13 365.576 132.413 365.544 132.669 365.48C132.93 365.411 133.17 365.317 133.389 365.2C133.613 365.077 133.821 364.933 134.013 364.768C134.205 364.603 134.394 364.424 134.581 364.232V362.152ZM129.901 359.168C130.317 358.752 130.754 358.437 131.213 358.224C131.671 358.011 132.191 357.904 132.773 357.904C133.199 357.904 133.573 357.973 133.893 358.112C134.213 358.245 134.477 358.44 134.685 358.696C134.898 358.947 135.058 359.253 135.165 359.616C135.271 359.973 135.325 360.373 135.325 360.816V366H135.021C134.861 366 134.762 365.925 134.725 365.776L134.613 364.752C134.394 364.965 134.175 365.157 133.957 365.328C133.743 365.499 133.519 365.643 133.285 365.76C133.05 365.877 132.797 365.968 132.525 366.032C132.253 366.096 131.954 366.128 131.629 366.128C131.357 366.128 131.093 366.088 130.837 366.008C130.581 365.928 130.351 365.805 130.149 365.64C129.951 365.475 129.791 365.264 129.669 365.008C129.551 364.747 129.493 364.435 129.493 364.072C129.493 363.736 129.589 363.424 129.781 363.136C129.973 362.848 130.274 362.597 130.685 362.384C131.095 362.171 131.621 362 132.261 361.872C132.906 361.744 133.679 361.669 134.581 361.648V360.816C134.581 360.08 134.421 359.515 134.101 359.12C133.786 358.72 133.317 358.52 132.693 358.52C132.309 358.52 131.981 358.573 131.709 358.68C131.442 358.787 131.215 358.904 131.029 359.032C130.842 359.16 130.69 359.277 130.573 359.384C130.455 359.491 130.357 359.544 130.277 359.544C130.218 359.544 130.17 359.531 130.133 359.504C130.095 359.477 130.063 359.443 130.037 359.4L129.901 359.168ZM138.603 359.432C138.971 358.973 139.395 358.605 139.875 358.328C140.36 358.051 140.899 357.912 141.491 357.912C141.928 357.912 142.312 357.981 142.643 358.12C142.979 358.259 143.256 358.459 143.475 358.72C143.693 358.981 143.859 359.296 143.971 359.664C144.083 360.032 144.139 360.448 144.139 360.912V366H143.371V360.912C143.371 360.165 143.2 359.581 142.859 359.16C142.517 358.733 141.997 358.52 141.299 358.52C140.781 358.52 140.296 358.653 139.843 358.92C139.395 359.181 138.995 359.547 138.643 360.016V366H137.875V358.04H138.299C138.432 358.04 138.509 358.107 138.531 358.24L138.603 359.432ZM152.023 359.104C151.997 359.131 151.97 359.155 151.943 359.176C151.922 359.192 151.89 359.2 151.847 359.2C151.794 359.2 151.722 359.165 151.631 359.096C151.541 359.021 151.418 358.941 151.263 358.856C151.109 358.771 150.914 358.693 150.679 358.624C150.45 358.549 150.17 358.512 149.839 358.512C149.381 358.512 148.973 358.595 148.615 358.76C148.263 358.92 147.965 359.152 147.719 359.456C147.474 359.76 147.287 360.128 147.159 360.56C147.037 360.992 146.975 361.477 146.975 362.016C146.975 362.576 147.039 363.072 147.167 363.504C147.301 363.936 147.487 364.301 147.727 364.6C147.967 364.893 148.258 365.117 148.599 365.272C148.941 365.427 149.319 365.504 149.735 365.504C150.119 365.504 150.439 365.459 150.695 365.368C150.957 365.277 151.17 365.179 151.335 365.072C151.506 364.965 151.639 364.867 151.735 364.776C151.831 364.685 151.911 364.64 151.975 364.64C152.039 364.64 152.093 364.667 152.135 364.72L152.335 364.976C152.213 365.136 152.058 365.285 151.871 365.424C151.685 365.563 151.474 365.683 151.239 365.784C151.005 365.885 150.749 365.963 150.471 366.016C150.199 366.075 149.914 366.104 149.615 366.104C149.109 366.104 148.645 366.013 148.223 365.832C147.807 365.645 147.447 365.379 147.143 365.032C146.845 364.68 146.61 364.251 146.439 363.744C146.274 363.237 146.191 362.661 146.191 362.016C146.191 361.408 146.271 360.853 146.431 360.352C146.591 359.851 146.826 359.419 147.135 359.056C147.445 358.693 147.821 358.413 148.263 358.216C148.711 358.013 149.223 357.912 149.799 357.912C150.317 357.912 150.775 357.995 151.175 358.16C151.575 358.325 151.925 358.549 152.223 358.832L152.023 359.104ZM159.646 361.216C159.646 360.789 159.585 360.408 159.462 360.072C159.345 359.731 159.177 359.443 158.958 359.208C158.739 358.973 158.478 358.795 158.174 358.672C157.875 358.544 157.545 358.48 157.182 358.48C156.771 358.48 156.403 358.544 156.078 358.672C155.753 358.8 155.47 358.984 155.23 359.224C154.995 359.464 154.806 359.752 154.662 360.088C154.518 360.424 154.422 360.8 154.374 361.216H159.646ZM154.334 361.704V361.856C154.334 362.453 154.403 362.979 154.542 363.432C154.681 363.885 154.878 364.267 155.134 364.576C155.39 364.88 155.699 365.109 156.062 365.264C156.425 365.419 156.83 365.496 157.278 365.496C157.678 365.496 158.025 365.453 158.318 365.368C158.611 365.277 158.857 365.179 159.054 365.072C159.257 364.96 159.417 364.861 159.534 364.776C159.651 364.685 159.737 364.64 159.79 364.64C159.859 364.64 159.913 364.667 159.95 364.72L160.158 364.976C160.03 365.136 159.859 365.285 159.646 365.424C159.438 365.563 159.203 365.683 158.942 365.784C158.686 365.88 158.409 365.957 158.11 366.016C157.817 366.075 157.521 366.104 157.222 366.104C156.678 366.104 156.182 366.011 155.734 365.824C155.286 365.632 154.902 365.355 154.582 364.992C154.262 364.629 154.014 364.187 153.838 363.664C153.667 363.136 153.582 362.533 153.582 361.856C153.582 361.285 153.662 360.76 153.822 360.28C153.987 359.795 154.222 359.379 154.526 359.032C154.835 358.68 155.211 358.405 155.654 358.208C156.102 358.011 156.609 357.912 157.174 357.912C157.622 357.912 158.038 357.989 158.422 358.144C158.806 358.299 159.139 358.525 159.422 358.824C159.705 359.117 159.926 359.48 160.086 359.912C160.251 360.344 160.334 360.84 160.334 361.4C160.334 361.517 160.318 361.597 160.286 361.64C160.254 361.683 160.201 361.704 160.126 361.704H154.334ZM163.246 354.36V366H162.478V354.36H163.246ZM174.737 362.152C173.979 362.179 173.326 362.24 172.777 362.336C172.233 362.427 171.782 362.552 171.425 362.712C171.073 362.872 170.811 363.064 170.641 363.288C170.47 363.507 170.385 363.757 170.385 364.04C170.385 364.307 170.427 364.539 170.513 364.736C170.603 364.928 170.721 365.088 170.865 365.216C171.014 365.339 171.185 365.429 171.377 365.488C171.569 365.547 171.769 365.576 171.977 365.576C172.286 365.576 172.569 365.544 172.825 365.48C173.086 365.411 173.326 365.317 173.545 365.2C173.769 365.077 173.977 364.933 174.169 364.768C174.361 364.603 174.55 364.424 174.737 364.232V362.152ZM170.057 359.168C170.473 358.752 170.91 358.437 171.369 358.224C171.827 358.011 172.347 357.904 172.929 357.904C173.355 357.904 173.729 357.973 174.049 358.112C174.369 358.245 174.633 358.44 174.841 358.696C175.054 358.947 175.214 359.253 175.321 359.616C175.427 359.973 175.481 360.373 175.481 360.816V366H175.177C175.017 366 174.918 365.925 174.881 365.776L174.769 364.752C174.55 364.965 174.331 365.157 174.113 365.328C173.899 365.499 173.675 365.643 173.441 365.76C173.206 365.877 172.953 365.968 172.681 366.032C172.409 366.096 172.11 366.128 171.785 366.128C171.513 366.128 171.249 366.088 170.993 366.008C170.737 365.928 170.507 365.805 170.305 365.64C170.107 365.475 169.947 365.264 169.825 365.008C169.707 364.747 169.649 364.435 169.649 364.072C169.649 363.736 169.745 363.424 169.937 363.136C170.129 362.848 170.43 362.597 170.841 362.384C171.251 362.171 171.777 362 172.417 361.872C173.062 361.744 173.835 361.669 174.737 361.648V360.816C174.737 360.08 174.577 359.515 174.257 359.12C173.942 358.72 173.473 358.52 172.849 358.52C172.465 358.52 172.137 358.573 171.865 358.68C171.598 358.787 171.371 358.904 171.185 359.032C170.998 359.16 170.846 359.277 170.729 359.384C170.611 359.491 170.513 359.544 170.433 359.544C170.374 359.544 170.326 359.531 170.289 359.504C170.251 359.477 170.219 359.443 170.193 359.4L170.057 359.168ZM178.759 359.432C179.127 358.973 179.551 358.605 180.031 358.328C180.516 358.051 181.055 357.912 181.647 357.912C182.084 357.912 182.468 357.981 182.799 358.12C183.135 358.259 183.412 358.459 183.631 358.72C183.849 358.981 184.015 359.296 184.127 359.664C184.239 360.032 184.295 360.448 184.295 360.912V366H183.527V360.912C183.527 360.165 183.356 359.581 183.015 359.16C182.673 358.733 182.153 358.52 181.455 358.52C180.937 358.52 180.452 358.653 179.999 358.92C179.551 359.181 179.151 359.547 178.799 360.016V366H178.031V358.04H178.455C178.588 358.04 178.665 358.107 178.687 358.24L178.759 359.432ZM193.088 358.04L188.512 368.56C188.48 368.635 188.437 368.696 188.384 368.744C188.336 368.792 188.264 368.816 188.168 368.816H187.624L189.024 365.704L185.656 358.04H186.288C186.368 358.04 186.432 358.061 186.48 358.104C186.528 358.141 186.56 358.184 186.576 358.232L189.256 364.424C189.288 364.504 189.314 364.587 189.336 364.672C189.362 364.752 189.386 364.835 189.408 364.92C189.434 364.835 189.461 364.752 189.488 364.672C189.52 364.587 189.552 364.504 189.584 364.424L192.232 358.232C192.258 358.173 192.296 358.128 192.344 358.096C192.392 358.059 192.445 358.04 192.504 358.04H193.088ZM201.295 366H200.527V358.856H195.919V364.256C195.919 364.475 195.946 364.664 195.999 364.824C196.058 364.979 196.135 365.107 196.231 365.208C196.332 365.309 196.45 365.384 196.583 365.432C196.716 365.48 196.86 365.504 197.015 365.504C197.207 365.504 197.372 365.477 197.511 365.424C197.65 365.365 197.77 365.304 197.871 365.24C197.972 365.171 198.055 365.109 198.119 365.056C198.183 364.997 198.234 364.968 198.271 364.968C198.314 364.968 198.356 364.995 198.399 365.048L198.607 365.384C198.404 365.608 198.146 365.789 197.831 365.928C197.522 366.061 197.199 366.128 196.863 366.128C196.324 366.128 195.903 365.979 195.599 365.68C195.3 365.381 195.151 364.92 195.151 364.296V358.856H194.007C193.948 358.856 193.9 358.84 193.863 358.808C193.826 358.776 193.807 358.731 193.807 358.672V358.376L195.167 358.28L195.359 355.432C195.37 355.384 195.391 355.341 195.423 355.304C195.455 355.267 195.5 355.248 195.559 355.248H195.919V358.288H201.295V366ZM201.647 355.2C201.647 355.296 201.626 355.387 201.583 355.472C201.546 355.552 201.492 355.624 201.423 355.688C201.359 355.752 201.284 355.803 201.199 355.84C201.114 355.877 201.023 355.896 200.927 355.896C200.831 355.896 200.74 355.877 200.655 355.84C200.57 355.803 200.495 355.752 200.431 355.688C200.367 355.624 200.316 355.552 200.279 355.472C200.242 355.387 200.223 355.296 200.223 355.2C200.223 355.104 200.242 355.013 200.279 354.928C200.316 354.837 200.367 354.76 200.431 354.696C200.495 354.632 200.57 354.581 200.655 354.544C200.74 354.507 200.831 354.488 200.927 354.488C201.023 354.488 201.114 354.507 201.199 354.544C201.284 354.581 201.359 354.632 201.423 354.696C201.492 354.76 201.546 354.837 201.583 354.928C201.626 355.013 201.647 355.104 201.647 355.2ZM204 366V358.04H204.424C204.557 358.04 204.634 358.107 204.656 358.24L204.728 359.392C205.037 358.949 205.392 358.592 205.792 358.32C206.192 358.048 206.642 357.912 207.144 357.912C207.725 357.912 208.189 358.08 208.536 358.416C208.888 358.752 209.125 359.219 209.248 359.816C209.344 359.491 209.477 359.208 209.648 358.968C209.824 358.728 210.024 358.531 210.248 358.376C210.472 358.216 210.714 358.099 210.976 358.024C211.242 357.949 211.514 357.912 211.792 357.912C212.186 357.912 212.541 357.979 212.856 358.112C213.17 358.24 213.437 358.432 213.656 358.688C213.874 358.944 214.042 359.259 214.16 359.632C214.277 360.005 214.336 360.432 214.336 360.912V366H213.576V360.912C213.576 360.133 213.408 359.541 213.072 359.136C212.736 358.725 212.256 358.52 211.632 358.52C211.354 358.52 211.088 358.571 210.832 358.672C210.581 358.773 210.357 358.925 210.16 359.128C209.968 359.325 209.813 359.573 209.696 359.872C209.584 360.171 209.528 360.517 209.528 360.912V366H208.76V360.912C208.76 360.139 208.605 359.547 208.296 359.136C207.992 358.725 207.544 358.52 206.952 358.52C206.52 358.52 206.12 358.648 205.752 358.904C205.384 359.16 205.056 359.515 204.768 359.968V366H204ZM222.459 361.216C222.459 360.789 222.397 360.408 222.275 360.072C222.157 359.731 221.989 359.443 221.771 359.208C221.552 358.973 221.291 358.795 220.987 358.672C220.688 358.544 220.357 358.48 219.995 358.48C219.584 358.48 219.216 358.544 218.891 358.672C218.565 358.8 218.283 358.984 218.043 359.224C217.808 359.464 217.619 359.752 217.475 360.088C217.331 360.424 217.235 360.8 217.187 361.216H222.459ZM217.147 361.704V361.856C217.147 362.453 217.216 362.979 217.355 363.432C217.493 363.885 217.691 364.267 217.947 364.576C218.203 364.88 218.512 365.109 218.875 365.264C219.237 365.419 219.643 365.496 220.091 365.496C220.491 365.496 220.837 365.453 221.131 365.368C221.424 365.277 221.669 365.179 221.867 365.072C222.069 364.96 222.229 364.861 222.347 364.776C222.464 364.685 222.549 364.64 222.603 364.64C222.672 364.64 222.725 364.667 222.763 364.72L222.971 364.976C222.843 365.136 222.672 365.285 222.459 365.424C222.251 365.563 222.016 365.683 221.755 365.784C221.499 365.88 221.221 365.957 220.923 366.016C220.629 366.075 220.333 366.104 220.035 366.104C219.491 366.104 218.995 366.011 218.547 365.824C218.099 365.632 217.715 365.355 217.395 364.992C217.075 364.629 216.827 364.187 216.651 363.664C216.48 363.136 216.395 362.533 216.395 361.856C216.395 361.285 216.475 360.76 216.635 360.28C216.8 359.795 217.035 359.379 217.339 359.032C217.648 358.68 218.024 358.405 218.467 358.208C218.915 358.011 219.421 357.912 219.987 357.912C220.435 357.912 220.851 357.989 221.235 358.144C221.619 358.299 221.952 358.525 222.235 358.824C222.517 359.117 222.739 359.48 222.899 359.912C223.064 360.344 223.147 360.84 223.147 361.4C223.147 361.517 223.131 361.597 223.099 361.64C223.067 361.683 223.013 361.704 222.939 361.704H217.147Z" fill="#030A1B"/>
<path d="M86.144 323.368C87.84 323.144 89.12 322.576 89.984 321.664C90.864 320.736 91.304 319.528 91.304 318.04C91.304 317.432 91.192 316.904 90.968 316.456C90.76 315.992 90.456 315.584 90.056 315.232C89.672 314.88 89.216 314.576 88.688 314.32C88.16 314.064 87.584 313.824 86.96 313.6L86.144 323.368ZM84.608 298C83.712 298.112 82.952 298.304 82.328 298.576C81.704 298.832 81.192 299.152 80.792 299.536C80.392 299.92 80.096 300.352 79.904 300.832C79.728 301.312 79.64 301.816 79.64 302.344C79.64 302.952 79.744 303.488 79.952 303.952C80.176 304.4 80.472 304.808 80.84 305.176C81.224 305.528 81.672 305.848 82.184 306.136C82.696 306.408 83.256 306.664 83.864 306.904L84.608 298ZM87.416 308.056C88.568 308.408 89.712 308.8 90.848 309.232C91.984 309.648 93 310.192 93.896 310.864C94.808 311.536 95.544 312.376 96.104 313.384C96.664 314.376 96.944 315.624 96.944 317.128C96.944 318.616 96.696 320.016 96.2 321.328C95.704 322.624 94.976 323.776 94.016 324.784C93.056 325.776 91.88 326.592 90.488 327.232C89.096 327.856 87.504 328.224 85.712 328.336L85.424 331.864C85.408 332.232 85.248 332.568 84.944 332.872C84.656 333.192 84.288 333.352 83.84 333.352H81.656L82.088 328.216C80.216 327.96 78.456 327.448 76.808 326.68C75.16 325.912 73.76 324.96 72.608 323.824L74.432 321.112C74.592 320.872 74.8 320.68 75.056 320.536C75.328 320.376 75.616 320.296 75.92 320.296C76.272 320.296 76.648 320.424 77.048 320.68C77.448 320.92 77.904 321.208 78.416 321.544C78.928 321.864 79.512 322.192 80.168 322.528C80.824 322.864 81.6 323.112 82.496 323.272L83.384 312.544C82.248 312.224 81.12 311.848 80 311.416C78.896 310.984 77.896 310.416 77 309.712C76.12 308.992 75.408 308.088 74.864 307C74.32 305.912 74.048 304.552 74.048 302.92C74.048 301.704 74.288 300.52 74.768 299.368C75.248 298.2 75.952 297.16 76.88 296.248C77.824 295.336 78.976 294.584 80.336 293.992C81.696 293.4 83.256 293.064 85.016 292.984L85.28 289.96C85.312 289.576 85.472 289.232 85.76 288.928C86.048 288.624 86.424 288.472 86.888 288.472H89.072L88.688 293.176C90.384 293.448 91.848 293.936 93.08 294.64C94.312 295.328 95.376 296.104 96.272 296.968L94.832 299.152C94.624 299.472 94.408 299.712 94.184 299.872C93.96 300.032 93.688 300.112 93.368 300.112C93.128 300.112 92.84 300.04 92.504 299.896C92.168 299.736 91.792 299.552 91.376 299.344C90.96 299.12 90.488 298.896 89.96 298.672C89.448 298.448 88.88 298.264 88.256 298.12L87.416 308.056ZM123.684 323.56V328H104.484V323.56H111.516V303.328C111.516 302.528 111.54 301.704 111.588 300.856L106.596 305.032C106.308 305.256 106.02 305.4 105.732 305.464C105.46 305.512 105.196 305.512 104.94 305.464C104.7 305.416 104.484 305.336 104.292 305.224C104.1 305.096 103.956 304.96 103.86 304.816L101.988 302.248L112.572 293.248H117.444V323.56H123.684ZM136.432 305.896C137.2 305.736 137.936 305.624 138.64 305.56C139.344 305.48 140.024 305.44 140.68 305.44C142.504 305.44 144.112 305.712 145.504 306.256C146.896 306.8 148.064 307.552 149.008 308.512C149.952 309.472 150.664 310.6 151.144 311.896C151.624 313.176 151.864 314.56 151.864 316.048C151.864 317.888 151.536 319.568 150.88 321.088C150.24 322.608 149.344 323.912 148.192 325C147.04 326.072 145.672 326.904 144.088 327.496C142.52 328.088 140.808 328.384 138.952 328.384C137.864 328.384 136.832 328.272 135.856 328.048C134.88 327.824 133.96 327.528 133.096 327.16C132.248 326.776 131.456 326.344 130.72 325.864C130 325.368 129.352 324.848 128.776 324.304L130.6 321.784C130.984 321.24 131.488 320.968 132.112 320.968C132.512 320.968 132.92 321.096 133.336 321.352C133.752 321.608 134.224 321.888 134.752 322.192C135.296 322.496 135.928 322.776 136.648 323.032C137.384 323.288 138.264 323.416 139.288 323.416C140.376 323.416 141.336 323.24 142.168 322.888C143 322.536 143.688 322.048 144.232 321.424C144.792 320.784 145.208 320.032 145.48 319.168C145.768 318.288 145.912 317.336 145.912 316.312C145.912 314.424 145.36 312.952 144.256 311.896C143.168 310.824 141.552 310.288 139.408 310.288C137.76 310.288 136.072 310.592 134.344 311.2L130.648 310.144L133.528 293.296H150.664V295.816C150.664 296.664 150.4 297.352 149.872 297.88C149.344 298.408 148.448 298.672 147.184 298.672H137.656L136.432 305.896ZM156.595 324.736C156.595 324.24 156.683 323.768 156.859 323.32C157.051 322.872 157.307 322.488 157.627 322.168C157.947 321.848 158.331 321.592 158.779 321.4C159.227 321.208 159.707 321.112 160.219 321.112C160.731 321.112 161.203 321.208 161.635 321.4C162.083 321.592 162.467 321.848 162.787 322.168C163.123 322.488 163.387 322.872 163.579 323.32C163.771 323.768 163.867 324.24 163.867 324.736C163.867 325.248 163.771 325.728 163.579 326.176C163.387 326.608 163.123 326.984 162.787 327.304C162.467 327.624 162.083 327.872 161.635 328.048C161.203 328.24 160.731 328.336 160.219 328.336C159.707 328.336 159.227 328.24 158.779 328.048C158.331 327.872 157.947 327.624 157.627 327.304C157.307 326.984 157.051 326.608 156.859 326.176C156.683 325.728 156.595 325.248 156.595 324.736ZM190.762 323.56V328H171.562V323.56H178.594V303.328C178.594 302.528 178.618 301.704 178.666 300.856L173.674 305.032C173.386 305.256 173.098 305.4 172.81 305.464C172.538 305.512 172.274 305.512 172.018 305.464C171.778 305.416 171.562 305.336 171.37 305.224C171.178 305.096 171.034 304.96 170.938 304.816L169.066 302.248L179.65 293.248H184.522V323.56H190.762ZM210.854 314.92V303.568C210.854 302.496 210.926 301.312 211.07 300.016L200.294 314.92H210.854ZM220.382 314.92V318.352C220.382 318.672 220.278 318.952 220.07 319.192C219.862 319.416 219.566 319.528 219.182 319.528H216.014V328H210.854V319.528H196.214C195.814 319.528 195.462 319.408 195.158 319.168C194.854 318.912 194.662 318.6 194.582 318.232L193.958 315.232L210.398 293.272H216.014V314.92H220.382ZM248.249 310.648C248.249 313.672 247.921 316.304 247.265 318.544C246.625 320.768 245.729 322.608 244.577 324.064C243.441 325.52 242.089 326.608 240.521 327.328C238.969 328.032 237.289 328.384 235.481 328.384C233.673 328.384 231.993 328.032 230.441 327.328C228.905 326.608 227.569 325.52 226.433 324.064C225.297 322.608 224.409 320.768 223.769 318.544C223.129 316.304 222.809 313.672 222.809 310.648C222.809 307.608 223.129 304.976 223.769 302.752C224.409 300.528 225.297 298.688 226.433 297.232C227.569 295.776 228.905 294.696 230.441 293.992C231.993 293.272 233.673 292.912 235.481 292.912C237.289 292.912 238.969 293.272 240.521 293.992C242.089 294.696 243.441 295.776 244.577 297.232C245.729 298.688 246.625 300.528 247.265 302.752C247.921 304.976 248.249 307.608 248.249 310.648ZM242.129 310.648C242.129 308.136 241.945 306.056 241.577 304.408C241.209 302.76 240.713 301.448 240.089 300.472C239.481 299.496 238.777 298.816 237.977 298.432C237.177 298.032 236.345 297.832 235.481 297.832C234.633 297.832 233.809 298.032 233.009 298.432C232.225 298.816 231.529 299.496 230.921 300.472C230.313 301.448 229.825 302.76 229.457 304.408C229.105 306.056 228.929 308.136 228.929 310.648C228.929 313.16 229.105 315.24 229.457 316.888C229.825 318.536 230.313 319.848 230.921 320.824C231.529 321.8 232.225 322.488 233.009 322.888C233.809 323.272 234.633 323.464 235.481 323.464C236.345 323.464 237.177 323.272 237.977 322.888C238.777 322.488 239.481 321.8 240.089 320.824C240.713 319.848 241.209 318.536 241.577 316.888C241.945 315.24 242.129 313.16 242.129 310.648Z" fill="#228EE5"/>
<g filter="url(#filter1_d_1357_5813)">
<path d="M119.848 119.96C121.048 119.96 122.056 119.816 122.872 119.528C123.688 119.24 124.336 118.856 124.816 118.376C125.312 117.896 125.664 117.336 125.872 116.696C126.096 116.056 126.208 115.376 126.208 114.656C126.208 113.904 126.088 113.232 125.848 112.64C125.608 112.032 125.232 111.52 124.72 111.104C124.208 110.672 123.544 110.344 122.728 110.12C121.928 109.896 120.96 109.784 119.824 109.784H113.32V119.96H119.848ZM113.32 95.288V105.32H118.456C120.664 105.32 122.328 104.92 123.448 104.12C124.584 103.32 125.152 102.048 125.152 100.304C125.152 98.496 124.64 97.208 123.616 96.44C122.592 95.672 120.992 95.288 118.816 95.288H113.32ZM118.816 90.296C121.088 90.296 123.032 90.512 124.648 90.944C126.264 91.376 127.584 91.992 128.608 92.792C129.648 93.592 130.408 94.56 130.888 95.696C131.368 96.832 131.608 98.112 131.608 99.536C131.608 100.352 131.488 101.136 131.248 101.888C131.008 102.624 130.632 103.32 130.12 103.976C129.624 104.616 128.984 105.2 128.2 105.728C127.432 106.256 126.512 106.704 125.44 107.072C130.208 108.144 132.592 110.72 132.592 114.8C132.592 116.272 132.312 117.632 131.752 118.88C131.192 120.128 130.376 121.208 129.304 122.12C128.232 123.016 126.912 123.72 125.344 124.232C123.776 124.744 121.984 125 119.968 125H106.864V90.296H118.816ZM150.155 114.488C148.443 114.568 147.003 114.72 145.835 114.944C144.667 115.152 143.731 115.424 143.027 115.76C142.323 116.096 141.819 116.488 141.515 116.936C141.211 117.384 141.059 117.872 141.059 118.4C141.059 119.44 141.363 120.184 141.971 120.632C142.595 121.08 143.403 121.304 144.395 121.304C145.611 121.304 146.659 121.088 147.539 120.656C148.435 120.208 149.307 119.536 150.155 118.64V114.488ZM136.571 103.808C139.403 101.216 142.811 99.92 146.795 99.92C148.235 99.92 149.523 100.16 150.659 100.64C151.795 101.104 152.755 101.76 153.539 102.608C154.323 103.44 154.915 104.44 155.315 105.608C155.731 106.776 155.939 108.056 155.939 109.448V125H153.251C152.691 125 152.259 124.92 151.955 124.76C151.651 124.584 151.411 124.24 151.235 123.728L150.707 121.952C150.083 122.512 149.475 123.008 148.883 123.44C148.291 123.856 147.675 124.208 147.035 124.496C146.395 124.784 145.707 125 144.971 125.144C144.251 125.304 143.451 125.384 142.571 125.384C141.531 125.384 140.571 125.248 139.691 124.976C138.811 124.688 138.051 124.264 137.411 123.704C136.771 123.144 136.275 122.448 135.923 121.616C135.571 120.784 135.395 119.816 135.395 118.712C135.395 118.088 135.499 117.472 135.707 116.864C135.915 116.24 136.251 115.648 136.715 115.088C137.195 114.528 137.811 114 138.563 113.504C139.315 113.008 140.235 112.576 141.323 112.208C142.427 111.84 143.707 111.544 145.163 111.32C146.619 111.08 148.283 110.936 150.155 110.888V109.448C150.155 107.8 149.803 106.584 149.099 105.8C148.395 105 147.379 104.6 146.051 104.6C145.091 104.6 144.291 104.712 143.651 104.936C143.027 105.16 142.475 105.416 141.995 105.704C141.515 105.976 141.075 106.224 140.675 106.448C140.291 106.672 139.859 106.784 139.379 106.784C138.963 106.784 138.611 106.68 138.323 106.472C138.035 106.248 137.803 105.992 137.627 105.704L136.571 103.808ZM176.546 105.176C176.386 105.432 176.218 105.616 176.042 105.728C175.866 105.824 175.642 105.872 175.37 105.872C175.082 105.872 174.77 105.792 174.434 105.632C174.114 105.472 173.738 105.296 173.306 105.104C172.874 104.896 172.378 104.712 171.818 104.552C171.274 104.392 170.626 104.312 169.874 104.312C168.706 104.312 167.786 104.56 167.114 105.056C166.458 105.552 166.13 106.2 166.13 107C166.13 107.528 166.298 107.976 166.634 108.344C166.986 108.696 167.442 109.008 168.002 109.28C168.578 109.552 169.226 109.8 169.946 110.024C170.666 110.232 171.394 110.464 172.13 110.72C172.882 110.976 173.618 111.272 174.338 111.608C175.058 111.928 175.698 112.344 176.258 112.856C176.834 113.352 177.29 113.952 177.626 114.656C177.978 115.36 178.154 116.208 178.154 117.2C178.154 118.384 177.938 119.48 177.506 120.488C177.09 121.48 176.466 122.344 175.634 123.08C174.802 123.8 173.77 124.368 172.538 124.784C171.322 125.184 169.914 125.384 168.314 125.384C167.466 125.384 166.634 125.304 165.818 125.144C165.018 125 164.242 124.792 163.49 124.52C162.754 124.248 162.066 123.928 161.426 123.56C160.802 123.192 160.25 122.792 159.77 122.36L161.138 120.104C161.314 119.832 161.522 119.624 161.762 119.48C162.002 119.336 162.306 119.264 162.674 119.264C163.042 119.264 163.386 119.368 163.706 119.576C164.042 119.784 164.426 120.008 164.858 120.248C165.29 120.488 165.794 120.712 166.37 120.92C166.962 121.128 167.706 121.232 168.602 121.232C169.306 121.232 169.906 121.152 170.402 120.992C170.914 120.816 171.33 120.592 171.65 120.32C171.986 120.048 172.226 119.736 172.37 119.384C172.53 119.016 172.61 118.64 172.61 118.256C172.61 117.68 172.434 117.208 172.082 116.84C171.746 116.472 171.29 116.152 170.714 115.88C170.154 115.608 169.506 115.368 168.77 115.16C168.05 114.936 167.306 114.696 166.538 114.44C165.786 114.184 165.042 113.888 164.306 113.552C163.586 113.2 162.938 112.76 162.362 112.232C161.802 111.704 161.346 111.056 160.994 110.288C160.658 109.52 160.49 108.592 160.49 107.504C160.49 106.496 160.69 105.536 161.09 104.624C161.49 103.712 162.074 102.92 162.842 102.248C163.626 101.56 164.594 101.016 165.746 100.616C166.914 100.2 168.258 99.992 169.778 99.992C171.474 99.992 173.018 100.272 174.41 100.832C175.802 101.392 176.962 102.128 177.89 103.04L176.546 105.176ZM188.76 100.376V125H182.808V100.376H188.76ZM189.576 93.2C189.576 93.712 189.472 94.192 189.264 94.64C189.056 95.088 188.776 95.48 188.424 95.816C188.088 96.152 187.688 96.424 187.224 96.632C186.76 96.824 186.264 96.92 185.736 96.92C185.224 96.92 184.736 96.824 184.272 96.632C183.824 96.424 183.432 96.152 183.096 95.816C182.76 95.48 182.488 95.088 182.28 94.64C182.088 94.192 181.992 93.712 181.992 93.2C181.992 92.672 182.088 92.176 182.28 91.712C182.488 91.248 182.76 90.848 183.096 90.512C183.432 90.176 183.824 89.912 184.272 89.72C184.736 89.512 185.224 89.408 185.736 89.408C186.264 89.408 186.76 89.512 187.224 89.72C187.688 89.912 188.088 90.176 188.424 90.512C188.776 90.848 189.056 91.248 189.264 91.712C189.472 92.176 189.576 92.672 189.576 93.2ZM212.443 105.584C212.267 105.808 212.091 105.984 211.915 106.112C211.755 106.24 211.515 106.304 211.195 106.304C210.891 106.304 210.595 106.216 210.307 106.04C210.019 105.848 209.675 105.64 209.275 105.416C208.875 105.176 208.395 104.968 207.835 104.792C207.291 104.6 206.611 104.504 205.795 104.504C204.755 104.504 203.843 104.696 203.059 105.08C202.275 105.448 201.619 105.984 201.091 106.688C200.579 107.392 200.195 108.248 199.939 109.256C199.683 110.248 199.555 111.376 199.555 112.64C199.555 113.952 199.691 115.12 199.963 116.144C200.251 117.168 200.659 118.032 201.187 118.736C201.715 119.424 202.355 119.952 203.107 120.32C203.859 120.672 204.707 120.848 205.651 120.848C206.595 120.848 207.355 120.736 207.931 120.512C208.523 120.272 209.019 120.016 209.419 119.744C209.819 119.456 210.163 119.2 210.451 118.976C210.755 118.736 211.091 118.616 211.459 118.616C211.939 118.616 212.299 118.8 212.539 119.168L214.243 121.328C213.587 122.096 212.875 122.744 212.107 123.272C211.339 123.784 210.539 124.2 209.707 124.52C208.891 124.824 208.043 125.04 207.163 125.168C206.299 125.296 205.435 125.36 204.571 125.36C203.051 125.36 201.619 125.08 200.275 124.52C198.931 123.944 197.755 123.112 196.747 122.024C195.739 120.936 194.939 119.608 194.347 118.04C193.771 116.456 193.483 114.656 193.483 112.64C193.483 110.832 193.739 109.16 194.251 107.624C194.779 106.072 195.547 104.736 196.555 103.616C197.563 102.48 198.811 101.592 200.299 100.952C201.787 100.312 203.499 99.992 205.435 99.992C207.275 99.992 208.883 100.288 210.259 100.88C211.651 101.472 212.899 102.32 214.003 103.424L212.443 105.584Z" fill="#228EE5"/>
</g>
<path d="M119.488 164.46C119.608 163.66 119.832 162.956 120.16 162.348C120.488 161.74 120.9 161.232 121.396 160.824C121.892 160.408 122.46 160.096 123.1 159.888C123.748 159.68 124.444 159.576 125.188 159.576C125.932 159.576 126.616 159.684 127.24 159.9C127.864 160.108 128.396 160.408 128.836 160.8C129.284 161.184 129.632 161.648 129.88 162.192C130.128 162.736 130.252 163.336 130.252 163.992C130.252 164.544 130.184 165.032 130.048 165.456C129.912 165.88 129.716 166.252 129.46 166.572C129.212 166.892 128.908 167.164 128.548 167.388C128.188 167.604 127.784 167.784 127.336 167.928C128.432 168.232 129.256 168.728 129.808 169.416C130.36 170.096 130.636 170.96 130.636 172.008C130.636 172.816 130.484 173.544 130.18 174.192C129.876 174.832 129.46 175.376 128.932 175.824C128.404 176.264 127.788 176.604 127.084 176.844C126.388 177.076 125.644 177.192 124.852 177.192C123.948 177.192 123.172 177.084 122.524 176.868C121.876 176.644 121.324 176.336 120.868 175.944C120.412 175.544 120.032 175.068 119.728 174.516C119.432 173.956 119.18 173.344 118.972 172.68L119.992 172.248C120.256 172.136 120.512 172.104 120.76 172.152C121.008 172.2 121.188 172.34 121.3 172.572C121.42 172.812 121.556 173.084 121.708 173.388C121.868 173.684 122.08 173.968 122.344 174.24C122.608 174.504 122.936 174.728 123.328 174.912C123.728 175.096 124.228 175.188 124.828 175.188C125.404 175.188 125.908 175.096 126.34 174.912C126.772 174.72 127.132 174.476 127.42 174.18C127.708 173.876 127.924 173.54 128.068 173.172C128.212 172.804 128.284 172.44 128.284 172.08C128.284 171.632 128.228 171.22 128.116 170.844C128.004 170.468 127.788 170.148 127.468 169.884C127.156 169.612 126.72 169.4 126.16 169.248C125.6 169.096 124.872 169.02 123.976 169.02V167.316C124.712 167.308 125.332 167.232 125.836 167.088C126.348 166.944 126.76 166.744 127.072 166.488C127.384 166.232 127.608 165.928 127.744 165.576C127.888 165.224 127.96 164.832 127.96 164.4C127.96 163.928 127.888 163.516 127.744 163.164C127.6 162.812 127.396 162.52 127.132 162.288C126.876 162.048 126.568 161.872 126.208 161.76C125.856 161.64 125.472 161.58 125.056 161.58C124.64 161.58 124.256 161.64 123.904 161.76C123.552 161.88 123.24 162.048 122.968 162.264C122.696 162.48 122.468 162.736 122.284 163.032C122.1 163.328 121.968 163.648 121.888 163.992C121.776 164.296 121.632 164.5 121.456 164.604C121.288 164.708 121.044 164.732 120.724 164.676L119.488 164.46ZM133.566 177V164.808H134.97C135.298 164.808 135.502 164.964 135.582 165.276L135.75 166.44C136.198 165.904 136.694 165.468 137.238 165.132C137.79 164.788 138.434 164.616 139.17 164.616C139.978 164.616 140.634 164.84 141.138 165.288C141.642 165.728 142.01 166.328 142.242 167.088C142.418 166.656 142.646 166.284 142.926 165.972C143.206 165.66 143.518 165.404 143.862 165.204C144.206 165.004 144.57 164.856 144.954 164.76C145.346 164.664 145.742 164.616 146.142 164.616C146.79 164.616 147.366 164.72 147.87 164.928C148.382 165.128 148.814 165.424 149.166 165.816C149.518 166.208 149.786 166.692 149.97 167.268C150.154 167.844 150.246 168.5 150.246 169.236V177H147.894V169.236C147.894 168.324 147.694 167.636 147.294 167.172C146.902 166.708 146.326 166.476 145.566 166.476C145.23 166.476 144.91 166.536 144.606 166.656C144.302 166.768 144.034 166.94 143.802 167.172C143.578 167.404 143.398 167.692 143.262 168.036C143.134 168.38 143.07 168.78 143.07 169.236V177H140.718V169.236C140.718 168.292 140.53 167.596 140.154 167.148C139.778 166.7 139.226 166.476 138.498 166.476C137.994 166.476 137.526 166.608 137.094 166.872C136.662 167.136 136.266 167.496 135.906 167.952V177H133.566ZM158.59 164.616C159.486 164.616 160.294 164.764 161.014 165.06C161.742 165.348 162.358 165.768 162.862 166.32C163.374 166.864 163.766 167.524 164.038 168.3C164.31 169.068 164.446 169.932 164.446 170.892C164.446 171.852 164.31 172.72 164.038 173.496C163.766 174.272 163.374 174.932 162.862 175.476C162.358 176.02 161.742 176.44 161.014 176.736C160.294 177.024 159.486 177.168 158.59 177.168C157.686 177.168 156.87 177.024 156.142 176.736C155.422 176.44 154.806 176.02 154.294 175.476C153.782 174.932 153.386 174.272 153.106 173.496C152.834 172.72 152.698 171.852 152.698 170.892C152.698 169.932 152.834 169.068 153.106 168.3C153.386 167.524 153.782 166.864 154.294 166.32C154.806 165.768 155.422 165.348 156.142 165.06C156.87 164.764 157.686 164.616 158.59 164.616ZM158.59 175.344C159.742 175.344 160.602 174.956 161.17 174.18C161.738 173.404 162.022 172.312 162.022 170.904C162.022 169.496 161.738 168.404 161.17 167.628C160.602 166.844 159.742 166.452 158.59 166.452C157.422 166.452 156.55 166.844 155.974 167.628C155.406 168.404 155.122 169.496 155.122 170.904C155.122 172.312 155.406 173.404 155.974 174.18C156.55 174.956 157.422 175.344 158.59 175.344ZM169.254 166.5C169.518 166.22 169.794 165.964 170.082 165.732C170.37 165.5 170.674 165.304 170.994 165.144C171.322 164.976 171.67 164.848 172.038 164.76C172.414 164.664 172.814 164.616 173.238 164.616C173.91 164.616 174.498 164.728 175.002 164.952C175.514 165.176 175.942 165.492 176.286 165.9C176.63 166.3 176.89 166.784 177.066 167.352C177.242 167.92 177.33 168.548 177.33 169.236V177H174.978V169.236C174.978 168.364 174.778 167.688 174.378 167.208C173.978 166.72 173.366 166.476 172.542 166.476C171.942 166.476 171.378 166.62 170.85 166.908C170.33 167.188 169.846 167.572 169.398 168.06V177H167.058V164.808H168.462C168.79 164.808 168.994 164.964 169.074 165.276L169.254 166.5ZM184.14 177.192C183.156 177.192 182.396 176.916 181.86 176.364C181.332 175.812 181.068 175.024 181.068 174V166.704H179.652C179.516 166.704 179.4 166.664 179.304 166.584C179.216 166.496 179.172 166.368 179.172 166.2V165.252L181.152 164.976L181.68 161.34C181.712 161.204 181.772 161.1 181.86 161.028C181.956 160.948 182.076 160.908 182.22 160.908H183.408V165H186.864V166.704H183.408V173.844C183.408 174.324 183.524 174.684 183.756 174.924C183.996 175.156 184.3 175.272 184.668 175.272C184.884 175.272 185.068 175.244 185.22 175.188C185.38 175.132 185.516 175.072 185.628 175.008C185.74 174.936 185.836 174.872 185.916 174.816C185.996 174.76 186.068 174.732 186.132 174.732C186.212 174.732 186.272 174.752 186.312 174.792C186.36 174.824 186.408 174.88 186.456 174.96L187.152 176.088C186.768 176.44 186.312 176.712 185.784 176.904C185.256 177.096 184.708 177.192 184.14 177.192ZM191.359 166.356C191.871 165.836 192.435 165.416 193.051 165.096C193.675 164.776 194.391 164.616 195.199 164.616C195.871 164.616 196.459 164.728 196.963 164.952C197.475 165.176 197.903 165.492 198.247 165.9C198.591 166.3 198.851 166.784 199.027 167.352C199.203 167.92 199.291 168.548 199.291 169.236V177H196.939V169.236C196.939 168.364 196.739 167.688 196.339 167.208C195.939 166.72 195.327 166.476 194.503 166.476C193.903 166.476 193.339 166.62 192.811 166.908C192.291 167.188 191.807 167.572 191.359 168.06V177H189.019V159.288H191.359V166.356Z" fill="#228EE5"/>
<rect x="95.5" y="427.5" width="155" height="39" rx="11.5" fill="url(#paint0_linear_1357_5813)"/>
<rect x="95.5" y="427.5" width="155" height="39" rx="11.5" stroke="#228EE5"/>
<path fill-rule="evenodd" clip-rule="evenodd" d="M111.25 442V442.625H109.594C108.794 442.625 108.124 443.229 108.04 444.024L106.987 454.024C106.89 454.946 107.614 455.75 108.541 455.75H121.458C122.386 455.75 123.109 454.946 123.012 454.024L121.96 444.024C121.876 443.229 121.205 442.625 120.406 442.625H118.75V442C118.75 439.929 117.071 438.25 115 438.25C112.929 438.25 111.25 439.929 111.25 442ZM115 439.5C113.619 439.5 112.5 440.619 112.5 442V442.625H117.5V442C117.5 440.619 116.38 439.5 115 439.5ZM112.5 446.375C112.5 447.756 113.619 448.875 115 448.875C116.38 448.875 117.5 447.756 117.5 446.375V445.75C117.5 445.405 117.78 445.125 118.125 445.125C118.47 445.125 118.75 445.405 118.75 445.75V446.375C118.75 448.446 117.071 450.125 115 450.125C112.929 450.125 111.25 448.446 111.25 446.375V445.75C111.25 445.405 111.53 445.125 111.875 445.125C112.22 445.125 112.5 445.405 112.5 445.75V446.375Z" fill="#EBFAFF"/>
<path d="M139.731 450.632C139.816 450.632 139.891 450.667 139.955 450.736L140.571 451.4C140.101 451.944 139.531 452.368 138.859 452.672C138.192 452.976 137.384 453.128 136.435 453.128C135.613 453.128 134.867 452.987 134.195 452.704C133.523 452.416 132.949 452.016 132.475 451.504C132 450.987 131.632 450.368 131.371 449.648C131.109 448.928 130.979 448.136 130.979 447.272C130.979 446.408 131.115 445.616 131.387 444.896C131.659 444.176 132.04 443.557 132.531 443.04C133.027 442.523 133.619 442.123 134.307 441.84C134.995 441.552 135.755 441.408 136.587 441.408C137.403 441.408 138.123 441.539 138.747 441.8C139.371 442.061 139.92 442.416 140.395 442.864L139.883 443.576C139.851 443.629 139.808 443.675 139.755 443.712C139.707 443.744 139.64 443.76 139.555 443.76C139.459 443.76 139.341 443.709 139.203 443.608C139.064 443.501 138.883 443.384 138.659 443.256C138.435 443.128 138.155 443.013 137.819 442.912C137.483 442.805 137.069 442.752 136.579 442.752C135.987 442.752 135.445 442.856 134.955 443.064C134.464 443.267 134.04 443.563 133.683 443.952C133.331 444.341 133.056 444.816 132.859 445.376C132.661 445.936 132.563 446.568 132.563 447.272C132.563 447.987 132.664 448.624 132.867 449.184C133.075 449.744 133.355 450.219 133.707 450.608C134.064 450.992 134.483 451.285 134.963 451.488C135.448 451.691 135.971 451.792 136.531 451.792C136.872 451.792 137.179 451.773 137.451 451.736C137.728 451.693 137.981 451.629 138.211 451.544C138.445 451.459 138.661 451.352 138.859 451.224C139.061 451.091 139.261 450.933 139.459 450.752C139.549 450.672 139.64 450.632 139.731 450.632ZM157.056 447.272C157.056 448.131 156.92 448.92 156.648 449.64C156.376 450.355 155.992 450.971 155.496 451.488C155 452.005 154.403 452.408 153.704 452.696C153.011 452.979 152.243 453.12 151.4 453.12C150.557 453.12 149.789 452.979 149.096 452.696C148.403 452.408 147.808 452.005 147.312 451.488C146.816 450.971 146.432 450.355 146.16 449.64C145.888 448.92 145.752 448.131 145.752 447.272C145.752 446.413 145.888 445.627 146.16 444.912C146.432 444.192 146.816 443.573 147.312 443.056C147.808 442.533 148.403 442.128 149.096 441.84C149.789 441.552 150.557 441.408 151.4 441.408C152.243 441.408 153.011 441.552 153.704 441.84C154.403 442.128 155 442.533 155.496 443.056C155.992 443.573 156.376 444.192 156.648 444.912C156.92 445.627 157.056 446.413 157.056 447.272ZM155.464 447.272C155.464 446.568 155.368 445.936 155.176 445.376C154.984 444.816 154.712 444.344 154.36 443.96C154.008 443.571 153.581 443.272 153.08 443.064C152.579 442.856 152.019 442.752 151.4 442.752C150.787 442.752 150.229 442.856 149.728 443.064C149.227 443.272 148.797 443.571 148.44 443.96C148.088 444.344 147.816 444.816 147.624 445.376C147.432 445.936 147.336 446.568 147.336 447.272C147.336 447.976 147.432 448.608 147.624 449.168C147.816 449.723 148.088 450.195 148.44 450.584C148.797 450.968 149.227 451.264 149.728 451.472C150.229 451.675 150.787 451.776 151.4 451.776C152.019 451.776 152.579 451.675 153.08 451.472C153.581 451.264 154.008 450.968 154.36 450.584C154.712 450.195 154.984 449.723 155.176 449.168C155.368 448.608 155.464 447.976 155.464 447.272ZM172.658 441.536V453H171.882C171.76 453 171.656 452.979 171.57 452.936C171.49 452.893 171.41 452.821 171.33 452.72L164.698 444.08C164.709 444.213 164.717 444.344 164.722 444.472C164.728 444.6 164.73 444.72 164.73 444.832V453H163.37V441.536H164.17C164.24 441.536 164.298 441.541 164.346 441.552C164.394 441.557 164.437 441.571 164.474 441.592C164.512 441.608 164.549 441.635 164.586 441.672C164.624 441.704 164.664 441.747 164.706 441.8L171.338 450.432C171.328 450.293 171.317 450.16 171.306 450.032C171.301 449.899 171.298 449.773 171.298 449.656V441.536H172.658ZM186.95 442.84H183.238V453H181.694V442.84H177.974V441.536H186.95V442.84ZM193.813 453H192.261V441.536H193.813V453ZM205.263 451.768C205.738 451.768 206.162 451.688 206.535 451.528C206.908 451.368 207.223 451.144 207.479 450.856C207.74 450.568 207.938 450.224 208.071 449.824C208.21 449.424 208.279 448.984 208.279 448.504V441.536H209.823V448.504C209.823 449.165 209.716 449.779 209.503 450.344C209.295 450.909 208.994 451.4 208.599 451.816C208.21 452.227 207.732 452.549 207.167 452.784C206.602 453.019 205.967 453.136 205.263 453.136C204.559 453.136 203.924 453.019 203.359 452.784C202.794 452.549 202.314 452.227 201.919 451.816C201.524 451.4 201.22 450.909 201.007 450.344C200.799 449.779 200.695 449.165 200.695 448.504V441.536H202.239V448.496C202.239 448.976 202.306 449.416 202.439 449.816C202.578 450.216 202.775 450.56 203.031 450.848C203.292 451.136 203.61 451.363 203.983 451.528C204.362 451.688 204.788 451.768 205.263 451.768ZM225.986 441.536V453H225.21C225.088 453 224.984 452.979 224.898 452.936C224.818 452.893 224.738 452.821 224.658 452.72L218.026 444.08C218.037 444.213 218.045 444.344 218.05 444.472C218.056 444.6 218.058 444.72 218.058 444.832V453H216.698V441.536H217.498C217.568 441.536 217.626 441.541 217.674 441.552C217.722 441.557 217.765 441.571 217.802 441.592C217.84 441.608 217.877 441.635 217.914 441.672C217.952 441.704 217.992 441.747 218.034 441.8L224.666 450.432C224.656 450.293 224.645 450.16 224.634 450.032C224.629 449.899 224.626 449.773 224.626 449.656V441.536H225.986ZM240.083 451.736L240.075 453H233.011V441.536H240.075V442.8H234.563V446.608H239.027V447.824H234.563V451.736H240.083Z" fill="#EBFAFF"/>
<defs>
<filter id="filter0_dd_1357_5813" x="-12" y="0" width="344" height="560" filterUnits="userSpaceOnUse" color-interpolation-filters="sRGB">
<feFlood flood-opacity="0" result="BackgroundImageFix"/>
<feColorMatrix in="SourceAlpha" type="matrix" values="0 0 0 0 0 0 0 0 0 0 0 0 0 0 0 0 0 0 127 0" result="hardAlpha"/>
<feOffset dy="4"/>
<feGaussianBlur stdDeviation="6"/>
<feComposite in2="hardAlpha" operator="out"/>
<feColorMatrix type="matrix" values="0 0 0 0 0.133333 0 0 0 0 0.556863 0 0 0 0 0.898039 0 0 0 0.4 0"/>
<feBlend mode="normal" in2="BackgroundImageFix" result="effect1_dropShadow_1357_5813"/>
<feColorMatrix in="SourceAlpha" type="matrix" values="0 0 0 0 0 0 0 0 0 0 0 0 0 0 0 0 0 0 127 0" result="hardAlpha"/>
<feOffset dy="-4"/>
<feGaussianBlur stdDeviation="6"/>
<feComposite in2="hardAlpha" operator="out"/>
<feColorMatrix type="matrix" values="0 0 0 0 0.133333 0 0 0 0 0.556863 0 0 0 0 0.898039 0 0 0 0.4 0"/>
<feBlend mode="normal" in2="effect1_dropShadow_1357_5813" result="effect2_dropShadow_1357_5813"/>
<feBlend mode="normal" in="SourceGraphic" in2="effect2_dropShadow_1357_5813" result="shape"/>
</filter>
<filter id="filter1_d_1357_5813" x="64.8633" y="55.4082" width="191.379" height="119.976" filterUnits="userSpaceOnUse" color-interpolation-filters="sRGB">
<feFlood flood-opacity="0" result="BackgroundImageFix"/>
<feColorMatrix in="SourceAlpha" type="matrix" values="0 0 0 0 0 0 0 0 0 0 0 0 0 0 0 0 0 0 127 0" result="hardAlpha"/>
<feOffset dy="8"/>
<feGaussianBlur stdDeviation="21"/>
<feComposite in2="hardAlpha" operator="out"/>
<feColorMatrix type="matrix" values="0 0 0 0 0.439216 0 0 0 0 0.564706 0 0 0 0 0.690196 0 0 0 0.1 0"/>
<feBlend mode="normal" in2="BackgroundImageFix" result="effect1_dropShadow_1357_5813"/>
<feBlend mode="normal" in="SourceGraphic" in2="effect1_dropShadow_1357_5813" result="shape"/>
</filter>
<linearGradient id="paint0_linear_1357_5813" x1="173" y1="427" x2="173" y2="467" gradientUnits="userSpaceOnUse">
<stop stop-color="#0CC2FF"/>
<stop offset="1" stop-color="#275EE7"/>
</linearGradient>
</defs>
</svg>
