<svg width="332" height="560" viewBox="0 0 332 560" fill="none" xmlns="http://www.w3.org/2000/svg">
<g filter="url(#filter0_dd_1357_5829)">
<path fill-rule="evenodd" clip-rule="evenodd" d="M12 72C12 45.6014 12 32.402 20.201 24.201C28.402 16 41.6013 16 68 16H276C302.399 16 315.598 16 323.799 24.201C332 32.402 332 45.6013 332 72V201.625C318.745 201.625 308 212.706 308 226.375C308 240.044 318.745 251.125 332 251.125V488C332 514.399 332 527.598 323.799 535.799C315.598 544 302.399 544 276 544H68C41.6013 544 28.402 544 20.201 535.799C12 527.598 12 514.399 12 488V251.125C25.2548 251.125 36 240.044 36 226.375C36 212.706 25.2548 201.625 12 201.625V72Z" fill="#E1EFF3"/>
</g>
<path d="M37 229.399L308 229.399" stroke="#228EE5" stroke-width="2" stroke-dasharray="6 6"/>
<path d="M122.655 362.232C122.655 361.907 122.717 361.6 122.839 361.312C122.962 361.024 123.13 360.773 123.343 360.56C123.557 360.341 123.802 360.171 124.079 360.048C124.362 359.925 124.663 359.864 124.983 359.864C125.309 359.864 125.615 359.925 125.903 360.048C126.191 360.171 126.442 360.341 126.655 360.56C126.869 360.773 127.037 361.024 127.159 361.312C127.282 361.6 127.343 361.907 127.343 362.232C127.343 362.552 127.282 362.853 127.159 363.136C127.037 363.413 126.869 363.659 126.655 363.872C126.442 364.085 126.191 364.253 125.903 364.376C125.615 364.499 125.309 364.56 124.983 364.56C124.663 364.56 124.362 364.499 124.079 364.376C123.802 364.253 123.557 364.085 123.343 363.872C123.13 363.659 122.962 363.413 122.839 363.136C122.717 362.853 122.655 362.552 122.655 362.232ZM146.84 365.096C146.893 365.096 146.939 365.115 146.976 365.152L147.296 365.496C147.061 365.747 146.805 365.973 146.528 366.176C146.256 366.373 145.955 366.544 145.624 366.688C145.299 366.827 144.939 366.933 144.544 367.008C144.155 367.088 143.725 367.128 143.256 367.128C142.472 367.128 141.752 366.992 141.096 366.72C140.445 366.443 139.885 366.053 139.416 365.552C138.947 365.045 138.581 364.435 138.32 363.72C138.064 363.005 137.936 362.211 137.936 361.336C137.936 360.477 138.069 359.693 138.336 358.984C138.603 358.275 138.976 357.667 139.456 357.16C139.936 356.648 140.512 356.253 141.184 355.976C141.856 355.693 142.597 355.552 143.408 355.552C144.181 355.552 144.867 355.672 145.464 355.912C146.061 356.152 146.605 356.491 147.096 356.928L146.848 357.288C146.805 357.352 146.739 357.384 146.648 357.384C146.584 357.384 146.48 357.325 146.336 357.208C146.192 357.091 145.992 356.963 145.736 356.824C145.48 356.68 145.16 356.549 144.776 356.432C144.397 356.315 143.941 356.256 143.408 356.256C142.725 356.256 142.099 356.373 141.528 356.608C140.963 356.843 140.475 357.179 140.064 357.616C139.659 358.053 139.341 358.587 139.112 359.216C138.883 359.845 138.768 360.552 138.768 361.336C138.768 362.136 138.883 362.851 139.112 363.48C139.347 364.109 139.667 364.643 140.072 365.08C140.477 365.512 140.955 365.845 141.504 366.08C142.059 366.309 142.656 366.424 143.296 366.424C143.701 366.424 144.061 366.397 144.376 366.344C144.696 366.291 144.989 366.211 145.256 366.104C145.523 365.997 145.771 365.867 146 365.712C146.229 365.557 146.456 365.376 146.68 365.168C146.707 365.147 146.733 365.131 146.76 365.12C146.787 365.104 146.813 365.096 146.84 365.096ZM153.581 363.152C152.823 363.179 152.17 363.24 151.621 363.336C151.077 363.427 150.626 363.552 150.269 363.712C149.917 363.872 149.655 364.064 149.485 364.288C149.314 364.507 149.229 364.757 149.229 365.04C149.229 365.307 149.271 365.539 149.357 365.736C149.447 365.928 149.565 366.088 149.709 366.216C149.858 366.339 150.029 366.429 150.221 366.488C150.413 366.547 150.613 366.576 150.821 366.576C151.13 366.576 151.413 366.544 151.669 366.48C151.93 366.411 152.17 366.317 152.389 366.2C152.613 366.077 152.821 365.933 153.013 365.768C153.205 365.603 153.394 365.424 153.581 365.232V363.152ZM148.901 360.168C149.317 359.752 149.754 359.437 150.213 359.224C150.671 359.011 151.191 358.904 151.773 358.904C152.199 358.904 152.573 358.973 152.893 359.112C153.213 359.245 153.477 359.44 153.685 359.696C153.898 359.947 154.058 360.253 154.165 360.616C154.271 360.973 154.325 361.373 154.325 361.816V367H154.021C153.861 367 153.762 366.925 153.725 366.776L153.613 365.752C153.394 365.965 153.175 366.157 152.957 366.328C152.743 366.499 152.519 366.643 152.285 366.76C152.05 366.877 151.797 366.968 151.525 367.032C151.253 367.096 150.954 367.128 150.629 367.128C150.357 367.128 150.093 367.088 149.837 367.008C149.581 366.928 149.351 366.805 149.149 366.64C148.951 366.475 148.791 366.264 148.669 366.008C148.551 365.747 148.493 365.435 148.493 365.072C148.493 364.736 148.589 364.424 148.781 364.136C148.973 363.848 149.274 363.597 149.685 363.384C150.095 363.171 150.621 363 151.261 362.872C151.906 362.744 152.679 362.669 153.581 362.648V361.816C153.581 361.08 153.421 360.515 153.101 360.12C152.786 359.72 152.317 359.52 151.693 359.52C151.309 359.52 150.981 359.573 150.709 359.68C150.442 359.787 150.215 359.904 150.029 360.032C149.842 360.16 149.69 360.277 149.573 360.384C149.455 360.491 149.357 360.544 149.277 360.544C149.218 360.544 149.17 360.531 149.133 360.504C149.095 360.477 149.063 360.443 149.037 360.4L148.901 360.168ZM157.603 360.432C157.971 359.973 158.395 359.605 158.875 359.328C159.36 359.051 159.899 358.912 160.491 358.912C160.928 358.912 161.312 358.981 161.643 359.12C161.979 359.259 162.256 359.459 162.475 359.72C162.693 359.981 162.859 360.296 162.971 360.664C163.083 361.032 163.139 361.448 163.139 361.912V367H162.371V361.912C162.371 361.165 162.2 360.581 161.859 360.16C161.517 359.733 160.997 359.52 160.299 359.52C159.781 359.52 159.296 359.653 158.843 359.92C158.395 360.181 157.995 360.547 157.643 361.016V367H156.875V359.04H157.299C157.432 359.04 157.509 359.107 157.531 359.24L157.603 360.432ZM171.023 360.104C170.997 360.131 170.97 360.155 170.943 360.176C170.922 360.192 170.89 360.2 170.847 360.2C170.794 360.2 170.722 360.165 170.631 360.096C170.541 360.021 170.418 359.941 170.263 359.856C170.109 359.771 169.914 359.693 169.679 359.624C169.45 359.549 169.17 359.512 168.839 359.512C168.381 359.512 167.973 359.595 167.615 359.76C167.263 359.92 166.965 360.152 166.719 360.456C166.474 360.76 166.287 361.128 166.159 361.56C166.037 361.992 165.975 362.477 165.975 363.016C165.975 363.576 166.039 364.072 166.167 364.504C166.301 364.936 166.487 365.301 166.727 365.6C166.967 365.893 167.258 366.117 167.599 366.272C167.941 366.427 168.319 366.504 168.735 366.504C169.119 366.504 169.439 366.459 169.695 366.368C169.957 366.277 170.17 366.179 170.335 366.072C170.506 365.965 170.639 365.867 170.735 365.776C170.831 365.685 170.911 365.64 170.975 365.64C171.039 365.64 171.093 365.667 171.135 365.72L171.335 365.976C171.213 366.136 171.058 366.285 170.871 366.424C170.685 366.563 170.474 366.683 170.239 366.784C170.005 366.885 169.749 366.963 169.471 367.016C169.199 367.075 168.914 367.104 168.615 367.104C168.109 367.104 167.645 367.013 167.223 366.832C166.807 366.645 166.447 366.379 166.143 366.032C165.845 365.68 165.61 365.251 165.439 364.744C165.274 364.237 165.191 363.661 165.191 363.016C165.191 362.408 165.271 361.853 165.431 361.352C165.591 360.851 165.826 360.419 166.135 360.056C166.445 359.693 166.821 359.413 167.263 359.216C167.711 359.013 168.223 358.912 168.799 358.912C169.317 358.912 169.775 358.995 170.175 359.16C170.575 359.325 170.925 359.549 171.223 359.832L171.023 360.104ZM178.646 362.216C178.646 361.789 178.585 361.408 178.462 361.072C178.345 360.731 178.177 360.443 177.958 360.208C177.739 359.973 177.478 359.795 177.174 359.672C176.875 359.544 176.545 359.48 176.182 359.48C175.771 359.48 175.403 359.544 175.078 359.672C174.753 359.8 174.47 359.984 174.23 360.224C173.995 360.464 173.806 360.752 173.662 361.088C173.518 361.424 173.422 361.8 173.374 362.216H178.646ZM173.334 362.704V362.856C173.334 363.453 173.403 363.979 173.542 364.432C173.681 364.885 173.878 365.267 174.134 365.576C174.39 365.88 174.699 366.109 175.062 366.264C175.425 366.419 175.83 366.496 176.278 366.496C176.678 366.496 177.025 366.453 177.318 366.368C177.611 366.277 177.857 366.179 178.054 366.072C178.257 365.96 178.417 365.861 178.534 365.776C178.651 365.685 178.737 365.64 178.79 365.64C178.859 365.64 178.913 365.667 178.95 365.72L179.158 365.976C179.03 366.136 178.859 366.285 178.646 366.424C178.438 366.563 178.203 366.683 177.942 366.784C177.686 366.88 177.409 366.957 177.11 367.016C176.817 367.075 176.521 367.104 176.222 367.104C175.678 367.104 175.182 367.011 174.734 366.824C174.286 366.632 173.902 366.355 173.582 365.992C173.262 365.629 173.014 365.187 172.838 364.664C172.667 364.136 172.582 363.533 172.582 362.856C172.582 362.285 172.662 361.76 172.822 361.28C172.987 360.795 173.222 360.379 173.526 360.032C173.835 359.68 174.211 359.405 174.654 359.208C175.102 359.011 175.609 358.912 176.174 358.912C176.622 358.912 177.038 358.989 177.422 359.144C177.806 359.299 178.139 359.525 178.422 359.824C178.705 360.117 178.926 360.48 179.086 360.912C179.251 361.344 179.334 361.84 179.334 362.4C179.334 362.517 179.318 362.597 179.286 362.64C179.254 362.683 179.201 362.704 179.126 362.704H173.334ZM182.246 355.36V367H181.478V355.36H182.246ZM193.737 363.152C192.979 363.179 192.326 363.24 191.777 363.336C191.233 363.427 190.782 363.552 190.425 363.712C190.073 363.872 189.811 364.064 189.641 364.288C189.47 364.507 189.385 364.757 189.385 365.04C189.385 365.307 189.427 365.539 189.513 365.736C189.603 365.928 189.721 366.088 189.865 366.216C190.014 366.339 190.185 366.429 190.377 366.488C190.569 366.547 190.769 366.576 190.977 366.576C191.286 366.576 191.569 366.544 191.825 366.48C192.086 366.411 192.326 366.317 192.545 366.2C192.769 366.077 192.977 365.933 193.169 365.768C193.361 365.603 193.55 365.424 193.737 365.232V363.152ZM189.057 360.168C189.473 359.752 189.91 359.437 190.369 359.224C190.827 359.011 191.347 358.904 191.929 358.904C192.355 358.904 192.729 358.973 193.049 359.112C193.369 359.245 193.633 359.44 193.841 359.696C194.054 359.947 194.214 360.253 194.321 360.616C194.427 360.973 194.481 361.373 194.481 361.816V367H194.177C194.017 367 193.918 366.925 193.881 366.776L193.769 365.752C193.55 365.965 193.331 366.157 193.113 366.328C192.899 366.499 192.675 366.643 192.441 366.76C192.206 366.877 191.953 366.968 191.681 367.032C191.409 367.096 191.11 367.128 190.785 367.128C190.513 367.128 190.249 367.088 189.993 367.008C189.737 366.928 189.507 366.805 189.305 366.64C189.107 366.475 188.947 366.264 188.825 366.008C188.707 365.747 188.649 365.435 188.649 365.072C188.649 364.736 188.745 364.424 188.937 364.136C189.129 363.848 189.43 363.597 189.841 363.384C190.251 363.171 190.777 363 191.417 362.872C192.062 362.744 192.835 362.669 193.737 362.648V361.816C193.737 361.08 193.577 360.515 193.257 360.12C192.942 359.72 192.473 359.52 191.849 359.52C191.465 359.52 191.137 359.573 190.865 359.68C190.598 359.787 190.371 359.904 190.185 360.032C189.998 360.16 189.846 360.277 189.729 360.384C189.611 360.491 189.513 360.544 189.433 360.544C189.374 360.544 189.326 360.531 189.289 360.504C189.251 360.477 189.219 360.443 189.193 360.4L189.057 360.168ZM197.759 360.432C198.127 359.973 198.551 359.605 199.031 359.328C199.516 359.051 200.055 358.912 200.647 358.912C201.084 358.912 201.468 358.981 201.799 359.12C202.135 359.259 202.412 359.459 202.631 359.72C202.849 359.981 203.015 360.296 203.127 360.664C203.239 361.032 203.295 361.448 203.295 361.912V367H202.527V361.912C202.527 361.165 202.356 360.581 202.015 360.16C201.673 359.733 201.153 359.52 200.455 359.52C199.937 359.52 199.452 359.653 198.999 359.92C198.551 360.181 198.151 360.547 197.799 361.016V367H197.031V359.04H197.455C197.588 359.04 197.665 359.107 197.687 359.24L197.759 360.432ZM212.088 359.04L207.512 369.56C207.48 369.635 207.437 369.696 207.384 369.744C207.336 369.792 207.264 369.816 207.168 369.816H206.624L208.024 366.704L204.656 359.04H205.288C205.368 359.04 205.432 359.061 205.48 359.104C205.528 359.141 205.56 359.184 205.576 359.232L208.256 365.424C208.288 365.504 208.314 365.587 208.336 365.672C208.362 365.752 208.386 365.835 208.408 365.92C208.434 365.835 208.461 365.752 208.488 365.672C208.52 365.587 208.552 365.504 208.584 365.424L211.232 359.232C211.258 359.173 211.296 359.128 211.344 359.096C211.392 359.059 211.445 359.04 211.504 359.04H212.088ZM220.295 367H219.527V359.856H214.919V365.256C214.919 365.475 214.946 365.664 214.999 365.824C215.058 365.979 215.135 366.107 215.231 366.208C215.332 366.309 215.45 366.384 215.583 366.432C215.716 366.48 215.86 366.504 216.015 366.504C216.207 366.504 216.372 366.477 216.511 366.424C216.65 366.365 216.77 366.304 216.871 366.24C216.972 366.171 217.055 366.109 217.119 366.056C217.183 365.997 217.234 365.968 217.271 365.968C217.314 365.968 217.356 365.995 217.399 366.048L217.607 366.384C217.404 366.608 217.146 366.789 216.831 366.928C216.522 367.061 216.199 367.128 215.863 367.128C215.324 367.128 214.903 366.979 214.599 366.68C214.3 366.381 214.151 365.92 214.151 365.296V359.856H213.007C212.948 359.856 212.9 359.84 212.863 359.808C212.826 359.776 212.807 359.731 212.807 359.672V359.376L214.167 359.28L214.359 356.432C214.37 356.384 214.391 356.341 214.423 356.304C214.455 356.267 214.5 356.248 214.559 356.248H214.919V359.288H220.295V367ZM220.647 356.2C220.647 356.296 220.626 356.387 220.583 356.472C220.546 356.552 220.492 356.624 220.423 356.688C220.359 356.752 220.284 356.803 220.199 356.84C220.114 356.877 220.023 356.896 219.927 356.896C219.831 356.896 219.74 356.877 219.655 356.84C219.57 356.803 219.495 356.752 219.431 356.688C219.367 356.624 219.316 356.552 219.279 356.472C219.242 356.387 219.223 356.296 219.223 356.2C219.223 356.104 219.242 356.013 219.279 355.928C219.316 355.837 219.367 355.76 219.431 355.696C219.495 355.632 219.57 355.581 219.655 355.544C219.74 355.507 219.831 355.488 219.927 355.488C220.023 355.488 220.114 355.507 220.199 355.544C220.284 355.581 220.359 355.632 220.423 355.696C220.492 355.76 220.546 355.837 220.583 355.928C220.626 356.013 220.647 356.104 220.647 356.2ZM223 367V359.04H223.424C223.557 359.04 223.634 359.107 223.656 359.24L223.728 360.392C224.037 359.949 224.392 359.592 224.792 359.32C225.192 359.048 225.642 358.912 226.144 358.912C226.725 358.912 227.189 359.08 227.536 359.416C227.888 359.752 228.125 360.219 228.248 360.816C228.344 360.491 228.477 360.208 228.648 359.968C228.824 359.728 229.024 359.531 229.248 359.376C229.472 359.216 229.714 359.099 229.976 359.024C230.242 358.949 230.514 358.912 230.792 358.912C231.186 358.912 231.541 358.979 231.856 359.112C232.17 359.24 232.437 359.432 232.656 359.688C232.874 359.944 233.042 360.259 233.16 360.632C233.277 361.005 233.336 361.432 233.336 361.912V367H232.576V361.912C232.576 361.133 232.408 360.541 232.072 360.136C231.736 359.725 231.256 359.52 230.632 359.52C230.354 359.52 230.088 359.571 229.832 359.672C229.581 359.773 229.357 359.925 229.16 360.128C228.968 360.325 228.813 360.573 228.696 360.872C228.584 361.171 228.528 361.517 228.528 361.912V367H227.76V361.912C227.76 361.139 227.605 360.547 227.296 360.136C226.992 359.725 226.544 359.52 225.952 359.52C225.52 359.52 225.12 359.648 224.752 359.904C224.384 360.16 224.056 360.515 223.768 360.968V367H223ZM241.459 362.216C241.459 361.789 241.397 361.408 241.275 361.072C241.157 360.731 240.989 360.443 240.771 360.208C240.552 359.973 240.291 359.795 239.987 359.672C239.688 359.544 239.357 359.48 238.995 359.48C238.584 359.48 238.216 359.544 237.891 359.672C237.565 359.8 237.283 359.984 237.043 360.224C236.808 360.464 236.619 360.752 236.475 361.088C236.331 361.424 236.235 361.8 236.187 362.216H241.459ZM236.147 362.704V362.856C236.147 363.453 236.216 363.979 236.355 364.432C236.493 364.885 236.691 365.267 236.947 365.576C237.203 365.88 237.512 366.109 237.875 366.264C238.237 366.419 238.643 366.496 239.091 366.496C239.491 366.496 239.837 366.453 240.131 366.368C240.424 366.277 240.669 366.179 240.867 366.072C241.069 365.96 241.229 365.861 241.347 365.776C241.464 365.685 241.549 365.64 241.603 365.64C241.672 365.64 241.725 365.667 241.763 365.72L241.971 365.976C241.843 366.136 241.672 366.285 241.459 366.424C241.251 366.563 241.016 366.683 240.755 366.784C240.499 366.88 240.221 366.957 239.923 367.016C239.629 367.075 239.333 367.104 239.035 367.104C238.491 367.104 237.995 367.011 237.547 366.824C237.099 366.632 236.715 366.355 236.395 365.992C236.075 365.629 235.827 365.187 235.651 364.664C235.48 364.136 235.395 363.533 235.395 362.856C235.395 362.285 235.475 361.76 235.635 361.28C235.8 360.795 236.035 360.379 236.339 360.032C236.648 359.68 237.024 359.405 237.467 359.208C237.915 359.011 238.421 358.912 238.987 358.912C239.435 358.912 239.851 358.989 240.235 359.144C240.619 359.299 240.952 359.525 241.235 359.824C241.517 360.117 241.739 360.48 241.899 360.912C242.064 361.344 242.147 361.84 242.147 362.4C242.147 362.517 242.131 362.597 242.099 362.64C242.067 362.683 242.013 362.704 241.939 362.704H236.147Z" fill="#030A1B"/>
<path d="M108.144 323.368C109.84 323.144 111.12 322.576 111.984 321.664C112.864 320.736 113.304 319.528 113.304 318.04C113.304 317.432 113.192 316.904 112.968 316.456C112.76 315.992 112.456 315.584 112.056 315.232C111.672 314.88 111.216 314.576 110.688 314.32C110.16 314.064 109.584 313.824 108.96 313.6L108.144 323.368ZM106.608 298C105.712 298.112 104.952 298.304 104.328 298.576C103.704 298.832 103.192 299.152 102.792 299.536C102.392 299.92 102.096 300.352 101.904 300.832C101.728 301.312 101.64 301.816 101.64 302.344C101.64 302.952 101.744 303.488 101.952 303.952C102.176 304.4 102.472 304.808 102.84 305.176C103.224 305.528 103.672 305.848 104.184 306.136C104.696 306.408 105.256 306.664 105.864 306.904L106.608 298ZM109.416 308.056C110.568 308.408 111.712 308.8 112.848 309.232C113.984 309.648 115 310.192 115.896 310.864C116.808 311.536 117.544 312.376 118.104 313.384C118.664 314.376 118.944 315.624 118.944 317.128C118.944 318.616 118.696 320.016 118.2 321.328C117.704 322.624 116.976 323.776 116.016 324.784C115.056 325.776 113.88 326.592 112.488 327.232C111.096 327.856 109.504 328.224 107.712 328.336L107.424 331.864C107.408 332.232 107.248 332.568 106.944 332.872C106.656 333.192 106.288 333.352 105.84 333.352H103.656L104.088 328.216C102.216 327.96 100.456 327.448 98.808 326.68C97.16 325.912 95.76 324.96 94.608 323.824L96.432 321.112C96.592 320.872 96.8 320.68 97.056 320.536C97.328 320.376 97.616 320.296 97.92 320.296C98.272 320.296 98.648 320.424 99.048 320.68C99.448 320.92 99.904 321.208 100.416 321.544C100.928 321.864 101.512 322.192 102.168 322.528C102.824 322.864 103.6 323.112 104.496 323.272L105.384 312.544C104.248 312.224 103.12 311.848 102 311.416C100.896 310.984 99.896 310.416 99 309.712C98.12 308.992 97.408 308.088 96.864 307C96.32 305.912 96.048 304.552 96.048 302.92C96.048 301.704 96.288 300.52 96.768 299.368C97.248 298.2 97.952 297.16 98.88 296.248C99.824 295.336 100.976 294.584 102.336 293.992C103.696 293.4 105.256 293.064 107.016 292.984L107.28 289.96C107.312 289.576 107.472 289.232 107.76 288.928C108.048 288.624 108.424 288.472 108.888 288.472H111.072L110.688 293.176C112.384 293.448 113.848 293.936 115.08 294.64C116.312 295.328 117.376 296.104 118.272 296.968L116.832 299.152C116.624 299.472 116.408 299.712 116.184 299.872C115.96 300.032 115.688 300.112 115.368 300.112C115.128 300.112 114.84 300.04 114.504 299.896C114.168 299.736 113.792 299.552 113.376 299.344C112.96 299.12 112.488 298.896 111.96 298.672C111.448 298.448 110.88 298.264 110.256 298.12L109.416 308.056ZM123.436 302.968C123.676 301.304 124.14 299.848 124.828 298.6C125.516 297.336 126.372 296.288 127.396 295.456C128.436 294.608 129.62 293.976 130.948 293.56C132.292 293.128 133.732 292.912 135.268 292.912C136.868 292.912 138.308 293.144 139.588 293.608C140.884 294.056 141.988 294.688 142.9 295.504C143.812 296.304 144.508 297.248 144.988 298.336C145.484 299.424 145.732 300.6 145.732 301.864C145.732 302.968 145.604 303.944 145.348 304.792C145.108 305.624 144.756 306.352 144.292 306.976C143.828 307.6 143.252 308.128 142.564 308.56C141.876 308.992 141.1 309.352 140.236 309.64C142.316 310.296 143.868 311.296 144.892 312.64C145.916 313.984 146.428 315.672 146.428 317.704C146.428 319.432 146.108 320.96 145.468 322.288C144.828 323.616 143.964 324.736 142.876 325.648C141.788 326.544 140.524 327.224 139.084 327.688C137.66 328.152 136.148 328.384 134.548 328.384C132.804 328.384 131.284 328.184 129.988 327.784C128.692 327.384 127.564 326.792 126.604 326.008C125.644 325.224 124.828 324.264 124.156 323.128C123.484 321.992 122.908 320.68 122.428 319.192L125.044 318.112C125.732 317.824 126.372 317.752 126.964 317.896C127.572 318.024 128.012 318.344 128.284 318.856C128.572 319.416 128.884 319.968 129.22 320.512C129.572 321.056 129.988 321.544 130.468 321.976C130.948 322.392 131.508 322.736 132.148 323.008C132.804 323.264 133.58 323.392 134.476 323.392C135.484 323.392 136.364 323.232 137.116 322.912C137.868 322.576 138.492 322.144 138.988 321.616C139.5 321.088 139.876 320.504 140.116 319.864C140.372 319.208 140.5 318.552 140.5 317.896C140.5 317.064 140.412 316.312 140.236 315.64C140.06 314.952 139.692 314.368 139.132 313.888C138.572 313.408 137.764 313.032 136.708 312.76C135.668 312.488 134.268 312.352 132.508 312.352V308.128C133.964 308.112 135.172 307.976 136.132 307.72C137.092 307.464 137.852 307.112 138.412 306.664C138.988 306.2 139.388 305.648 139.612 305.008C139.836 304.368 139.948 303.664 139.948 302.896C139.948 301.264 139.492 300.024 138.58 299.176C137.668 298.328 136.452 297.904 134.932 297.904C134.228 297.904 133.58 298.008 132.988 298.216C132.396 298.408 131.86 298.688 131.38 299.056C130.916 299.408 130.524 299.824 130.204 300.304C129.884 300.784 129.644 301.312 129.484 301.888C129.212 302.624 128.852 303.112 128.404 303.352C127.972 303.592 127.356 303.648 126.556 303.52L123.436 302.968ZM158.432 305.896C159.2 305.736 159.936 305.624 160.64 305.56C161.344 305.48 162.024 305.44 162.68 305.44C164.504 305.44 166.112 305.712 167.504 306.256C168.896 306.8 170.064 307.552 171.008 308.512C171.952 309.472 172.664 310.6 173.144 311.896C173.624 313.176 173.864 314.56 173.864 316.048C173.864 317.888 173.536 319.568 172.88 321.088C172.24 322.608 171.344 323.912 170.192 325C169.04 326.072 167.672 326.904 166.088 327.496C164.52 328.088 162.808 328.384 160.952 328.384C159.864 328.384 158.832 328.272 157.856 328.048C156.88 327.824 155.96 327.528 155.096 327.16C154.248 326.776 153.456 326.344 152.72 325.864C152 325.368 151.352 324.848 150.776 324.304L152.6 321.784C152.984 321.24 153.488 320.968 154.112 320.968C154.512 320.968 154.92 321.096 155.336 321.352C155.752 321.608 156.224 321.888 156.752 322.192C157.296 322.496 157.928 322.776 158.648 323.032C159.384 323.288 160.264 323.416 161.288 323.416C162.376 323.416 163.336 323.24 164.168 322.888C165 322.536 165.688 322.048 166.232 321.424C166.792 320.784 167.208 320.032 167.48 319.168C167.768 318.288 167.912 317.336 167.912 316.312C167.912 314.424 167.36 312.952 166.256 311.896C165.168 310.824 163.552 310.288 161.408 310.288C159.76 310.288 158.072 310.592 156.344 311.2L152.648 310.144L155.528 293.296H172.664V295.816C172.664 296.664 172.4 297.352 171.872 297.88C171.344 298.408 170.448 298.672 169.184 298.672H159.656L158.432 305.896ZM178.595 324.736C178.595 324.24 178.683 323.768 178.859 323.32C179.051 322.872 179.307 322.488 179.627 322.168C179.947 321.848 180.331 321.592 180.779 321.4C181.227 321.208 181.707 321.112 182.219 321.112C182.731 321.112 183.203 321.208 183.635 321.4C184.083 321.592 184.467 321.848 184.787 322.168C185.123 322.488 185.387 322.872 185.579 323.32C185.771 323.768 185.867 324.24 185.867 324.736C185.867 325.248 185.771 325.728 185.579 326.176C185.387 326.608 185.123 326.984 184.787 327.304C184.467 327.624 184.083 327.872 183.635 328.048C183.203 328.24 182.731 328.336 182.219 328.336C181.707 328.336 181.227 328.24 180.779 328.048C180.331 327.872 179.947 327.624 179.627 327.304C179.307 326.984 179.051 326.608 178.859 326.176C178.683 325.728 178.595 325.248 178.595 324.736ZM212.762 323.56V328H193.562V323.56H200.594V303.328C200.594 302.528 200.618 301.704 200.666 300.856L195.674 305.032C195.386 305.256 195.098 305.4 194.81 305.464C194.538 305.512 194.274 305.512 194.018 305.464C193.778 305.416 193.562 305.336 193.37 305.224C193.178 305.096 193.034 304.96 192.938 304.816L191.066 302.248L201.65 293.248H206.522V323.56H212.762ZM223.686 303.712C223.686 305.648 224.182 307.128 225.174 308.152C226.182 309.16 227.606 309.664 229.446 309.664C230.406 309.664 231.262 309.512 232.014 309.208C232.766 308.904 233.398 308.488 233.91 307.96C234.422 307.432 234.806 306.808 235.062 306.088C235.334 305.368 235.47 304.592 235.47 303.76C235.47 302.816 235.326 301.976 235.038 301.24C234.75 300.488 234.342 299.856 233.814 299.344C233.286 298.832 232.654 298.44 231.918 298.168C231.198 297.896 230.406 297.76 229.542 297.76C228.646 297.76 227.838 297.912 227.118 298.216C226.398 298.504 225.782 298.912 225.27 299.44C224.758 299.968 224.366 300.6 224.094 301.336C223.822 302.056 223.686 302.848 223.686 303.712ZM231.558 314.536C231.83 314.2 232.086 313.872 232.326 313.552C232.566 313.232 232.798 312.912 233.022 312.592C232.222 313.104 231.342 313.496 230.382 313.768C229.422 314.024 228.414 314.152 227.358 314.152C226.158 314.152 224.982 313.944 223.83 313.528C222.678 313.112 221.654 312.488 220.758 311.656C219.862 310.808 219.134 309.768 218.574 308.536C218.03 307.288 217.758 305.832 217.758 304.168C217.758 302.616 218.046 301.16 218.622 299.8C219.198 298.44 220.006 297.248 221.046 296.224C222.086 295.2 223.334 294.392 224.79 293.8C226.246 293.208 227.854 292.912 229.614 292.912C231.39 292.912 232.982 293.192 234.39 293.752C235.814 294.312 237.022 295.096 238.014 296.104C239.022 297.112 239.79 298.32 240.318 299.728C240.862 301.136 241.134 302.68 241.134 304.36C241.134 305.432 241.038 306.448 240.846 307.408C240.67 308.368 240.414 309.296 240.078 310.192C239.742 311.072 239.334 311.936 238.854 312.784C238.374 313.632 237.838 314.472 237.246 315.304L229.302 326.632C229.03 327.016 228.622 327.344 228.078 327.616C227.534 327.872 226.918 328 226.23 328H220.782L231.558 314.536ZM251.529 303.712C251.529 305.648 252.025 307.128 253.017 308.152C254.025 309.16 255.449 309.664 257.289 309.664C258.249 309.664 259.105 309.512 259.857 309.208C260.609 308.904 261.241 308.488 261.753 307.96C262.265 307.432 262.649 306.808 262.905 306.088C263.177 305.368 263.313 304.592 263.313 303.76C263.313 302.816 263.169 301.976 262.881 301.24C262.593 300.488 262.185 299.856 261.657 299.344C261.129 298.832 260.497 298.44 259.761 298.168C259.041 297.896 258.249 297.76 257.385 297.76C256.489 297.76 255.681 297.912 254.961 298.216C254.241 298.504 253.625 298.912 253.113 299.44C252.601 299.968 252.209 300.6 251.937 301.336C251.665 302.056 251.529 302.848 251.529 303.712ZM259.401 314.536C259.673 314.2 259.929 313.872 260.169 313.552C260.409 313.232 260.641 312.912 260.865 312.592C260.065 313.104 259.185 313.496 258.225 313.768C257.265 314.024 256.257 314.152 255.201 314.152C254.001 314.152 252.825 313.944 251.673 313.528C250.521 313.112 249.497 312.488 248.601 311.656C247.705 310.808 246.977 309.768 246.417 308.536C245.873 307.288 245.601 305.832 245.601 304.168C245.601 302.616 245.889 301.16 246.465 299.8C247.041 298.44 247.849 297.248 248.889 296.224C249.929 295.2 251.177 294.392 252.633 293.8C254.089 293.208 255.697 292.912 257.457 292.912C259.233 292.912 260.825 293.192 262.233 293.752C263.657 294.312 264.865 295.096 265.857 296.104C266.865 297.112 267.633 298.32 268.161 299.728C268.705 301.136 268.977 302.68 268.977 304.36C268.977 305.432 268.881 306.448 268.689 307.408C268.513 308.368 268.257 309.296 267.921 310.192C267.585 311.072 267.177 311.936 266.697 312.784C266.217 313.632 265.681 314.472 265.089 315.304L257.145 326.632C256.873 327.016 256.465 327.344 255.921 327.616C255.377 327.872 254.761 328 254.073 328H248.625L259.401 314.536Z" fill="#228EE5"/>
<g filter="url(#filter1_d_1357_5829)">
<path d="M89.144 105.744C90.328 105.744 91.36 105.6 92.24 105.312C93.12 105.008 93.848 104.584 94.424 104.04C95.016 103.48 95.456 102.808 95.744 102.024C96.032 101.224 96.176 100.336 96.176 99.36C96.176 98.432 96.032 97.592 95.744 96.84C95.456 96.088 95.024 95.448 94.448 94.92C93.872 94.392 93.144 93.992 92.264 93.72C91.384 93.432 90.344 93.288 89.144 93.288H84.32V105.744H89.144ZM89.144 88.296C91.464 88.296 93.472 88.568 95.168 89.112C96.864 89.656 98.264 90.416 99.368 91.392C100.472 92.368 101.288 93.536 101.816 94.896C102.36 96.256 102.632 97.744 102.632 99.36C102.632 101.04 102.352 102.584 101.792 103.992C101.232 105.384 100.392 106.584 99.272 107.592C98.152 108.6 96.744 109.384 95.048 109.944C93.368 110.504 91.4 110.784 89.144 110.784H84.32V123H77.864V88.296H89.144ZM111.864 102.648C112.632 101.176 113.544 100.024 114.6 99.192C115.656 98.344 116.904 97.92 118.344 97.92C119.48 97.92 120.392 98.168 121.08 98.664L120.696 103.104C120.616 103.392 120.496 103.6 120.336 103.728C120.192 103.84 119.992 103.896 119.736 103.896C119.496 103.896 119.136 103.856 118.656 103.776C118.192 103.696 117.736 103.656 117.288 103.656C116.632 103.656 116.048 103.752 115.536 103.944C115.024 104.136 114.56 104.416 114.144 104.784C113.744 105.136 113.384 105.568 113.064 106.08C112.76 106.592 112.472 107.176 112.2 107.832V123H106.272V98.376H109.752C110.36 98.376 110.784 98.488 111.024 98.712C111.264 98.92 111.424 99.304 111.504 99.864L111.864 102.648ZM139.339 107.856C139.339 107.088 139.227 106.368 139.003 105.696C138.795 105.008 138.475 104.408 138.043 103.896C137.611 103.384 137.059 102.984 136.387 102.696C135.731 102.392 134.963 102.24 134.083 102.24C132.371 102.24 131.019 102.728 130.027 103.704C129.051 104.68 128.427 106.064 128.155 107.856H139.339ZM128.035 111.432C128.131 112.696 128.355 113.792 128.707 114.72C129.059 115.632 129.523 116.392 130.099 117C130.675 117.592 131.355 118.04 132.139 118.344C132.939 118.632 133.819 118.776 134.779 118.776C135.739 118.776 136.563 118.664 137.251 118.44C137.955 118.216 138.563 117.968 139.075 117.696C139.603 117.424 140.059 117.176 140.443 116.952C140.843 116.728 141.227 116.616 141.595 116.616C142.091 116.616 142.459 116.8 142.699 117.168L144.403 119.328C143.747 120.096 143.011 120.744 142.195 121.272C141.379 121.784 140.523 122.2 139.627 122.52C138.747 122.824 137.843 123.04 136.915 123.168C136.003 123.296 135.115 123.36 134.251 123.36C132.539 123.36 130.947 123.08 129.475 122.52C128.003 121.944 126.723 121.104 125.635 120C124.547 118.88 123.691 117.504 123.067 115.872C122.443 114.224 122.131 112.32 122.131 110.16C122.131 108.48 122.403 106.904 122.947 105.432C123.491 103.944 124.267 102.656 125.275 101.568C126.299 100.464 127.539 99.592 128.995 98.952C130.467 98.312 132.123 97.992 133.963 97.992C135.515 97.992 136.947 98.24 138.259 98.736C139.571 99.232 140.699 99.96 141.643 100.92C142.587 101.864 143.323 103.032 143.851 104.424C144.395 105.8 144.667 107.376 144.667 109.152C144.667 110.048 144.571 110.656 144.379 110.976C144.187 111.28 143.819 111.432 143.275 111.432H128.035ZM149.116 123V98.376H152.74C153.508 98.376 154.012 98.736 154.252 99.456L154.636 101.28C155.068 100.8 155.516 100.36 155.98 99.96C156.46 99.56 156.964 99.216 157.492 98.928C158.036 98.64 158.612 98.416 159.22 98.256C159.844 98.08 160.524 97.992 161.26 97.992C162.812 97.992 164.084 98.416 165.076 99.264C166.084 100.096 166.836 101.208 167.332 102.6C167.716 101.784 168.196 101.088 168.772 100.512C169.348 99.92 169.98 99.44 170.668 99.072C171.356 98.704 172.084 98.432 172.852 98.256C173.636 98.08 174.42 97.992 175.204 97.992C176.564 97.992 177.772 98.2 178.828 98.616C179.884 99.032 180.772 99.64 181.492 100.44C182.212 101.24 182.756 102.216 183.124 103.368C183.508 104.52 183.7 105.84 183.7 107.328V123H177.772V107.328C177.772 105.76 177.428 104.584 176.74 103.8C176.052 103 175.044 102.6 173.716 102.6C173.108 102.6 172.54 102.704 172.012 102.912C171.5 103.12 171.044 103.424 170.644 103.824C170.26 104.208 169.956 104.696 169.732 105.288C169.508 105.88 169.396 106.56 169.396 107.328V123H163.444V107.328C163.444 105.68 163.108 104.48 162.436 103.728C161.78 102.976 160.812 102.6 159.532 102.6C158.668 102.6 157.86 102.816 157.108 103.248C156.372 103.664 155.684 104.24 155.044 104.976V123H149.116ZM195.478 98.376V123H189.526V98.376H195.478ZM196.294 91.2C196.294 91.712 196.19 92.192 195.982 92.64C195.774 93.088 195.494 93.48 195.142 93.816C194.806 94.152 194.406 94.424 193.942 94.632C193.478 94.824 192.982 94.92 192.454 94.92C191.942 94.92 191.454 94.824 190.99 94.632C190.542 94.424 190.15 94.152 189.814 93.816C189.478 93.48 189.206 93.088 188.998 92.64C188.806 92.192 188.71 91.712 188.71 91.2C188.71 90.672 188.806 90.176 188.998 89.712C189.206 89.248 189.478 88.848 189.814 88.512C190.15 88.176 190.542 87.912 190.99 87.72C191.454 87.512 191.942 87.408 192.454 87.408C192.982 87.408 193.478 87.512 193.942 87.72C194.406 87.912 194.806 88.176 195.142 88.512C195.494 88.848 195.774 89.248 195.982 89.712C196.19 90.176 196.294 90.672 196.294 91.2ZM222.738 98.376V123H219.114C218.33 123 217.834 122.64 217.626 121.92L217.218 119.952C216.21 120.976 215.098 121.808 213.882 122.448C212.666 123.072 211.234 123.384 209.586 123.384C208.242 123.384 207.05 123.16 206.01 122.712C204.986 122.248 204.122 121.6 203.418 120.768C202.714 119.936 202.178 118.952 201.81 117.816C201.458 116.664 201.282 115.4 201.282 114.024V98.376H207.21V114.024C207.21 115.528 207.554 116.696 208.242 117.528C208.946 118.344 209.994 118.752 211.386 118.752C212.41 118.752 213.37 118.528 214.266 118.08C215.162 117.616 216.01 116.984 216.81 116.184V98.376H222.738ZM228.616 123V98.376H232.24C233.008 98.376 233.512 98.736 233.752 99.456L234.136 101.28C234.568 100.8 235.016 100.36 235.48 99.96C235.96 99.56 236.464 99.216 236.992 98.928C237.536 98.64 238.112 98.416 238.72 98.256C239.344 98.08 240.024 97.992 240.76 97.992C242.312 97.992 243.584 98.416 244.576 99.264C245.584 100.096 246.336 101.208 246.832 102.6C247.216 101.784 247.696 101.088 248.272 100.512C248.848 99.92 249.48 99.44 250.168 99.072C250.856 98.704 251.584 98.432 252.352 98.256C253.136 98.08 253.92 97.992 254.704 97.992C256.064 97.992 257.272 98.2 258.328 98.616C259.384 99.032 260.272 99.64 260.992 100.44C261.712 101.24 262.256 102.216 262.624 103.368C263.008 104.52 263.2 105.84 263.2 107.328V123H257.272V107.328C257.272 105.76 256.928 104.584 256.24 103.8C255.552 103 254.544 102.6 253.216 102.6C252.608 102.6 252.04 102.704 251.512 102.912C251 103.12 250.544 103.424 250.144 103.824C249.76 104.208 249.456 104.696 249.232 105.288C249.008 105.88 248.896 106.56 248.896 107.328V123H242.944V107.328C242.944 105.68 242.608 104.48 241.936 103.728C241.28 102.976 240.312 102.6 239.032 102.6C238.168 102.6 237.36 102.816 236.608 103.248C235.872 103.664 235.184 104.24 234.544 104.976V123H228.616Z" fill="#228EE5"/>
</g>
<path d="M135.264 173.212V175H125.952V173.212H129.6V161.92C129.6 161.56 129.612 161.188 129.636 160.804L126.708 163.288C126.596 163.376 126.484 163.432 126.372 163.456C126.26 163.48 126.152 163.484 126.048 163.468C125.952 163.452 125.864 163.42 125.784 163.372C125.712 163.316 125.652 163.26 125.604 163.204L124.872 162.184L130.032 157.732H131.94V173.212H135.264ZM148.754 172.78C149.01 172.78 149.21 172.856 149.354 173.008C149.498 173.152 149.57 173.344 149.57 173.584V175H138.002V174.196C138.002 174.036 138.034 173.868 138.098 173.692C138.162 173.508 138.27 173.344 138.422 173.2L143.87 167.74C144.326 167.284 144.738 166.844 145.106 166.42C145.474 165.996 145.786 165.576 146.042 165.16C146.298 164.736 146.494 164.304 146.63 163.864C146.774 163.424 146.846 162.96 146.846 162.472C146.846 161.992 146.77 161.572 146.618 161.212C146.466 160.844 146.258 160.54 145.994 160.3C145.73 160.06 145.418 159.88 145.058 159.76C144.698 159.64 144.31 159.58 143.894 159.58C143.478 159.58 143.094 159.64 142.742 159.76C142.398 159.88 142.09 160.048 141.818 160.264C141.546 160.48 141.318 160.736 141.134 161.032C140.95 161.328 140.818 161.648 140.738 161.992C140.626 162.296 140.482 162.5 140.306 162.604C140.138 162.708 139.89 162.732 139.562 162.676L138.338 162.46C138.45 161.66 138.67 160.956 138.998 160.348C139.326 159.74 139.738 159.232 140.234 158.824C140.73 158.408 141.298 158.096 141.938 157.888C142.586 157.68 143.282 157.576 144.026 157.576C144.778 157.576 145.47 157.688 146.102 157.912C146.742 158.128 147.294 158.444 147.758 158.86C148.222 159.276 148.586 159.784 148.85 160.384C149.114 160.976 149.246 161.648 149.246 162.4C149.246 163.04 149.15 163.636 148.958 164.188C148.774 164.732 148.518 165.252 148.19 165.748C147.87 166.244 147.494 166.728 147.062 167.2C146.638 167.664 146.186 168.136 145.706 168.616L141.338 173.08C141.674 172.992 142.01 172.92 142.346 172.864C142.69 172.808 143.014 172.78 143.318 172.78H148.754ZM152.488 175V162.808H153.892C154.22 162.808 154.424 162.964 154.504 163.276L154.672 164.44C155.12 163.904 155.616 163.468 156.16 163.132C156.712 162.788 157.356 162.616 158.092 162.616C158.9 162.616 159.556 162.84 160.06 163.288C160.564 163.728 160.932 164.328 161.164 165.088C161.34 164.656 161.568 164.284 161.848 163.972C162.128 163.66 162.44 163.404 162.784 163.204C163.128 163.004 163.492 162.856 163.876 162.76C164.268 162.664 164.664 162.616 165.064 162.616C165.712 162.616 166.288 162.72 166.792 162.928C167.304 163.128 167.736 163.424 168.088 163.816C168.44 164.208 168.708 164.692 168.892 165.268C169.076 165.844 169.168 166.5 169.168 167.236V175H166.816V167.236C166.816 166.324 166.616 165.636 166.216 165.172C165.824 164.708 165.248 164.476 164.488 164.476C164.152 164.476 163.832 164.536 163.528 164.656C163.224 164.768 162.956 164.94 162.724 165.172C162.5 165.404 162.32 165.692 162.184 166.036C162.056 166.38 161.992 166.78 161.992 167.236V175H159.64V167.236C159.64 166.292 159.452 165.596 159.076 165.148C158.7 164.7 158.148 164.476 157.42 164.476C156.916 164.476 156.448 164.608 156.016 164.872C155.584 165.136 155.188 165.496 154.828 165.952V175H152.488ZM177.512 162.616C178.408 162.616 179.216 162.764 179.936 163.06C180.664 163.348 181.28 163.768 181.784 164.32C182.296 164.864 182.688 165.524 182.96 166.3C183.232 167.068 183.368 167.932 183.368 168.892C183.368 169.852 183.232 170.72 182.96 171.496C182.688 172.272 182.296 172.932 181.784 173.476C181.28 174.02 180.664 174.44 179.936 174.736C179.216 175.024 178.408 175.168 177.512 175.168C176.608 175.168 175.792 175.024 175.064 174.736C174.344 174.44 173.728 174.02 173.216 173.476C172.704 172.932 172.308 172.272 172.028 171.496C171.756 170.72 171.62 169.852 171.62 168.892C171.62 167.932 171.756 167.068 172.028 166.3C172.308 165.524 172.704 164.864 173.216 164.32C173.728 163.768 174.344 163.348 175.064 163.06C175.792 162.764 176.608 162.616 177.512 162.616ZM177.512 173.344C178.664 173.344 179.524 172.956 180.092 172.18C180.66 171.404 180.944 170.312 180.944 168.904C180.944 167.496 180.66 166.404 180.092 165.628C179.524 164.844 178.664 164.452 177.512 164.452C176.344 164.452 175.472 164.844 174.896 165.628C174.328 166.404 174.044 167.496 174.044 168.904C174.044 170.312 174.328 171.404 174.896 172.18C175.472 172.956 176.344 173.344 177.512 173.344ZM188.176 164.5C188.44 164.22 188.716 163.964 189.004 163.732C189.292 163.5 189.596 163.304 189.916 163.144C190.244 162.976 190.592 162.848 190.96 162.76C191.336 162.664 191.736 162.616 192.16 162.616C192.832 162.616 193.42 162.728 193.924 162.952C194.436 163.176 194.864 163.492 195.208 163.9C195.552 164.3 195.812 164.784 195.988 165.352C196.164 165.92 196.252 166.548 196.252 167.236V175H193.9V167.236C193.9 166.364 193.7 165.688 193.3 165.208C192.9 164.72 192.288 164.476 191.464 164.476C190.864 164.476 190.3 164.62 189.772 164.908C189.252 165.188 188.768 165.572 188.32 166.06V175H185.98V162.808H187.384C187.712 162.808 187.916 162.964 187.996 163.276L188.176 164.5ZM203.062 175.192C202.078 175.192 201.318 174.916 200.782 174.364C200.254 173.812 199.99 173.024 199.99 172V164.704H198.574C198.438 164.704 198.322 164.664 198.226 164.584C198.138 164.496 198.094 164.368 198.094 164.2V163.252L200.074 162.976L200.602 159.34C200.634 159.204 200.694 159.1 200.782 159.028C200.878 158.948 200.998 158.908 201.142 158.908H202.33V163H205.786V164.704H202.33V171.844C202.33 172.324 202.446 172.684 202.678 172.924C202.918 173.156 203.222 173.272 203.59 173.272C203.806 173.272 203.99 173.244 204.142 173.188C204.302 173.132 204.438 173.072 204.55 173.008C204.662 172.936 204.758 172.872 204.838 172.816C204.918 172.76 204.99 172.732 205.054 172.732C205.134 172.732 205.194 172.752 205.234 172.792C205.282 172.824 205.33 172.88 205.378 172.96L206.074 174.088C205.69 174.44 205.234 174.712 204.706 174.904C204.178 175.096 203.63 175.192 203.062 175.192ZM210.281 164.356C210.793 163.836 211.357 163.416 211.973 163.096C212.597 162.776 213.313 162.616 214.121 162.616C214.793 162.616 215.381 162.728 215.885 162.952C216.397 163.176 216.825 163.492 217.169 163.9C217.513 164.3 217.773 164.784 217.949 165.352C218.125 165.92 218.213 166.548 218.213 167.236V175H215.861V167.236C215.861 166.364 215.661 165.688 215.261 165.208C214.861 164.72 214.249 164.476 213.425 164.476C212.825 164.476 212.261 164.62 211.733 164.908C211.213 165.188 210.729 165.572 210.281 166.06V175H207.941V157.288H210.281V164.356Z" fill="#228EE5"/>
<rect x="107.5" y="427.5" width="155" height="39" rx="11.5" fill="url(#paint0_linear_1357_5829)"/>
<rect x="107.5" y="427.5" width="155" height="39" rx="11.5" stroke="#228EE5"/>
<path fill-rule="evenodd" clip-rule="evenodd" d="M123.25 442V442.625H121.594C120.794 442.625 120.124 443.229 120.04 444.024L118.987 454.024C118.89 454.946 119.614 455.75 120.541 455.75H133.458C134.386 455.75 135.109 454.946 135.012 454.024L133.96 444.024C133.876 443.229 133.205 442.625 132.406 442.625H130.75V442C130.75 439.929 129.071 438.25 127 438.25C124.929 438.25 123.25 439.929 123.25 442ZM127 439.5C125.619 439.5 124.5 440.619 124.5 442V442.625H129.5V442C129.5 440.619 128.38 439.5 127 439.5ZM124.5 446.375C124.5 447.756 125.619 448.875 127 448.875C128.38 448.875 129.5 447.756 129.5 446.375V445.75C129.5 445.405 129.78 445.125 130.125 445.125C130.47 445.125 130.75 445.405 130.75 445.75V446.375C130.75 448.446 129.071 450.125 127 450.125C124.929 450.125 123.25 448.446 123.25 446.375V445.75C123.25 445.405 123.53 445.125 123.875 445.125C124.22 445.125 124.5 445.405 124.5 445.75V446.375Z" fill="#EBFAFF"/>
<path d="M151.731 450.632C151.816 450.632 151.891 450.667 151.955 450.736L152.571 451.4C152.101 451.944 151.531 452.368 150.859 452.672C150.192 452.976 149.384 453.128 148.435 453.128C147.613 453.128 146.867 452.987 146.195 452.704C145.523 452.416 144.949 452.016 144.475 451.504C144 450.987 143.632 450.368 143.371 449.648C143.109 448.928 142.979 448.136 142.979 447.272C142.979 446.408 143.115 445.616 143.387 444.896C143.659 444.176 144.04 443.557 144.531 443.04C145.027 442.523 145.619 442.123 146.307 441.84C146.995 441.552 147.755 441.408 148.587 441.408C149.403 441.408 150.123 441.539 150.747 441.8C151.371 442.061 151.92 442.416 152.395 442.864L151.883 443.576C151.851 443.629 151.808 443.675 151.755 443.712C151.707 443.744 151.64 443.76 151.555 443.76C151.459 443.76 151.341 443.709 151.203 443.608C151.064 443.501 150.883 443.384 150.659 443.256C150.435 443.128 150.155 443.013 149.819 442.912C149.483 442.805 149.069 442.752 148.579 442.752C147.987 442.752 147.445 442.856 146.955 443.064C146.464 443.267 146.04 443.563 145.683 443.952C145.331 444.341 145.056 444.816 144.859 445.376C144.661 445.936 144.563 446.568 144.563 447.272C144.563 447.987 144.664 448.624 144.867 449.184C145.075 449.744 145.355 450.219 145.707 450.608C146.064 450.992 146.483 451.285 146.963 451.488C147.448 451.691 147.971 451.792 148.531 451.792C148.872 451.792 149.179 451.773 149.451 451.736C149.728 451.693 149.981 451.629 150.211 451.544C150.445 451.459 150.661 451.352 150.859 451.224C151.061 451.091 151.261 450.933 151.459 450.752C151.549 450.672 151.64 450.632 151.731 450.632ZM169.056 447.272C169.056 448.131 168.92 448.92 168.648 449.64C168.376 450.355 167.992 450.971 167.496 451.488C167 452.005 166.403 452.408 165.704 452.696C165.011 452.979 164.243 453.12 163.4 453.12C162.557 453.12 161.789 452.979 161.096 452.696C160.403 452.408 159.808 452.005 159.312 451.488C158.816 450.971 158.432 450.355 158.16 449.64C157.888 448.92 157.752 448.131 157.752 447.272C157.752 446.413 157.888 445.627 158.16 444.912C158.432 444.192 158.816 443.573 159.312 443.056C159.808 442.533 160.403 442.128 161.096 441.84C161.789 441.552 162.557 441.408 163.4 441.408C164.243 441.408 165.011 441.552 165.704 441.84C166.403 442.128 167 442.533 167.496 443.056C167.992 443.573 168.376 444.192 168.648 444.912C168.92 445.627 169.056 446.413 169.056 447.272ZM167.464 447.272C167.464 446.568 167.368 445.936 167.176 445.376C166.984 444.816 166.712 444.344 166.36 443.96C166.008 443.571 165.581 443.272 165.08 443.064C164.579 442.856 164.019 442.752 163.4 442.752C162.787 442.752 162.229 442.856 161.728 443.064C161.227 443.272 160.797 443.571 160.44 443.96C160.088 444.344 159.816 444.816 159.624 445.376C159.432 445.936 159.336 446.568 159.336 447.272C159.336 447.976 159.432 448.608 159.624 449.168C159.816 449.723 160.088 450.195 160.44 450.584C160.797 450.968 161.227 451.264 161.728 451.472C162.229 451.675 162.787 451.776 163.4 451.776C164.019 451.776 164.579 451.675 165.08 451.472C165.581 451.264 166.008 450.968 166.36 450.584C166.712 450.195 166.984 449.723 167.176 449.168C167.368 448.608 167.464 447.976 167.464 447.272ZM184.658 441.536V453H183.882C183.76 453 183.656 452.979 183.57 452.936C183.49 452.893 183.41 452.821 183.33 452.72L176.698 444.08C176.709 444.213 176.717 444.344 176.722 444.472C176.728 444.6 176.73 444.72 176.73 444.832V453H175.37V441.536H176.17C176.24 441.536 176.298 441.541 176.346 441.552C176.394 441.557 176.437 441.571 176.474 441.592C176.512 441.608 176.549 441.635 176.586 441.672C176.624 441.704 176.664 441.747 176.706 441.8L183.338 450.432C183.328 450.293 183.317 450.16 183.306 450.032C183.301 449.899 183.298 449.773 183.298 449.656V441.536H184.658ZM198.95 442.84H195.238V453H193.694V442.84H189.974V441.536H198.95V442.84ZM205.813 453H204.261V441.536H205.813V453ZM217.263 451.768C217.738 451.768 218.162 451.688 218.535 451.528C218.908 451.368 219.223 451.144 219.479 450.856C219.74 450.568 219.938 450.224 220.071 449.824C220.21 449.424 220.279 448.984 220.279 448.504V441.536H221.823V448.504C221.823 449.165 221.716 449.779 221.503 450.344C221.295 450.909 220.994 451.4 220.599 451.816C220.21 452.227 219.732 452.549 219.167 452.784C218.602 453.019 217.967 453.136 217.263 453.136C216.559 453.136 215.924 453.019 215.359 452.784C214.794 452.549 214.314 452.227 213.919 451.816C213.524 451.4 213.22 450.909 213.007 450.344C212.799 449.779 212.695 449.165 212.695 448.504V441.536H214.239V448.496C214.239 448.976 214.306 449.416 214.439 449.816C214.578 450.216 214.775 450.56 215.031 450.848C215.292 451.136 215.61 451.363 215.983 451.528C216.362 451.688 216.788 451.768 217.263 451.768ZM237.986 441.536V453H237.21C237.088 453 236.984 452.979 236.898 452.936C236.818 452.893 236.738 452.821 236.658 452.72L230.026 444.08C230.037 444.213 230.045 444.344 230.05 444.472C230.056 444.6 230.058 444.72 230.058 444.832V453H228.698V441.536H229.498C229.568 441.536 229.626 441.541 229.674 441.552C229.722 441.557 229.765 441.571 229.802 441.592C229.84 441.608 229.877 441.635 229.914 441.672C229.952 441.704 229.992 441.747 230.034 441.8L236.666 450.432C236.656 450.293 236.645 450.16 236.634 450.032C236.629 449.899 236.626 449.773 236.626 449.656V441.536H237.986ZM252.083 451.736L252.075 453H245.011V441.536H252.075V442.8H246.563V446.608H251.027V447.824H246.563V451.736H252.083Z" fill="#EBFAFF"/>
<defs>
<filter id="filter0_dd_1357_5829" x="0" y="0" width="344" height="560" filterUnits="userSpaceOnUse" color-interpolation-filters="sRGB">
<feFlood flood-opacity="0" result="BackgroundImageFix"/>
<feColorMatrix in="SourceAlpha" type="matrix" values="0 0 0 0 0 0 0 0 0 0 0 0 0 0 0 0 0 0 127 0" result="hardAlpha"/>
<feOffset dy="4"/>
<feGaussianBlur stdDeviation="6"/>
<feComposite in2="hardAlpha" operator="out"/>
<feColorMatrix type="matrix" values="0 0 0 0 0.133333 0 0 0 0 0.556863 0 0 0 0 0.898039 0 0 0 0.4 0"/>
<feBlend mode="normal" in2="BackgroundImageFix" result="effect1_dropShadow_1357_5829"/>
<feColorMatrix in="SourceAlpha" type="matrix" values="0 0 0 0 0 0 0 0 0 0 0 0 0 0 0 0 0 0 127 0" result="hardAlpha"/>
<feOffset dy="-4"/>
<feGaussianBlur stdDeviation="6"/>
<feComposite in2="hardAlpha" operator="out"/>
<feColorMatrix type="matrix" values="0 0 0 0 0.133333 0 0 0 0 0.556863 0 0 0 0 0.898039 0 0 0 0.4 0"/>
<feBlend mode="normal" in2="effect1_dropShadow_1357_5829" result="effect2_dropShadow_1357_5829"/>
<feBlend mode="normal" in="SourceGraphic" in2="effect2_dropShadow_1357_5829" result="shape"/>
</filter>
<filter id="filter1_d_1357_5829" x="35.8633" y="53.4082" width="269.336" height="119.976" filterUnits="userSpaceOnUse" color-interpolation-filters="sRGB">
<feFlood flood-opacity="0" result="BackgroundImageFix"/>
<feColorMatrix in="SourceAlpha" type="matrix" values="0 0 0 0 0 0 0 0 0 0 0 0 0 0 0 0 0 0 127 0" result="hardAlpha"/>
<feOffset dy="8"/>
<feGaussianBlur stdDeviation="21"/>
<feComposite in2="hardAlpha" operator="out"/>
<feColorMatrix type="matrix" values="0 0 0 0 0.439216 0 0 0 0 0.564706 0 0 0 0 0.690196 0 0 0 0.1 0"/>
<feBlend mode="normal" in2="BackgroundImageFix" result="effect1_dropShadow_1357_5829"/>
<feBlend mode="normal" in="SourceGraphic" in2="effect1_dropShadow_1357_5829" result="shape"/>
</filter>
<linearGradient id="paint0_linear_1357_5829" x1="185" y1="427" x2="185" y2="467" gradientUnits="userSpaceOnUse">
<stop stop-color="#0CC2FF"/>
<stop offset="1" stop-color="#275EE7"/>
</linearGradient>
</defs>
</svg>
