<svg width="448" height="908" viewBox="0 0 448 908" fill="none" xmlns="http://www.w3.org/2000/svg">
<g filter="url(#filter0_dd_1357_5780)">
<path fill-rule="evenodd" clip-rule="evenodd" d="M214.503 67.3236C214 69.6348 214 72.4232 214 78V134H80C53.6013 134 40.402 134 32.201 142.201C24 150.402 24 163.601 24 190V359C40.5685 359 54 372.431 54 389C54 405.569 40.5685 419 24 419V718C24 744.399 24 757.598 32.201 765.799C39.0521 772.65 49.3913 773.778 68 773.963V800C68 804.646 68 806.969 68.3496 808.906C69.9804 817.945 77.0549 825.02 86.0938 826.65C88.0313 827 90.3542 827 95 827C99.6458 827 101.969 827 103.906 826.65C112.945 825.02 120.02 817.945 121.65 808.906C122 806.969 122 804.646 122 800V775L122 774.478L122 774C122.002 769.081 122.031 766.492 122.503 764.324C124.334 755.907 130.907 749.334 139.324 747.503C141.635 747 144.423 747 150 747C155.577 747 158.365 747 160.676 747.503C169.093 749.334 175.666 755.907 177.497 764.324C177.969 766.492 177.998 769.081 178 774C178 774.323 178 774.656 178 775V805V830C178 835.577 178 838.365 178.503 840.676C180.334 849.093 186.907 855.666 195.324 857.497C197.635 858 200.423 858 206 858C211.577 858 214.365 858 216.676 857.497C225.093 855.666 231.666 849.093 233.497 840.676C234 838.365 234 835.577 234 830V774H368C394.399 774 407.598 774 415.799 765.799C424 757.598 424 744.399 424 718V419C407.431 419 394 405.569 394 389C394 372.431 407.431 359 424 359V190C424 163.601 424 150.402 415.799 142.201C408.948 135.35 398.609 134.222 380 134.037V108C380 103.354 380 101.031 379.65 99.0938C378.02 90.0549 370.945 82.9804 361.906 81.3496C359.969 81 357.646 81 353 81C348.354 81 346.031 81 344.094 81.3496C335.055 82.9804 327.98 90.0549 326.35 99.0938C326 101.031 326 103.354 326 108V125V134V155C326 160.577 326 163.365 325.497 165.676C323.666 174.093 317.093 180.666 308.676 182.497C306.365 183 303.577 183 298 183C292.423 183 289.635 183 287.324 182.497C278.907 180.666 272.334 174.093 270.503 165.676C270 163.365 270 160.577 270 155V134V125V78C270 72.4232 270 69.6348 269.497 67.3236C267.666 58.9074 261.093 52.3336 252.676 50.5028C250.365 50 247.577 50 242 50C236.423 50 233.635 50 231.324 50.5028C222.907 52.3336 216.334 58.9074 214.503 67.3236Z" fill="url(#paint0_linear_1357_5780)"/>
</g>
<circle cx="241.5" cy="17.5" r="17.5" fill="#10B3FB"/>
<circle cx="206.5" cy="890.5" r="17.5" fill="#275FE7"/>
<path d="M54 389L393 388.5" stroke="#030A1B" stroke-width="2" stroke-dasharray="6 6"/>
<g filter="url(#filter1_d_1357_5780)">
<path d="M139.344 230.608C139.152 230.944 138.944 231.192 138.72 231.352C138.512 231.496 138.248 231.568 137.928 231.568C137.592 231.568 137.224 231.448 136.824 231.208C136.44 230.952 135.976 230.672 135.432 230.368C134.888 230.064 134.248 229.792 133.512 229.552C132.792 229.296 131.936 229.168 130.944 229.168C130.048 229.168 129.264 229.28 128.592 229.504C127.92 229.712 127.352 230.008 126.888 230.392C126.44 230.776 126.104 231.24 125.88 231.784C125.656 232.312 125.544 232.896 125.544 233.536C125.544 234.352 125.768 235.032 126.216 235.576C126.68 236.12 127.288 236.584 128.04 236.968C128.792 237.352 129.648 237.696 130.608 238C131.568 238.304 132.552 238.632 133.56 238.984C134.568 239.32 135.552 239.72 136.512 240.184C137.472 240.632 138.328 241.208 139.08 241.912C139.832 242.6 140.432 243.448 140.88 244.456C141.344 245.464 141.576 246.688 141.576 248.128C141.576 249.696 141.304 251.168 140.76 252.544C140.232 253.904 139.448 255.096 138.408 256.12C137.384 257.128 136.128 257.928 134.64 258.52C133.152 259.096 131.448 259.384 129.528 259.384C128.424 259.384 127.336 259.272 126.264 259.048C125.192 258.84 124.16 258.536 123.168 258.136C122.192 257.736 121.272 257.256 120.408 256.696C119.544 256.136 118.776 255.512 118.104 254.824L120 251.728C120.16 251.504 120.368 251.32 120.624 251.176C120.88 251.016 121.152 250.936 121.44 250.936C121.84 250.936 122.272 251.104 122.736 251.44C123.2 251.76 123.752 252.12 124.392 252.52C125.032 252.92 125.776 253.288 126.624 253.624C127.488 253.944 128.52 254.104 129.72 254.104C131.56 254.104 132.984 253.672 133.992 252.808C135 251.928 135.504 250.672 135.504 249.04C135.504 248.128 135.272 247.384 134.808 246.808C134.36 246.232 133.76 245.752 133.008 245.368C132.256 244.968 131.4 244.632 130.44 244.36C129.48 244.088 128.504 243.792 127.512 243.472C126.52 243.152 125.544 242.768 124.584 242.32C123.624 241.872 122.768 241.288 122.016 240.568C121.264 239.848 120.656 238.952 120.192 237.88C119.744 236.792 119.52 235.456 119.52 233.872C119.52 232.608 119.768 231.376 120.264 230.176C120.776 228.976 121.512 227.912 122.472 226.984C123.432 226.056 124.616 225.312 126.024 224.752C127.432 224.192 129.048 223.912 130.872 223.912C132.92 223.912 134.808 224.232 136.536 224.872C138.264 225.512 139.736 226.408 140.952 227.56L139.344 230.608ZM167.066 234.376V259H163.442C162.658 259 162.162 258.64 161.954 257.92L161.546 255.952C160.538 256.976 159.426 257.808 158.21 258.448C156.994 259.072 155.562 259.384 153.914 259.384C152.57 259.384 151.378 259.16 150.338 258.712C149.314 258.248 148.45 257.6 147.746 256.768C147.042 255.936 146.506 254.952 146.138 253.816C145.786 252.664 145.61 251.4 145.61 250.024V234.376H151.538V250.024C151.538 251.528 151.882 252.696 152.57 253.528C153.274 254.344 154.322 254.752 155.714 254.752C156.738 254.752 157.698 254.528 158.594 254.08C159.49 253.616 160.338 252.984 161.138 252.184V234.376H167.066ZM181.944 246.088C182.68 246.088 183.32 245.992 183.864 245.8C184.408 245.592 184.856 245.312 185.208 244.96C185.576 244.608 185.848 244.184 186.024 243.688C186.216 243.192 186.312 242.648 186.312 242.056C186.312 240.84 185.944 239.88 185.208 239.176C184.488 238.456 183.4 238.096 181.944 238.096C180.488 238.096 179.392 238.456 178.656 239.176C177.936 239.88 177.576 240.84 177.576 242.056C177.576 242.632 177.664 243.168 177.84 243.664C178.032 244.16 178.304 244.592 178.656 244.96C179.024 245.312 179.48 245.592 180.024 245.8C180.584 245.992 181.224 246.088 181.944 246.088ZM188.64 260.104C188.64 259.624 188.496 259.232 188.208 258.928C187.92 258.624 187.528 258.392 187.032 258.232C186.536 258.056 185.952 257.928 185.28 257.848C184.624 257.768 183.92 257.712 183.168 257.68C182.432 257.632 181.664 257.592 180.864 257.56C180.08 257.528 179.312 257.464 178.56 257.368C177.904 257.736 177.368 258.168 176.952 258.664C176.552 259.16 176.352 259.736 176.352 260.392C176.352 260.824 176.456 261.224 176.664 261.592C176.888 261.976 177.232 262.304 177.696 262.576C178.176 262.848 178.792 263.056 179.544 263.2C180.296 263.36 181.216 263.44 182.304 263.44C183.408 263.44 184.36 263.352 185.16 263.176C185.96 263.016 186.616 262.784 187.128 262.48C187.656 262.192 188.04 261.84 188.28 261.424C188.52 261.024 188.64 260.584 188.64 260.104ZM194.544 235.216V237.424C194.544 238.128 194.12 238.56 193.272 238.72L191.064 239.128C191.4 239.976 191.568 240.904 191.568 241.912C191.568 243.128 191.32 244.232 190.824 245.224C190.344 246.2 189.672 247.032 188.808 247.72C187.944 248.408 186.92 248.944 185.736 249.328C184.568 249.696 183.304 249.88 181.944 249.88C181.464 249.88 181 249.856 180.552 249.808C180.104 249.76 179.664 249.696 179.232 249.616C178.464 250.08 178.08 250.6 178.08 251.176C178.08 251.672 178.304 252.04 178.752 252.28C179.216 252.504 179.824 252.664 180.576 252.76C181.328 252.856 182.184 252.92 183.144 252.952C184.104 252.968 185.088 253.016 186.096 253.096C187.104 253.176 188.088 253.32 189.048 253.528C190.008 253.72 190.864 254.032 191.616 254.464C192.368 254.896 192.968 255.488 193.416 256.24C193.88 256.976 194.112 257.928 194.112 259.096C194.112 260.184 193.84 261.24 193.296 262.264C192.768 263.288 191.992 264.2 190.968 265C189.96 265.8 188.712 266.44 187.224 266.92C185.752 267.416 184.072 267.664 182.184 267.664C180.328 267.664 178.712 267.48 177.336 267.112C175.96 266.76 174.816 266.28 173.904 265.672C172.992 265.08 172.312 264.392 171.864 263.608C171.416 262.824 171.192 262.008 171.192 261.16C171.192 260.008 171.536 259.048 172.224 258.28C172.928 257.496 173.888 256.872 175.104 256.408C174.448 256.072 173.928 255.624 173.544 255.064C173.16 254.504 172.968 253.768 172.968 252.856C172.968 252.488 173.032 252.112 173.16 251.728C173.304 251.328 173.504 250.936 173.76 250.552C174.032 250.168 174.368 249.808 174.768 249.472C175.168 249.12 175.64 248.808 176.184 248.536C174.936 247.864 173.952 246.968 173.232 245.848C172.528 244.728 172.176 243.416 172.176 241.912C172.176 240.696 172.416 239.6 172.896 238.624C173.392 237.632 174.072 236.792 174.936 236.104C175.816 235.4 176.848 234.864 178.032 234.496C179.232 234.128 180.536 233.944 181.944 233.944C183 233.944 183.992 234.056 184.92 234.28C185.848 234.488 186.696 234.8 187.464 235.216H194.544ZM207.256 246.088C207.992 246.088 208.632 245.992 209.176 245.8C209.72 245.592 210.168 245.312 210.52 244.96C210.888 244.608 211.16 244.184 211.336 243.688C211.528 243.192 211.624 242.648 211.624 242.056C211.624 240.84 211.256 239.88 210.52 239.176C209.8 238.456 208.712 238.096 207.256 238.096C205.8 238.096 204.704 238.456 203.968 239.176C203.248 239.88 202.888 240.84 202.888 242.056C202.888 242.632 202.976 243.168 203.152 243.664C203.344 244.16 203.616 244.592 203.968 244.96C204.336 245.312 204.792 245.592 205.336 245.8C205.896 245.992 206.536 246.088 207.256 246.088ZM213.952 260.104C213.952 259.624 213.808 259.232 213.52 258.928C213.232 258.624 212.84 258.392 212.344 258.232C211.848 258.056 211.264 257.928 210.592 257.848C209.936 257.768 209.232 257.712 208.48 257.68C207.744 257.632 206.976 257.592 206.176 257.56C205.392 257.528 204.624 257.464 203.872 257.368C203.216 257.736 202.68 258.168 202.264 258.664C201.864 259.16 201.664 259.736 201.664 260.392C201.664 260.824 201.768 261.224 201.976 261.592C202.2 261.976 202.544 262.304 203.008 262.576C203.488 262.848 204.104 263.056 204.856 263.2C205.608 263.36 206.528 263.44 207.616 263.44C208.72 263.44 209.672 263.352 210.472 263.176C211.272 263.016 211.928 262.784 212.44 262.48C212.968 262.192 213.352 261.84 213.592 261.424C213.832 261.024 213.952 260.584 213.952 260.104ZM219.856 235.216V237.424C219.856 238.128 219.432 238.56 218.584 238.72L216.376 239.128C216.712 239.976 216.88 240.904 216.88 241.912C216.88 243.128 216.632 244.232 216.136 245.224C215.656 246.2 214.984 247.032 214.12 247.72C213.256 248.408 212.232 248.944 211.048 249.328C209.88 249.696 208.616 249.88 207.256 249.88C206.776 249.88 206.312 249.856 205.864 249.808C205.416 249.76 204.976 249.696 204.544 249.616C203.776 250.08 203.392 250.6 203.392 251.176C203.392 251.672 203.616 252.04 204.064 252.28C204.528 252.504 205.136 252.664 205.888 252.76C206.64 252.856 207.496 252.92 208.456 252.952C209.416 252.968 210.4 253.016 211.408 253.096C212.416 253.176 213.4 253.32 214.36 253.528C215.32 253.72 216.176 254.032 216.928 254.464C217.68 254.896 218.28 255.488 218.728 256.24C219.192 256.976 219.424 257.928 219.424 259.096C219.424 260.184 219.152 261.24 218.608 262.264C218.08 263.288 217.304 264.2 216.28 265C215.272 265.8 214.024 266.44 212.536 266.92C211.064 267.416 209.384 267.664 207.496 267.664C205.64 267.664 204.024 267.48 202.648 267.112C201.272 266.76 200.128 266.28 199.216 265.672C198.304 265.08 197.624 264.392 197.176 263.608C196.728 262.824 196.504 262.008 196.504 261.16C196.504 260.008 196.848 259.048 197.536 258.28C198.24 257.496 199.2 256.872 200.416 256.408C199.76 256.072 199.24 255.624 198.856 255.064C198.472 254.504 198.28 253.768 198.28 252.856C198.28 252.488 198.344 252.112 198.472 251.728C198.616 251.328 198.816 250.936 199.072 250.552C199.344 250.168 199.68 249.808 200.08 249.472C200.48 249.12 200.952 248.808 201.496 248.536C200.248 247.864 199.264 246.968 198.544 245.848C197.84 244.728 197.488 243.416 197.488 241.912C197.488 240.696 197.728 239.6 198.208 238.624C198.704 237.632 199.384 236.792 200.248 236.104C201.128 235.4 202.16 234.864 203.344 234.496C204.544 234.128 205.848 233.944 207.256 233.944C208.312 233.944 209.304 234.056 210.232 234.28C211.16 234.488 212.008 234.8 212.776 235.216H219.856ZM239.058 243.856C239.058 243.088 238.946 242.368 238.722 241.696C238.514 241.008 238.194 240.408 237.762 239.896C237.33 239.384 236.778 238.984 236.106 238.696C235.45 238.392 234.682 238.24 233.802 238.24C232.09 238.24 230.738 238.728 229.746 239.704C228.77 240.68 228.146 242.064 227.874 243.856H239.058ZM227.754 247.432C227.85 248.696 228.074 249.792 228.426 250.72C228.778 251.632 229.242 252.392 229.818 253C230.394 253.592 231.074 254.04 231.858 254.344C232.658 254.632 233.538 254.776 234.498 254.776C235.458 254.776 236.282 254.664 236.97 254.44C237.674 254.216 238.282 253.968 238.794 253.696C239.322 253.424 239.778 253.176 240.162 252.952C240.562 252.728 240.946 252.616 241.314 252.616C241.81 252.616 242.178 252.8 242.418 253.168L244.122 255.328C243.466 256.096 242.73 256.744 241.914 257.272C241.098 257.784 240.242 258.2 239.346 258.52C238.466 258.824 237.562 259.04 236.634 259.168C235.722 259.296 234.834 259.36 233.97 259.36C232.258 259.36 230.666 259.08 229.194 258.52C227.722 257.944 226.442 257.104 225.354 256C224.266 254.88 223.41 253.504 222.786 251.872C222.162 250.224 221.85 248.32 221.85 246.16C221.85 244.48 222.122 242.904 222.666 241.432C223.21 239.944 223.986 238.656 224.994 237.568C226.018 236.464 227.258 235.592 228.714 234.952C230.186 234.312 231.842 233.992 233.682 233.992C235.234 233.992 236.666 234.24 237.978 234.736C239.29 235.232 240.418 235.96 241.362 236.92C242.306 237.864 243.042 239.032 243.57 240.424C244.114 241.8 244.386 243.376 244.386 245.152C244.386 246.048 244.29 246.656 244.098 246.976C243.906 247.28 243.538 247.432 242.994 247.432H227.754ZM263.858 239.176C263.698 239.432 263.53 239.616 263.354 239.728C263.178 239.824 262.954 239.872 262.682 239.872C262.394 239.872 262.082 239.792 261.746 239.632C261.426 239.472 261.05 239.296 260.618 239.104C260.186 238.896 259.69 238.712 259.13 238.552C258.586 238.392 257.938 238.312 257.186 238.312C256.018 238.312 255.098 238.56 254.426 239.056C253.77 239.552 253.442 240.2 253.442 241C253.442 241.528 253.61 241.976 253.946 242.344C254.298 242.696 254.754 243.008 255.314 243.28C255.89 243.552 256.538 243.8 257.258 244.024C257.978 244.232 258.706 244.464 259.442 244.72C260.194 244.976 260.93 245.272 261.65 245.608C262.37 245.928 263.01 246.344 263.57 246.856C264.146 247.352 264.602 247.952 264.938 248.656C265.29 249.36 265.466 250.208 265.466 251.2C265.466 252.384 265.25 253.48 264.818 254.488C264.402 255.48 263.778 256.344 262.946 257.08C262.114 257.8 261.082 258.368 259.85 258.784C258.634 259.184 257.226 259.384 255.626 259.384C254.778 259.384 253.946 259.304 253.13 259.144C252.33 259 251.554 258.792 250.802 258.52C250.066 258.248 249.378 257.928 248.738 257.56C248.114 257.192 247.562 256.792 247.082 256.36L248.45 254.104C248.626 253.832 248.834 253.624 249.074 253.48C249.314 253.336 249.618 253.264 249.986 253.264C250.354 253.264 250.698 253.368 251.018 253.576C251.354 253.784 251.738 254.008 252.17 254.248C252.602 254.488 253.106 254.712 253.682 254.92C254.274 255.128 255.018 255.232 255.914 255.232C256.618 255.232 257.218 255.152 257.714 254.992C258.226 254.816 258.642 254.592 258.962 254.32C259.298 254.048 259.538 253.736 259.682 253.384C259.842 253.016 259.922 252.64 259.922 252.256C259.922 251.68 259.746 251.208 259.394 250.84C259.058 250.472 258.602 250.152 258.026 249.88C257.466 249.608 256.818 249.368 256.082 249.16C255.362 248.936 254.618 248.696 253.85 248.44C253.098 248.184 252.354 247.888 251.618 247.552C250.898 247.2 250.25 246.76 249.674 246.232C249.114 245.704 248.658 245.056 248.306 244.288C247.97 243.52 247.802 242.592 247.802 241.504C247.802 240.496 248.002 239.536 248.402 238.624C248.802 237.712 249.386 236.92 250.154 236.248C250.938 235.56 251.906 235.016 253.058 234.616C254.226 234.2 255.57 233.992 257.09 233.992C258.786 233.992 260.33 234.272 261.722 234.832C263.114 235.392 264.274 236.128 265.202 237.04L263.858 239.176ZM278.136 259.384C275.992 259.384 274.344 258.784 273.192 257.584C272.056 256.368 271.488 254.696 271.488 252.568V238.816H268.968C268.648 238.816 268.376 238.712 268.152 238.504C267.928 238.296 267.816 237.984 267.816 237.568V235.216L271.776 234.568L273.024 227.848C273.104 227.528 273.256 227.28 273.48 227.104C273.704 226.928 273.992 226.84 274.344 226.84H277.416V234.592H283.992V238.816H277.416V252.16C277.416 252.928 277.6 253.528 277.968 253.96C278.352 254.392 278.872 254.608 279.528 254.608C279.896 254.608 280.2 254.568 280.44 254.488C280.696 254.392 280.912 254.296 281.088 254.2C281.28 254.104 281.448 254.016 281.592 253.936C281.736 253.84 281.88 253.792 282.024 253.792C282.2 253.792 282.344 253.84 282.456 253.936C282.568 254.016 282.688 254.144 282.816 254.32L284.592 257.2C283.728 257.92 282.736 258.464 281.616 258.832C280.496 259.2 279.336 259.384 278.136 259.384ZM303.464 243.856C303.464 243.088 303.352 242.368 303.128 241.696C302.92 241.008 302.6 240.408 302.168 239.896C301.736 239.384 301.184 238.984 300.512 238.696C299.856 238.392 299.088 238.24 298.208 238.24C296.496 238.24 295.144 238.728 294.152 239.704C293.176 240.68 292.552 242.064 292.28 243.856H303.464ZM292.16 247.432C292.256 248.696 292.48 249.792 292.832 250.72C293.184 251.632 293.648 252.392 294.224 253C294.8 253.592 295.48 254.04 296.264 254.344C297.064 254.632 297.944 254.776 298.904 254.776C299.864 254.776 300.688 254.664 301.376 254.44C302.08 254.216 302.688 253.968 303.2 253.696C303.728 253.424 304.184 253.176 304.568 252.952C304.968 252.728 305.352 252.616 305.72 252.616C306.216 252.616 306.584 252.8 306.824 253.168L308.528 255.328C307.872 256.096 307.136 256.744 306.32 257.272C305.504 257.784 304.648 258.2 303.752 258.52C302.872 258.824 301.968 259.04 301.04 259.168C300.128 259.296 299.24 259.36 298.376 259.36C296.664 259.36 295.072 259.08 293.6 258.52C292.128 257.944 290.848 257.104 289.76 256C288.672 254.88 287.816 253.504 287.192 251.872C286.568 250.224 286.256 248.32 286.256 246.16C286.256 244.48 286.528 242.904 287.072 241.432C287.616 239.944 288.392 238.656 289.4 237.568C290.424 236.464 291.664 235.592 293.12 234.952C294.592 234.312 296.248 233.992 298.088 233.992C299.64 233.992 301.072 234.24 302.384 234.736C303.696 235.232 304.824 235.96 305.768 236.92C306.712 237.864 307.448 239.032 307.976 240.424C308.52 241.8 308.792 243.376 308.792 245.152C308.792 246.048 308.696 246.656 308.504 246.976C308.312 247.28 307.944 247.432 307.4 247.432H292.16ZM328.697 240.664C328.025 239.848 327.289 239.272 326.489 238.936C325.705 238.6 324.857 238.432 323.945 238.432C323.049 238.432 322.241 238.6 321.521 238.936C320.801 239.272 320.185 239.784 319.673 240.472C319.161 241.144 318.769 242.008 318.497 243.064C318.225 244.104 318.089 245.336 318.089 246.76C318.089 248.2 318.201 249.424 318.425 250.432C318.665 251.424 319.001 252.24 319.433 252.88C319.865 253.504 320.393 253.96 321.017 254.248C321.641 254.52 322.337 254.656 323.105 254.656C324.337 254.656 325.385 254.4 326.249 253.888C327.113 253.376 327.929 252.648 328.697 251.704V240.664ZM334.625 223.336V259H331.001C330.217 259 329.721 258.64 329.513 257.92L329.009 255.544C328.017 256.68 326.873 257.6 325.577 258.304C324.297 259.008 322.801 259.36 321.089 259.36C319.745 259.36 318.513 259.08 317.393 258.52C316.273 257.96 315.305 257.152 314.489 256.096C313.689 255.024 313.065 253.704 312.617 252.136C312.185 250.568 311.969 248.776 311.969 246.76C311.969 244.936 312.217 243.24 312.713 241.672C313.209 240.104 313.921 238.744 314.849 237.592C315.777 236.44 316.889 235.544 318.185 234.904C319.481 234.248 320.937 233.92 322.553 233.92C323.929 233.92 325.105 234.136 326.081 234.568C327.057 235 327.929 235.584 328.697 236.32V223.336H334.625Z" fill="#EBFAFF"/>
</g>
<path d="M156.144 474.368C157.84 474.144 159.12 473.576 159.984 472.664C160.864 471.736 161.304 470.528 161.304 469.04C161.304 468.432 161.192 467.904 160.968 467.456C160.76 466.992 160.456 466.584 160.056 466.232C159.672 465.88 159.216 465.576 158.688 465.32C158.16 465.064 157.584 464.824 156.96 464.6L156.144 474.368ZM154.608 449C153.712 449.112 152.952 449.304 152.328 449.576C151.704 449.832 151.192 450.152 150.792 450.536C150.392 450.92 150.096 451.352 149.904 451.832C149.728 452.312 149.64 452.816 149.64 453.344C149.64 453.952 149.744 454.488 149.952 454.952C150.176 455.4 150.472 455.808 150.84 456.176C151.224 456.528 151.672 456.848 152.184 457.136C152.696 457.408 153.256 457.664 153.864 457.904L154.608 449ZM157.416 459.056C158.568 459.408 159.712 459.8 160.848 460.232C161.984 460.648 163 461.192 163.896 461.864C164.808 462.536 165.544 463.376 166.104 464.384C166.664 465.376 166.944 466.624 166.944 468.128C166.944 469.616 166.696 471.016 166.2 472.328C165.704 473.624 164.976 474.776 164.016 475.784C163.056 476.776 161.88 477.592 160.488 478.232C159.096 478.856 157.504 479.224 155.712 479.336L155.424 482.864C155.408 483.232 155.248 483.568 154.944 483.872C154.656 484.192 154.288 484.352 153.84 484.352H151.656L152.088 479.216C150.216 478.96 148.456 478.448 146.808 477.68C145.16 476.912 143.76 475.96 142.608 474.824L144.432 472.112C144.592 471.872 144.8 471.68 145.056 471.536C145.328 471.376 145.616 471.296 145.92 471.296C146.272 471.296 146.648 471.424 147.048 471.68C147.448 471.92 147.904 472.208 148.416 472.544C148.928 472.864 149.512 473.192 150.168 473.528C150.824 473.864 151.6 474.112 152.496 474.272L153.384 463.544C152.248 463.224 151.12 462.848 150 462.416C148.896 461.984 147.896 461.416 147 460.712C146.12 459.992 145.408 459.088 144.864 458C144.32 456.912 144.048 455.552 144.048 453.92C144.048 452.704 144.288 451.52 144.768 450.368C145.248 449.2 145.952 448.16 146.88 447.248C147.824 446.336 148.976 445.584 150.336 444.992C151.696 444.4 153.256 444.064 155.016 443.984L155.28 440.96C155.312 440.576 155.472 440.232 155.76 439.928C156.048 439.624 156.424 439.472 156.888 439.472H159.072L158.688 444.176C160.384 444.448 161.848 444.936 163.08 445.64C164.312 446.328 165.376 447.104 166.272 447.968L164.832 450.152C164.624 450.472 164.408 450.712 164.184 450.872C163.96 451.032 163.688 451.112 163.368 451.112C163.128 451.112 162.84 451.04 162.504 450.896C162.168 450.736 161.792 450.552 161.376 450.344C160.96 450.12 160.488 449.896 159.96 449.672C159.448 449.448 158.88 449.264 158.256 449.12L157.416 459.056ZM192.388 473.48C193.028 473.48 193.532 473.664 193.9 474.032C194.284 474.384 194.476 474.856 194.476 475.448V479H170.668V477.032C170.668 476.632 170.748 476.216 170.908 475.784C171.084 475.336 171.356 474.936 171.724 474.584L182.26 464.024C183.14 463.128 183.924 462.272 184.612 461.456C185.316 460.64 185.9 459.832 186.364 459.032C186.828 458.232 187.18 457.424 187.42 456.608C187.676 455.776 187.804 454.904 187.804 453.992C187.804 453.16 187.684 452.432 187.444 451.808C187.204 451.168 186.86 450.632 186.412 450.2C185.98 449.768 185.452 449.448 184.828 449.24C184.22 449.016 183.532 448.904 182.764 448.904C182.06 448.904 181.404 449.008 180.796 449.216C180.204 449.408 179.676 449.688 179.212 450.056C178.748 450.408 178.356 450.824 178.036 451.304C177.716 451.784 177.476 452.312 177.316 452.888C177.044 453.624 176.692 454.112 176.26 454.352C175.828 454.592 175.204 454.648 174.388 454.52L171.268 453.968C171.508 452.304 171.972 450.848 172.66 449.6C173.348 448.336 174.204 447.288 175.228 446.456C176.268 445.608 177.452 444.976 178.78 444.56C180.124 444.128 181.564 443.912 183.1 443.912C184.7 443.912 186.164 444.152 187.492 444.632C188.82 445.096 189.956 445.76 190.9 446.624C191.844 447.488 192.58 448.528 193.108 449.744C193.636 450.96 193.9 452.312 193.9 453.8C193.9 455.08 193.708 456.264 193.324 457.352C192.956 458.44 192.452 459.48 191.812 460.472C191.188 461.464 190.452 462.424 189.604 463.352C188.756 464.28 187.868 465.224 186.94 466.184L179.116 474.176C179.868 473.952 180.612 473.784 181.348 473.672C182.1 473.544 182.812 473.48 183.484 473.48H192.388ZM213.776 465.92V454.568C213.776 453.496 213.848 452.312 213.992 451.016L203.216 465.92H213.776ZM223.304 465.92V469.352C223.304 469.672 223.2 469.952 222.992 470.192C222.784 470.416 222.488 470.528 222.104 470.528H218.936V479H213.776V470.528H199.136C198.736 470.528 198.384 470.408 198.08 470.168C197.776 469.912 197.584 469.6 197.504 469.232L196.88 466.232L213.32 444.272H218.936V465.92H223.304ZM226.595 475.736C226.595 475.24 226.683 474.768 226.859 474.32C227.051 473.872 227.307 473.488 227.627 473.168C227.947 472.848 228.331 472.592 228.779 472.4C229.227 472.208 229.707 472.112 230.219 472.112C230.731 472.112 231.203 472.208 231.635 472.4C232.083 472.592 232.467 472.848 232.787 473.168C233.123 473.488 233.387 473.872 233.579 474.32C233.771 474.768 233.867 475.24 233.867 475.736C233.867 476.248 233.771 476.728 233.579 477.176C233.387 477.608 233.123 477.984 232.787 478.304C232.467 478.624 232.083 478.872 231.635 479.048C231.203 479.24 230.731 479.336 230.219 479.336C229.707 479.336 229.227 479.24 228.779 479.048C228.331 478.872 227.947 478.624 227.627 478.304C227.307 477.984 227.051 477.608 226.859 477.176C226.683 476.728 226.595 476.248 226.595 475.736ZM243.842 454.712C243.842 456.648 244.338 458.128 245.33 459.152C246.338 460.16 247.762 460.664 249.602 460.664C250.562 460.664 251.418 460.512 252.17 460.208C252.922 459.904 253.554 459.488 254.066 458.96C254.578 458.432 254.962 457.808 255.218 457.088C255.49 456.368 255.626 455.592 255.626 454.76C255.626 453.816 255.482 452.976 255.194 452.24C254.906 451.488 254.498 450.856 253.97 450.344C253.442 449.832 252.81 449.44 252.074 449.168C251.354 448.896 250.562 448.76 249.698 448.76C248.802 448.76 247.994 448.912 247.274 449.216C246.554 449.504 245.938 449.912 245.426 450.44C244.914 450.968 244.522 451.6 244.25 452.336C243.978 453.056 243.842 453.848 243.842 454.712ZM251.714 465.536C251.986 465.2 252.242 464.872 252.482 464.552C252.722 464.232 252.954 463.912 253.178 463.592C252.378 464.104 251.498 464.496 250.538 464.768C249.578 465.024 248.57 465.152 247.514 465.152C246.314 465.152 245.138 464.944 243.986 464.528C242.834 464.112 241.81 463.488 240.914 462.656C240.018 461.808 239.29 460.768 238.73 459.536C238.186 458.288 237.914 456.832 237.914 455.168C237.914 453.616 238.202 452.16 238.778 450.8C239.354 449.44 240.162 448.248 241.202 447.224C242.242 446.2 243.49 445.392 244.946 444.8C246.402 444.208 248.01 443.912 249.77 443.912C251.546 443.912 253.138 444.192 254.546 444.752C255.97 445.312 257.178 446.096 258.17 447.104C259.178 448.112 259.946 449.32 260.474 450.728C261.018 452.136 261.29 453.68 261.29 455.36C261.29 456.432 261.194 457.448 261.002 458.408C260.826 459.368 260.57 460.296 260.234 461.192C259.898 462.072 259.49 462.936 259.01 463.784C258.53 464.632 257.994 465.472 257.402 466.304L249.458 477.632C249.186 478.016 248.778 478.344 248.234 478.616C247.69 478.872 247.074 479 246.386 479H240.938L251.714 465.536ZM271.686 454.712C271.686 456.648 272.182 458.128 273.174 459.152C274.182 460.16 275.606 460.664 277.446 460.664C278.406 460.664 279.262 460.512 280.014 460.208C280.766 459.904 281.398 459.488 281.91 458.96C282.422 458.432 282.806 457.808 283.062 457.088C283.334 456.368 283.47 455.592 283.47 454.76C283.47 453.816 283.326 452.976 283.038 452.24C282.75 451.488 282.342 450.856 281.814 450.344C281.286 449.832 280.654 449.44 279.918 449.168C279.198 448.896 278.406 448.76 277.542 448.76C276.646 448.76 275.838 448.912 275.118 449.216C274.398 449.504 273.782 449.912 273.27 450.44C272.758 450.968 272.366 451.6 272.094 452.336C271.822 453.056 271.686 453.848 271.686 454.712ZM279.558 465.536C279.83 465.2 280.086 464.872 280.326 464.552C280.566 464.232 280.798 463.912 281.022 463.592C280.222 464.104 279.342 464.496 278.382 464.768C277.422 465.024 276.414 465.152 275.358 465.152C274.158 465.152 272.982 464.944 271.83 464.528C270.678 464.112 269.654 463.488 268.758 462.656C267.862 461.808 267.134 460.768 266.574 459.536C266.03 458.288 265.758 456.832 265.758 455.168C265.758 453.616 266.046 452.16 266.622 450.8C267.198 449.44 268.006 448.248 269.046 447.224C270.086 446.2 271.334 445.392 272.79 444.8C274.246 444.208 275.854 443.912 277.614 443.912C279.39 443.912 280.982 444.192 282.39 444.752C283.814 445.312 285.022 446.096 286.014 447.104C287.022 448.112 287.79 449.32 288.318 450.728C288.862 452.136 289.134 453.68 289.134 455.36C289.134 456.432 289.038 457.448 288.846 458.408C288.67 459.368 288.414 460.296 288.078 461.192C287.742 462.072 287.334 462.936 286.854 463.784C286.374 464.632 285.838 465.472 285.246 466.304L277.302 477.632C277.03 478.016 276.622 478.344 276.078 478.616C275.534 478.872 274.918 479 274.23 479H268.782L279.558 465.536ZM318.249 461.648C318.249 464.672 317.921 467.304 317.265 469.544C316.625 471.768 315.729 473.608 314.577 475.064C313.441 476.52 312.089 477.608 310.521 478.328C308.969 479.032 307.289 479.384 305.481 479.384C303.673 479.384 301.993 479.032 300.441 478.328C298.905 477.608 297.569 476.52 296.433 475.064C295.297 473.608 294.409 471.768 293.769 469.544C293.129 467.304 292.809 464.672 292.809 461.648C292.809 458.608 293.129 455.976 293.769 453.752C294.409 451.528 295.297 449.688 296.433 448.232C297.569 446.776 298.905 445.696 300.441 444.992C301.993 444.272 303.673 443.912 305.481 443.912C307.289 443.912 308.969 444.272 310.521 444.992C312.089 445.696 313.441 446.776 314.577 448.232C315.729 449.688 316.625 451.528 317.265 453.752C317.921 455.976 318.249 458.608 318.249 461.648ZM312.129 461.648C312.129 459.136 311.945 457.056 311.577 455.408C311.209 453.76 310.713 452.448 310.089 451.472C309.481 450.496 308.777 449.816 307.977 449.432C307.177 449.032 306.345 448.832 305.481 448.832C304.633 448.832 303.809 449.032 303.009 449.432C302.225 449.816 301.529 450.496 300.921 451.472C300.313 452.448 299.825 453.76 299.457 455.408C299.105 457.056 298.929 459.136 298.929 461.648C298.929 464.16 299.105 466.24 299.457 467.888C299.825 469.536 300.313 470.848 300.921 471.824C301.529 472.8 302.225 473.488 303.009 473.888C303.809 474.272 304.633 474.464 305.481 474.464C306.345 474.464 307.177 474.272 307.977 473.888C308.777 473.488 309.481 472.8 310.089 471.824C310.713 470.848 311.209 469.536 311.577 467.888C311.945 466.24 312.129 464.16 312.129 461.648Z" fill="#EBFAFF"/>
<line x1="140" y1="459.25" x2="322" y2="459.25" stroke="#E5228D" stroke-width="1.5"/>
<path d="M155.144 550.368C156.84 550.144 158.12 549.576 158.984 548.664C159.864 547.736 160.304 546.528 160.304 545.04C160.304 544.432 160.192 543.904 159.968 543.456C159.76 542.992 159.456 542.584 159.056 542.232C158.672 541.88 158.216 541.576 157.688 541.32C157.16 541.064 156.584 540.824 155.96 540.6L155.144 550.368ZM153.608 525C152.712 525.112 151.952 525.304 151.328 525.576C150.704 525.832 150.192 526.152 149.792 526.536C149.392 526.92 149.096 527.352 148.904 527.832C148.728 528.312 148.64 528.816 148.64 529.344C148.64 529.952 148.744 530.488 148.952 530.952C149.176 531.4 149.472 531.808 149.84 532.176C150.224 532.528 150.672 532.848 151.184 533.136C151.696 533.408 152.256 533.664 152.864 533.904L153.608 525ZM156.416 535.056C157.568 535.408 158.712 535.8 159.848 536.232C160.984 536.648 162 537.192 162.896 537.864C163.808 538.536 164.544 539.376 165.104 540.384C165.664 541.376 165.944 542.624 165.944 544.128C165.944 545.616 165.696 547.016 165.2 548.328C164.704 549.624 163.976 550.776 163.016 551.784C162.056 552.776 160.88 553.592 159.488 554.232C158.096 554.856 156.504 555.224 154.712 555.336L154.424 558.864C154.408 559.232 154.248 559.568 153.944 559.872C153.656 560.192 153.288 560.352 152.84 560.352H150.656L151.088 555.216C149.216 554.96 147.456 554.448 145.808 553.68C144.16 552.912 142.76 551.96 141.608 550.824L143.432 548.112C143.592 547.872 143.8 547.68 144.056 547.536C144.328 547.376 144.616 547.296 144.92 547.296C145.272 547.296 145.648 547.424 146.048 547.68C146.448 547.92 146.904 548.208 147.416 548.544C147.928 548.864 148.512 549.192 149.168 549.528C149.824 549.864 150.6 550.112 151.496 550.272L152.384 539.544C151.248 539.224 150.12 538.848 149 538.416C147.896 537.984 146.896 537.416 146 536.712C145.12 535.992 144.408 535.088 143.864 534C143.32 532.912 143.048 531.552 143.048 529.92C143.048 528.704 143.288 527.52 143.768 526.368C144.248 525.2 144.952 524.16 145.88 523.248C146.824 522.336 147.976 521.584 149.336 520.992C150.696 520.4 152.256 520.064 154.016 519.984L154.28 516.96C154.312 516.576 154.472 516.232 154.76 515.928C155.048 515.624 155.424 515.472 155.888 515.472H158.072L157.688 520.176C159.384 520.448 160.848 520.936 162.08 521.64C163.312 522.328 164.376 523.104 165.272 523.968L163.832 526.152C163.624 526.472 163.408 526.712 163.184 526.872C162.96 527.032 162.688 527.112 162.368 527.112C162.128 527.112 161.84 527.04 161.504 526.896C161.168 526.736 160.792 526.552 160.376 526.344C159.96 526.12 159.488 525.896 158.96 525.672C158.448 525.448 157.88 525.264 157.256 525.12L156.416 535.056ZM191.388 549.48C192.028 549.48 192.532 549.664 192.9 550.032C193.284 550.384 193.476 550.856 193.476 551.448V555H169.668V553.032C169.668 552.632 169.748 552.216 169.908 551.784C170.084 551.336 170.356 550.936 170.724 550.584L181.26 540.024C182.14 539.128 182.924 538.272 183.612 537.456C184.316 536.64 184.9 535.832 185.364 535.032C185.828 534.232 186.18 533.424 186.42 532.608C186.676 531.776 186.804 530.904 186.804 529.992C186.804 529.16 186.684 528.432 186.444 527.808C186.204 527.168 185.86 526.632 185.412 526.2C184.98 525.768 184.452 525.448 183.828 525.24C183.22 525.016 182.532 524.904 181.764 524.904C181.06 524.904 180.404 525.008 179.796 525.216C179.204 525.408 178.676 525.688 178.212 526.056C177.748 526.408 177.356 526.824 177.036 527.304C176.716 527.784 176.476 528.312 176.316 528.888C176.044 529.624 175.692 530.112 175.26 530.352C174.828 530.592 174.204 530.648 173.388 530.52L170.268 529.968C170.508 528.304 170.972 526.848 171.66 525.6C172.348 524.336 173.204 523.288 174.228 522.456C175.268 521.608 176.452 520.976 177.78 520.56C179.124 520.128 180.564 519.912 182.1 519.912C183.7 519.912 185.164 520.152 186.492 520.632C187.82 521.096 188.956 521.76 189.9 522.624C190.844 523.488 191.58 524.528 192.108 525.744C192.636 526.96 192.9 528.312 192.9 529.8C192.9 531.08 192.708 532.264 192.324 533.352C191.956 534.44 191.452 535.48 190.812 536.472C190.188 537.464 189.452 538.424 188.604 539.352C187.756 540.28 186.868 541.224 185.94 542.184L178.116 550.176C178.868 549.952 179.612 549.784 180.348 549.672C181.1 549.544 181.812 549.48 182.484 549.48H191.388ZM219.232 549.48C219.872 549.48 220.376 549.664 220.744 550.032C221.128 550.384 221.32 550.856 221.32 551.448V555H197.512V553.032C197.512 552.632 197.592 552.216 197.752 551.784C197.928 551.336 198.2 550.936 198.568 550.584L209.104 540.024C209.984 539.128 210.768 538.272 211.456 537.456C212.16 536.64 212.744 535.832 213.208 535.032C213.672 534.232 214.024 533.424 214.264 532.608C214.52 531.776 214.648 530.904 214.648 529.992C214.648 529.16 214.528 528.432 214.288 527.808C214.048 527.168 213.704 526.632 213.256 526.2C212.824 525.768 212.296 525.448 211.672 525.24C211.064 525.016 210.376 524.904 209.608 524.904C208.904 524.904 208.248 525.008 207.64 525.216C207.048 525.408 206.52 525.688 206.056 526.056C205.592 526.408 205.2 526.824 204.88 527.304C204.56 527.784 204.32 528.312 204.16 528.888C203.888 529.624 203.536 530.112 203.104 530.352C202.672 530.592 202.048 530.648 201.232 530.52L198.112 529.968C198.352 528.304 198.816 526.848 199.504 525.6C200.192 524.336 201.048 523.288 202.072 522.456C203.112 521.608 204.296 520.976 205.624 520.56C206.968 520.128 208.408 519.912 209.944 519.912C211.544 519.912 213.008 520.152 214.336 520.632C215.664 521.096 216.8 521.76 217.744 522.624C218.688 523.488 219.424 524.528 219.952 525.744C220.48 526.96 220.744 528.312 220.744 529.8C220.744 531.08 220.552 532.264 220.168 533.352C219.8 534.44 219.296 535.48 218.656 536.472C218.032 537.464 217.296 538.424 216.448 539.352C215.6 540.28 214.712 541.224 213.784 542.184L205.96 550.176C206.712 549.952 207.456 549.784 208.192 549.672C208.944 549.544 209.656 549.48 210.328 549.48H219.232ZM225.595 551.736C225.595 551.24 225.683 550.768 225.859 550.32C226.051 549.872 226.307 549.488 226.627 549.168C226.947 548.848 227.331 548.592 227.779 548.4C228.227 548.208 228.707 548.112 229.219 548.112C229.731 548.112 230.203 548.208 230.635 548.4C231.083 548.592 231.467 548.848 231.787 549.168C232.123 549.488 232.387 549.872 232.579 550.32C232.771 550.768 232.867 551.24 232.867 551.736C232.867 552.248 232.771 552.728 232.579 553.176C232.387 553.608 232.123 553.984 231.787 554.304C231.467 554.624 231.083 554.872 230.635 555.048C230.203 555.24 229.731 555.336 229.219 555.336C228.707 555.336 228.227 555.24 227.779 555.048C227.331 554.872 226.947 554.624 226.627 554.304C226.307 553.984 226.051 553.608 225.859 553.176C225.683 552.728 225.595 552.248 225.595 551.736ZM242.842 530.712C242.842 532.648 243.338 534.128 244.33 535.152C245.338 536.16 246.762 536.664 248.602 536.664C249.562 536.664 250.418 536.512 251.17 536.208C251.922 535.904 252.554 535.488 253.066 534.96C253.578 534.432 253.962 533.808 254.218 533.088C254.49 532.368 254.626 531.592 254.626 530.76C254.626 529.816 254.482 528.976 254.194 528.24C253.906 527.488 253.498 526.856 252.97 526.344C252.442 525.832 251.81 525.44 251.074 525.168C250.354 524.896 249.562 524.76 248.698 524.76C247.802 524.76 246.994 524.912 246.274 525.216C245.554 525.504 244.938 525.912 244.426 526.44C243.914 526.968 243.522 527.6 243.25 528.336C242.978 529.056 242.842 529.848 242.842 530.712ZM250.714 541.536C250.986 541.2 251.242 540.872 251.482 540.552C251.722 540.232 251.954 539.912 252.178 539.592C251.378 540.104 250.498 540.496 249.538 540.768C248.578 541.024 247.57 541.152 246.514 541.152C245.314 541.152 244.138 540.944 242.986 540.528C241.834 540.112 240.81 539.488 239.914 538.656C239.018 537.808 238.29 536.768 237.73 535.536C237.186 534.288 236.914 532.832 236.914 531.168C236.914 529.616 237.202 528.16 237.778 526.8C238.354 525.44 239.162 524.248 240.202 523.224C241.242 522.2 242.49 521.392 243.946 520.8C245.402 520.208 247.01 519.912 248.77 519.912C250.546 519.912 252.138 520.192 253.546 520.752C254.97 521.312 256.178 522.096 257.17 523.104C258.178 524.112 258.946 525.32 259.474 526.728C260.018 528.136 260.29 529.68 260.29 531.36C260.29 532.432 260.194 533.448 260.002 534.408C259.826 535.368 259.57 536.296 259.234 537.192C258.898 538.072 258.49 538.936 258.01 539.784C257.53 540.632 256.994 541.472 256.402 542.304L248.458 553.632C248.186 554.016 247.778 554.344 247.234 554.616C246.69 554.872 246.074 555 245.386 555H239.938L250.714 541.536ZM270.686 530.712C270.686 532.648 271.182 534.128 272.174 535.152C273.182 536.16 274.606 536.664 276.446 536.664C277.406 536.664 278.262 536.512 279.014 536.208C279.766 535.904 280.398 535.488 280.91 534.96C281.422 534.432 281.806 533.808 282.062 533.088C282.334 532.368 282.47 531.592 282.47 530.76C282.47 529.816 282.326 528.976 282.038 528.24C281.75 527.488 281.342 526.856 280.814 526.344C280.286 525.832 279.654 525.44 278.918 525.168C278.198 524.896 277.406 524.76 276.542 524.76C275.646 524.76 274.838 524.912 274.118 525.216C273.398 525.504 272.782 525.912 272.27 526.44C271.758 526.968 271.366 527.6 271.094 528.336C270.822 529.056 270.686 529.848 270.686 530.712ZM278.558 541.536C278.83 541.2 279.086 540.872 279.326 540.552C279.566 540.232 279.798 539.912 280.022 539.592C279.222 540.104 278.342 540.496 277.382 540.768C276.422 541.024 275.414 541.152 274.358 541.152C273.158 541.152 271.982 540.944 270.83 540.528C269.678 540.112 268.654 539.488 267.758 538.656C266.862 537.808 266.134 536.768 265.574 535.536C265.03 534.288 264.758 532.832 264.758 531.168C264.758 529.616 265.046 528.16 265.622 526.8C266.198 525.44 267.006 524.248 268.046 523.224C269.086 522.2 270.334 521.392 271.79 520.8C273.246 520.208 274.854 519.912 276.614 519.912C278.39 519.912 279.982 520.192 281.39 520.752C282.814 521.312 284.022 522.096 285.014 523.104C286.022 524.112 286.79 525.32 287.318 526.728C287.862 528.136 288.134 529.68 288.134 531.36C288.134 532.432 288.038 533.448 287.846 534.408C287.67 535.368 287.414 536.296 287.078 537.192C286.742 538.072 286.334 538.936 285.854 539.784C285.374 540.632 284.838 541.472 284.246 542.304L276.302 553.632C276.03 554.016 275.622 554.344 275.078 554.616C274.534 554.872 273.918 555 273.23 555H267.782L278.558 541.536ZM317.249 537.648C317.249 540.672 316.921 543.304 316.265 545.544C315.625 547.768 314.729 549.608 313.577 551.064C312.441 552.52 311.089 553.608 309.521 554.328C307.969 555.032 306.289 555.384 304.481 555.384C302.673 555.384 300.993 555.032 299.441 554.328C297.905 553.608 296.569 552.52 295.433 551.064C294.297 549.608 293.409 547.768 292.769 545.544C292.129 543.304 291.809 540.672 291.809 537.648C291.809 534.608 292.129 531.976 292.769 529.752C293.409 527.528 294.297 525.688 295.433 524.232C296.569 522.776 297.905 521.696 299.441 520.992C300.993 520.272 302.673 519.912 304.481 519.912C306.289 519.912 307.969 520.272 309.521 520.992C311.089 521.696 312.441 522.776 313.577 524.232C314.729 525.688 315.625 527.528 316.265 529.752C316.921 531.976 317.249 534.608 317.249 537.648ZM311.129 537.648C311.129 535.136 310.945 533.056 310.577 531.408C310.209 529.76 309.713 528.448 309.089 527.472C308.481 526.496 307.777 525.816 306.977 525.432C306.177 525.032 305.345 524.832 304.481 524.832C303.633 524.832 302.809 525.032 302.009 525.432C301.225 525.816 300.529 526.496 299.921 527.472C299.313 528.448 298.825 529.76 298.457 531.408C298.105 533.056 297.929 535.136 297.929 537.648C297.929 540.16 298.105 542.24 298.457 543.888C298.825 545.536 299.313 546.848 299.921 547.824C300.529 548.8 301.225 549.488 302.009 549.888C302.809 550.272 303.633 550.464 304.481 550.464C305.345 550.464 306.177 550.272 306.977 549.888C307.777 549.488 308.481 548.8 309.089 547.824C309.713 546.848 310.209 545.536 310.577 543.888C310.945 542.24 311.129 540.16 311.129 537.648Z" fill="#EBFAFF"/>
<path d="M183.248 331.888C184.016 331.888 184.709 331.765 185.328 331.52C185.957 331.275 186.491 330.933 186.928 330.496C187.376 330.059 187.717 329.541 187.952 328.944C188.197 328.347 188.32 327.696 188.32 326.992C188.32 326.245 188.203 325.573 187.968 324.976C187.733 324.368 187.397 323.856 186.96 323.44C186.533 323.013 186.021 322.688 185.424 322.464C184.827 322.24 184.171 322.128 183.456 322.128C182.688 322.128 181.995 322.261 181.376 322.528C180.757 322.784 180.229 323.136 179.792 323.584C179.365 324.021 179.035 324.533 178.8 325.12C178.576 325.696 178.464 326.299 178.464 326.928C178.464 327.664 178.571 328.336 178.784 328.944C178.997 329.552 179.307 330.075 179.712 330.512C180.128 330.949 180.629 331.291 181.216 331.536C181.813 331.771 182.491 331.888 183.248 331.888ZM181.584 319.664C181.381 319.92 181.184 320.171 180.992 320.416C180.811 320.651 180.635 320.885 180.464 321.12C181.008 320.747 181.605 320.459 182.256 320.256C182.907 320.053 183.616 319.952 184.384 319.952C185.312 319.952 186.187 320.107 187.008 320.416C187.829 320.715 188.544 321.157 189.152 321.744C189.771 322.32 190.261 323.035 190.624 323.888C190.987 324.731 191.168 325.696 191.168 326.784C191.168 327.84 190.976 328.821 190.592 329.728C190.208 330.635 189.669 331.424 188.976 332.096C188.293 332.768 187.467 333.296 186.496 333.68C185.536 334.064 184.475 334.256 183.312 334.256C182.16 334.256 181.115 334.075 180.176 333.712C179.237 333.339 178.437 332.816 177.776 332.144C177.125 331.461 176.619 330.64 176.256 329.68C175.904 328.709 175.728 327.627 175.728 326.432C175.728 325.429 175.947 324.363 176.384 323.232C176.832 322.091 177.541 320.875 178.512 319.584L184.336 311.76C184.485 311.568 184.688 311.408 184.944 311.28C185.211 311.141 185.515 311.072 185.856 311.072H188.384L181.584 319.664ZM194.819 334V317.792H196.531C196.936 317.792 197.187 317.989 197.283 318.384L197.491 320.048C198.088 319.312 198.76 318.709 199.507 318.24C200.253 317.771 201.117 317.536 202.099 317.536C203.187 317.536 204.067 317.84 204.739 318.448C205.421 319.056 205.912 319.877 206.211 320.912C206.445 320.325 206.744 319.819 207.107 319.392C207.48 318.965 207.896 318.613 208.355 318.336C208.813 318.059 209.299 317.856 209.811 317.728C210.333 317.6 210.861 317.536 211.395 317.536C212.248 317.536 213.005 317.675 213.667 317.952C214.339 318.219 214.904 318.613 215.363 319.136C215.832 319.659 216.189 320.304 216.435 321.072C216.68 321.829 216.803 322.699 216.803 323.68V334H213.939V323.68C213.939 322.411 213.661 321.451 213.107 320.8C212.552 320.139 211.752 319.808 210.707 319.808C210.237 319.808 209.789 319.893 209.363 320.064C208.947 320.224 208.579 320.464 208.259 320.784C207.939 321.104 207.683 321.509 207.491 322C207.309 322.48 207.219 323.04 207.219 323.68V334H204.355V323.68C204.355 322.379 204.093 321.408 203.571 320.768C203.048 320.128 202.285 319.808 201.283 319.808C200.579 319.808 199.928 320 199.331 320.384C198.733 320.757 198.184 321.269 197.683 321.92V334H194.819ZM227.963 317.536C229.147 317.536 230.214 317.733 231.163 318.128C232.112 318.523 232.923 319.083 233.595 319.808C234.267 320.533 234.779 321.413 235.131 322.448C235.494 323.472 235.675 324.619 235.675 325.888C235.675 327.168 235.494 328.32 235.131 329.344C234.779 330.368 234.267 331.243 233.595 331.968C232.923 332.693 232.112 333.253 231.163 333.648C230.214 334.032 229.147 334.224 227.963 334.224C226.768 334.224 225.691 334.032 224.731 333.648C223.782 333.253 222.971 332.693 222.299 331.968C221.627 331.243 221.11 330.368 220.747 329.344C220.395 328.32 220.219 327.168 220.219 325.888C220.219 324.619 220.395 323.472 220.747 322.448C221.11 321.413 221.627 320.533 222.299 319.808C222.971 319.083 223.782 318.523 224.731 318.128C225.691 317.733 226.768 317.536 227.963 317.536ZM227.963 332C229.563 332 230.758 331.467 231.547 330.4C232.336 329.323 232.731 327.824 232.731 325.904C232.731 323.973 232.336 322.469 231.547 321.392C230.758 320.315 229.563 319.776 227.963 319.776C227.152 319.776 226.443 319.915 225.835 320.192C225.238 320.469 224.736 320.869 224.331 321.392C223.936 321.915 223.638 322.56 223.435 323.328C223.243 324.085 223.147 324.944 223.147 325.904C223.147 327.824 223.542 329.323 224.331 330.4C225.131 331.467 226.342 332 227.963 332ZM241.975 320.144C242.327 319.749 242.701 319.392 243.095 319.072C243.49 318.752 243.906 318.48 244.343 318.256C244.791 318.021 245.261 317.845 245.751 317.728C246.253 317.6 246.791 317.536 247.367 317.536C248.253 317.536 249.031 317.685 249.703 317.984C250.386 318.272 250.951 318.688 251.399 319.232C251.858 319.765 252.205 320.411 252.439 321.168C252.674 321.925 252.791 322.763 252.791 323.68V334H249.927V323.68C249.927 322.453 249.645 321.504 249.079 320.832C248.525 320.149 247.677 319.808 246.535 319.808C245.693 319.808 244.903 320.011 244.167 320.416C243.442 320.821 242.77 321.371 242.151 322.064V334H239.287V317.792H240.999C241.405 317.792 241.655 317.989 241.751 318.384L241.975 320.144ZM261.888 334.256C260.608 334.256 259.622 333.899 258.928 333.184C258.246 332.469 257.904 331.44 257.904 330.096V320.176H255.952C255.782 320.176 255.638 320.128 255.52 320.032C255.403 319.925 255.344 319.765 255.344 319.552V318.416L258 318.08L258.656 313.072C258.688 312.912 258.758 312.784 258.864 312.688C258.982 312.581 259.131 312.528 259.312 312.528H260.752V318.112H265.44V320.176H260.752V329.904C260.752 330.587 260.918 331.093 261.248 331.424C261.579 331.755 262.006 331.92 262.528 331.92C262.827 331.92 263.083 331.883 263.296 331.808C263.52 331.723 263.712 331.632 263.872 331.536C264.032 331.44 264.166 331.355 264.272 331.28C264.39 331.195 264.491 331.152 264.576 331.152C264.726 331.152 264.859 331.243 264.976 331.424L265.808 332.784C265.318 333.243 264.726 333.605 264.032 333.872C263.339 334.128 262.624 334.256 261.888 334.256ZM271.245 319.952C271.938 319.216 272.706 318.629 273.549 318.192C274.392 317.755 275.362 317.536 276.461 317.536C277.346 317.536 278.125 317.685 278.797 317.984C279.48 318.272 280.045 318.688 280.493 319.232C280.952 319.765 281.298 320.411 281.533 321.168C281.768 321.925 281.885 322.763 281.885 323.68V334H279.021V323.68C279.021 322.453 278.738 321.504 278.173 320.832C277.618 320.149 276.77 319.808 275.629 319.808C274.786 319.808 273.997 320.011 273.261 320.416C272.536 320.821 271.864 321.371 271.245 322.064V334H268.381V310.432H271.245V319.952Z" fill="#EBFAFF"/>
<rect x="140.5" y="644.5" width="181" height="45" rx="11.5" fill="#EBFAFF"/>
<rect x="140.5" y="644.5" width="181" height="45" rx="11.5" stroke="url(#paint1_linear_1357_5780)"/>
<path fill-rule="evenodd" clip-rule="evenodd" d="M170.75 662V662.625H169.094C168.294 662.625 167.624 663.229 167.54 664.024L166.487 674.024C166.39 674.946 167.114 675.75 168.041 675.75H180.958C181.886 675.75 182.609 674.946 182.512 674.024L181.46 664.024C181.376 663.229 180.705 662.625 179.906 662.625H178.25V662C178.25 659.929 176.571 658.25 174.5 658.25C172.429 658.25 170.75 659.929 170.75 662ZM174.5 659.5C173.119 659.5 172 660.619 172 662V662.625H177V662C177 660.619 175.88 659.5 174.5 659.5ZM172 666.375C172 667.756 173.119 668.875 174.5 668.875C175.88 668.875 177 667.756 177 666.375V665.75C177 665.405 177.28 665.125 177.625 665.125C177.97 665.125 178.25 665.405 178.25 665.75V666.375C178.25 668.446 176.571 670.125 174.5 670.125C172.429 670.125 170.75 668.446 170.75 666.375V665.75C170.75 665.405 171.03 665.125 171.375 665.125C171.72 665.125 172 665.405 172 665.75V666.375Z" fill="#228EE5"/>
<path d="M196.231 671.132C196.316 671.132 196.391 671.167 196.455 671.236L197.071 671.9C196.601 672.444 196.031 672.868 195.359 673.172C194.692 673.476 193.884 673.628 192.935 673.628C192.113 673.628 191.367 673.487 190.695 673.204C190.023 672.916 189.449 672.516 188.975 672.004C188.5 671.487 188.132 670.868 187.871 670.148C187.609 669.428 187.479 668.636 187.479 667.772C187.479 666.908 187.615 666.116 187.887 665.396C188.159 664.676 188.54 664.057 189.031 663.54C189.527 663.023 190.119 662.623 190.807 662.34C191.495 662.052 192.255 661.908 193.087 661.908C193.903 661.908 194.623 662.039 195.247 662.3C195.871 662.561 196.42 662.916 196.895 663.364L196.383 664.076C196.351 664.129 196.308 664.175 196.255 664.212C196.207 664.244 196.14 664.26 196.055 664.26C195.959 664.26 195.841 664.209 195.703 664.108C195.564 664.001 195.383 663.884 195.159 663.756C194.935 663.628 194.655 663.513 194.319 663.412C193.983 663.305 193.569 663.252 193.079 663.252C192.487 663.252 191.945 663.356 191.455 663.564C190.964 663.767 190.54 664.063 190.183 664.452C189.831 664.841 189.556 665.316 189.359 665.876C189.161 666.436 189.063 667.068 189.063 667.772C189.063 668.487 189.164 669.124 189.367 669.684C189.575 670.244 189.855 670.719 190.207 671.108C190.564 671.492 190.983 671.785 191.463 671.988C191.948 672.191 192.471 672.292 193.031 672.292C193.372 672.292 193.679 672.273 193.951 672.236C194.228 672.193 194.481 672.129 194.711 672.044C194.945 671.959 195.161 671.852 195.359 671.724C195.561 671.591 195.761 671.433 195.959 671.252C196.049 671.172 196.14 671.132 196.231 671.132ZM213.556 667.772C213.556 668.631 213.42 669.42 213.148 670.14C212.876 670.855 212.492 671.471 211.996 671.988C211.5 672.505 210.903 672.908 210.204 673.196C209.511 673.479 208.743 673.62 207.9 673.62C207.057 673.62 206.289 673.479 205.596 673.196C204.903 672.908 204.308 672.505 203.812 671.988C203.316 671.471 202.932 670.855 202.66 670.14C202.388 669.42 202.252 668.631 202.252 667.772C202.252 666.913 202.388 666.127 202.66 665.412C202.932 664.692 203.316 664.073 203.812 663.556C204.308 663.033 204.903 662.628 205.596 662.34C206.289 662.052 207.057 661.908 207.9 661.908C208.743 661.908 209.511 662.052 210.204 662.34C210.903 662.628 211.5 663.033 211.996 663.556C212.492 664.073 212.876 664.692 213.148 665.412C213.42 666.127 213.556 666.913 213.556 667.772ZM211.964 667.772C211.964 667.068 211.868 666.436 211.676 665.876C211.484 665.316 211.212 664.844 210.86 664.46C210.508 664.071 210.081 663.772 209.58 663.564C209.079 663.356 208.519 663.252 207.9 663.252C207.287 663.252 206.729 663.356 206.228 663.564C205.727 663.772 205.297 664.071 204.94 664.46C204.588 664.844 204.316 665.316 204.124 665.876C203.932 666.436 203.836 667.068 203.836 667.772C203.836 668.476 203.932 669.108 204.124 669.668C204.316 670.223 204.588 670.695 204.94 671.084C205.297 671.468 205.727 671.764 206.228 671.972C206.729 672.175 207.287 672.276 207.9 672.276C208.519 672.276 209.079 672.175 209.58 671.972C210.081 671.764 210.508 671.468 210.86 671.084C211.212 670.695 211.484 670.223 211.676 669.668C211.868 669.108 211.964 668.476 211.964 667.772ZM229.158 662.036V673.5H228.382C228.26 673.5 228.156 673.479 228.07 673.436C227.99 673.393 227.91 673.321 227.83 673.22L221.198 664.58C221.209 664.713 221.217 664.844 221.222 664.972C221.228 665.1 221.23 665.22 221.23 665.332V673.5H219.87V662.036H220.67C220.74 662.036 220.798 662.041 220.846 662.052C220.894 662.057 220.937 662.071 220.974 662.092C221.012 662.108 221.049 662.135 221.086 662.172C221.124 662.204 221.164 662.247 221.206 662.3L227.838 670.932C227.828 670.793 227.817 670.66 227.806 670.532C227.801 670.399 227.798 670.273 227.798 670.156V662.036H229.158ZM243.45 663.34H239.738V673.5H238.194V663.34H234.474V662.036H243.45V663.34ZM250.313 673.5H248.761V662.036H250.313V673.5ZM261.763 672.268C262.238 672.268 262.662 672.188 263.035 672.028C263.408 671.868 263.723 671.644 263.979 671.356C264.24 671.068 264.438 670.724 264.571 670.324C264.71 669.924 264.779 669.484 264.779 669.004V662.036H266.323V669.004C266.323 669.665 266.216 670.279 266.003 670.844C265.795 671.409 265.494 671.9 265.099 672.316C264.71 672.727 264.232 673.049 263.667 673.284C263.102 673.519 262.467 673.636 261.763 673.636C261.059 673.636 260.424 673.519 259.859 673.284C259.294 673.049 258.814 672.727 258.419 672.316C258.024 671.9 257.72 671.409 257.507 670.844C257.299 670.279 257.195 669.665 257.195 669.004V662.036H258.739V668.996C258.739 669.476 258.806 669.916 258.939 670.316C259.078 670.716 259.275 671.06 259.531 671.348C259.792 671.636 260.11 671.863 260.483 672.028C260.862 672.188 261.288 672.268 261.763 672.268ZM282.486 662.036V673.5H281.71C281.588 673.5 281.484 673.479 281.398 673.436C281.318 673.393 281.238 673.321 281.158 673.22L274.526 664.58C274.537 664.713 274.545 664.844 274.55 664.972C274.556 665.1 274.558 665.22 274.558 665.332V673.5H273.198V662.036H273.998C274.068 662.036 274.126 662.041 274.174 662.052C274.222 662.057 274.265 662.071 274.302 662.092C274.34 662.108 274.377 662.135 274.414 662.172C274.452 662.204 274.492 662.247 274.534 662.3L281.166 670.932C281.156 670.793 281.145 670.66 281.134 670.532C281.129 670.399 281.126 670.273 281.126 670.156V662.036H282.486ZM296.583 672.236L296.575 673.5H289.511V662.036H296.575V663.3H291.063V667.108H295.527V668.324H291.063V672.236H296.583Z" fill="#228EE5"/>
<path d="M169.655 594.232C169.655 593.907 169.717 593.6 169.839 593.312C169.962 593.024 170.13 592.773 170.343 592.56C170.557 592.341 170.802 592.171 171.079 592.048C171.362 591.925 171.663 591.864 171.983 591.864C172.309 591.864 172.615 591.925 172.903 592.048C173.191 592.171 173.442 592.341 173.655 592.56C173.869 592.773 174.037 593.024 174.159 593.312C174.282 593.6 174.343 593.907 174.343 594.232C174.343 594.552 174.282 594.853 174.159 595.136C174.037 595.413 173.869 595.659 173.655 595.872C173.442 596.085 173.191 596.253 172.903 596.376C172.615 596.499 172.309 596.56 171.983 596.56C171.663 596.56 171.362 596.499 171.079 596.376C170.802 596.253 170.557 596.085 170.343 595.872C170.13 595.659 169.962 595.413 169.839 595.136C169.717 594.853 169.655 594.552 169.655 594.232ZM193.84 597.096C193.893 597.096 193.939 597.115 193.976 597.152L194.296 597.496C194.061 597.747 193.805 597.973 193.528 598.176C193.256 598.373 192.955 598.544 192.624 598.688C192.299 598.827 191.939 598.933 191.544 599.008C191.155 599.088 190.725 599.128 190.256 599.128C189.472 599.128 188.752 598.992 188.096 598.72C187.445 598.443 186.885 598.053 186.416 597.552C185.947 597.045 185.581 596.435 185.32 595.72C185.064 595.005 184.936 594.211 184.936 593.336C184.936 592.477 185.069 591.693 185.336 590.984C185.603 590.275 185.976 589.667 186.456 589.16C186.936 588.648 187.512 588.253 188.184 587.976C188.856 587.693 189.597 587.552 190.408 587.552C191.181 587.552 191.867 587.672 192.464 587.912C193.061 588.152 193.605 588.491 194.096 588.928L193.848 589.288C193.805 589.352 193.739 589.384 193.648 589.384C193.584 589.384 193.48 589.325 193.336 589.208C193.192 589.091 192.992 588.963 192.736 588.824C192.48 588.68 192.16 588.549 191.776 588.432C191.397 588.315 190.941 588.256 190.408 588.256C189.725 588.256 189.099 588.373 188.528 588.608C187.963 588.843 187.475 589.179 187.064 589.616C186.659 590.053 186.341 590.587 186.112 591.216C185.883 591.845 185.768 592.552 185.768 593.336C185.768 594.136 185.883 594.851 186.112 595.48C186.347 596.109 186.667 596.643 187.072 597.08C187.477 597.512 187.955 597.845 188.504 598.08C189.059 598.309 189.656 598.424 190.296 598.424C190.701 598.424 191.061 598.397 191.376 598.344C191.696 598.291 191.989 598.211 192.256 598.104C192.523 597.997 192.771 597.867 193 597.712C193.229 597.557 193.456 597.376 193.68 597.168C193.707 597.147 193.733 597.131 193.76 597.12C193.787 597.104 193.813 597.096 193.84 597.096ZM200.581 595.152C199.823 595.179 199.17 595.24 198.621 595.336C198.077 595.427 197.626 595.552 197.269 595.712C196.917 595.872 196.655 596.064 196.485 596.288C196.314 596.507 196.229 596.757 196.229 597.04C196.229 597.307 196.271 597.539 196.357 597.736C196.447 597.928 196.565 598.088 196.709 598.216C196.858 598.339 197.029 598.429 197.221 598.488C197.413 598.547 197.613 598.576 197.821 598.576C198.13 598.576 198.413 598.544 198.669 598.48C198.93 598.411 199.17 598.317 199.389 598.2C199.613 598.077 199.821 597.933 200.013 597.768C200.205 597.603 200.394 597.424 200.581 597.232V595.152ZM195.901 592.168C196.317 591.752 196.754 591.437 197.213 591.224C197.671 591.011 198.191 590.904 198.773 590.904C199.199 590.904 199.573 590.973 199.893 591.112C200.213 591.245 200.477 591.44 200.685 591.696C200.898 591.947 201.058 592.253 201.165 592.616C201.271 592.973 201.325 593.373 201.325 593.816V599H201.021C200.861 599 200.762 598.925 200.725 598.776L200.613 597.752C200.394 597.965 200.175 598.157 199.957 598.328C199.743 598.499 199.519 598.643 199.285 598.76C199.05 598.877 198.797 598.968 198.525 599.032C198.253 599.096 197.954 599.128 197.629 599.128C197.357 599.128 197.093 599.088 196.837 599.008C196.581 598.928 196.351 598.805 196.149 598.64C195.951 598.475 195.791 598.264 195.669 598.008C195.551 597.747 195.493 597.435 195.493 597.072C195.493 596.736 195.589 596.424 195.781 596.136C195.973 595.848 196.274 595.597 196.685 595.384C197.095 595.171 197.621 595 198.261 594.872C198.906 594.744 199.679 594.669 200.581 594.648V593.816C200.581 593.08 200.421 592.515 200.101 592.12C199.786 591.72 199.317 591.52 198.693 591.52C198.309 591.52 197.981 591.573 197.709 591.68C197.442 591.787 197.215 591.904 197.029 592.032C196.842 592.16 196.69 592.277 196.573 592.384C196.455 592.491 196.357 592.544 196.277 592.544C196.218 592.544 196.17 592.531 196.133 592.504C196.095 592.477 196.063 592.443 196.037 592.4L195.901 592.168ZM204.603 592.432C204.971 591.973 205.395 591.605 205.875 591.328C206.36 591.051 206.899 590.912 207.491 590.912C207.928 590.912 208.312 590.981 208.643 591.12C208.979 591.259 209.256 591.459 209.475 591.72C209.693 591.981 209.859 592.296 209.971 592.664C210.083 593.032 210.139 593.448 210.139 593.912V599H209.371V593.912C209.371 593.165 209.2 592.581 208.859 592.16C208.517 591.733 207.997 591.52 207.299 591.52C206.781 591.52 206.296 591.653 205.843 591.92C205.395 592.181 204.995 592.547 204.643 593.016V599H203.875V591.04H204.299C204.432 591.04 204.509 591.107 204.531 591.24L204.603 592.432ZM218.023 592.104C217.997 592.131 217.97 592.155 217.943 592.176C217.922 592.192 217.89 592.2 217.847 592.2C217.794 592.2 217.722 592.165 217.631 592.096C217.541 592.021 217.418 591.941 217.263 591.856C217.109 591.771 216.914 591.693 216.679 591.624C216.45 591.549 216.17 591.512 215.839 591.512C215.381 591.512 214.973 591.595 214.615 591.76C214.263 591.92 213.965 592.152 213.719 592.456C213.474 592.76 213.287 593.128 213.159 593.56C213.037 593.992 212.975 594.477 212.975 595.016C212.975 595.576 213.039 596.072 213.167 596.504C213.301 596.936 213.487 597.301 213.727 597.6C213.967 597.893 214.258 598.117 214.599 598.272C214.941 598.427 215.319 598.504 215.735 598.504C216.119 598.504 216.439 598.459 216.695 598.368C216.957 598.277 217.17 598.179 217.335 598.072C217.506 597.965 217.639 597.867 217.735 597.776C217.831 597.685 217.911 597.64 217.975 597.64C218.039 597.64 218.093 597.667 218.135 597.72L218.335 597.976C218.213 598.136 218.058 598.285 217.871 598.424C217.685 598.563 217.474 598.683 217.239 598.784C217.005 598.885 216.749 598.963 216.471 599.016C216.199 599.075 215.914 599.104 215.615 599.104C215.109 599.104 214.645 599.013 214.223 598.832C213.807 598.645 213.447 598.379 213.143 598.032C212.845 597.68 212.61 597.251 212.439 596.744C212.274 596.237 212.191 595.661 212.191 595.016C212.191 594.408 212.271 593.853 212.431 593.352C212.591 592.851 212.826 592.419 213.135 592.056C213.445 591.693 213.821 591.413 214.263 591.216C214.711 591.013 215.223 590.912 215.799 590.912C216.317 590.912 216.775 590.995 217.175 591.16C217.575 591.325 217.925 591.549 218.223 591.832L218.023 592.104ZM225.646 594.216C225.646 593.789 225.585 593.408 225.462 593.072C225.345 592.731 225.177 592.443 224.958 592.208C224.739 591.973 224.478 591.795 224.174 591.672C223.875 591.544 223.545 591.48 223.182 591.48C222.771 591.48 222.403 591.544 222.078 591.672C221.753 591.8 221.47 591.984 221.23 592.224C220.995 592.464 220.806 592.752 220.662 593.088C220.518 593.424 220.422 593.8 220.374 594.216H225.646ZM220.334 594.704V594.856C220.334 595.453 220.403 595.979 220.542 596.432C220.681 596.885 220.878 597.267 221.134 597.576C221.39 597.88 221.699 598.109 222.062 598.264C222.425 598.419 222.83 598.496 223.278 598.496C223.678 598.496 224.025 598.453 224.318 598.368C224.611 598.277 224.857 598.179 225.054 598.072C225.257 597.96 225.417 597.861 225.534 597.776C225.651 597.685 225.737 597.64 225.79 597.64C225.859 597.64 225.913 597.667 225.95 597.72L226.158 597.976C226.03 598.136 225.859 598.285 225.646 598.424C225.438 598.563 225.203 598.683 224.942 598.784C224.686 598.88 224.409 598.957 224.11 599.016C223.817 599.075 223.521 599.104 223.222 599.104C222.678 599.104 222.182 599.011 221.734 598.824C221.286 598.632 220.902 598.355 220.582 597.992C220.262 597.629 220.014 597.187 219.838 596.664C219.667 596.136 219.582 595.533 219.582 594.856C219.582 594.285 219.662 593.76 219.822 593.28C219.987 592.795 220.222 592.379 220.526 592.032C220.835 591.68 221.211 591.405 221.654 591.208C222.102 591.011 222.609 590.912 223.174 590.912C223.622 590.912 224.038 590.989 224.422 591.144C224.806 591.299 225.139 591.525 225.422 591.824C225.705 592.117 225.926 592.48 226.086 592.912C226.251 593.344 226.334 593.84 226.334 594.4C226.334 594.517 226.318 594.597 226.286 594.64C226.254 594.683 226.201 594.704 226.126 594.704H220.334ZM229.246 587.36V599H228.478V587.36H229.246ZM240.737 595.152C239.979 595.179 239.326 595.24 238.777 595.336C238.233 595.427 237.782 595.552 237.425 595.712C237.073 595.872 236.811 596.064 236.641 596.288C236.47 596.507 236.385 596.757 236.385 597.04C236.385 597.307 236.427 597.539 236.513 597.736C236.603 597.928 236.721 598.088 236.865 598.216C237.014 598.339 237.185 598.429 237.377 598.488C237.569 598.547 237.769 598.576 237.977 598.576C238.286 598.576 238.569 598.544 238.825 598.48C239.086 598.411 239.326 598.317 239.545 598.2C239.769 598.077 239.977 597.933 240.169 597.768C240.361 597.603 240.55 597.424 240.737 597.232V595.152ZM236.057 592.168C236.473 591.752 236.91 591.437 237.369 591.224C237.827 591.011 238.347 590.904 238.929 590.904C239.355 590.904 239.729 590.973 240.049 591.112C240.369 591.245 240.633 591.44 240.841 591.696C241.054 591.947 241.214 592.253 241.321 592.616C241.427 592.973 241.481 593.373 241.481 593.816V599H241.177C241.017 599 240.918 598.925 240.881 598.776L240.769 597.752C240.55 597.965 240.331 598.157 240.113 598.328C239.899 598.499 239.675 598.643 239.441 598.76C239.206 598.877 238.953 598.968 238.681 599.032C238.409 599.096 238.11 599.128 237.785 599.128C237.513 599.128 237.249 599.088 236.993 599.008C236.737 598.928 236.507 598.805 236.305 598.64C236.107 598.475 235.947 598.264 235.825 598.008C235.707 597.747 235.649 597.435 235.649 597.072C235.649 596.736 235.745 596.424 235.937 596.136C236.129 595.848 236.43 595.597 236.841 595.384C237.251 595.171 237.777 595 238.417 594.872C239.062 594.744 239.835 594.669 240.737 594.648V593.816C240.737 593.08 240.577 592.515 240.257 592.12C239.942 591.72 239.473 591.52 238.849 591.52C238.465 591.52 238.137 591.573 237.865 591.68C237.598 591.787 237.371 591.904 237.185 592.032C236.998 592.16 236.846 592.277 236.729 592.384C236.611 592.491 236.513 592.544 236.433 592.544C236.374 592.544 236.326 592.531 236.289 592.504C236.251 592.477 236.219 592.443 236.193 592.4L236.057 592.168ZM244.759 592.432C245.127 591.973 245.551 591.605 246.031 591.328C246.516 591.051 247.055 590.912 247.647 590.912C248.084 590.912 248.468 590.981 248.799 591.12C249.135 591.259 249.412 591.459 249.631 591.72C249.849 591.981 250.015 592.296 250.127 592.664C250.239 593.032 250.295 593.448 250.295 593.912V599H249.527V593.912C249.527 593.165 249.356 592.581 249.015 592.16C248.673 591.733 248.153 591.52 247.455 591.52C246.937 591.52 246.452 591.653 245.999 591.92C245.551 592.181 245.151 592.547 244.799 593.016V599H244.031V591.04H244.455C244.588 591.04 244.665 591.107 244.687 591.24L244.759 592.432ZM259.088 591.04L254.512 601.56C254.48 601.635 254.437 601.696 254.384 601.744C254.336 601.792 254.264 601.816 254.168 601.816H253.624L255.024 598.704L251.656 591.04H252.288C252.368 591.04 252.432 591.061 252.48 591.104C252.528 591.141 252.56 591.184 252.576 591.232L255.256 597.424C255.288 597.504 255.314 597.587 255.336 597.672C255.362 597.752 255.386 597.835 255.408 597.92C255.434 597.835 255.461 597.752 255.488 597.672C255.52 597.587 255.552 597.504 255.584 597.424L258.232 591.232C258.258 591.173 258.296 591.128 258.344 591.096C258.392 591.059 258.445 591.04 258.504 591.04H259.088ZM267.295 599H266.527V591.856H261.919V597.256C261.919 597.475 261.946 597.664 261.999 597.824C262.058 597.979 262.135 598.107 262.231 598.208C262.332 598.309 262.45 598.384 262.583 598.432C262.716 598.48 262.86 598.504 263.015 598.504C263.207 598.504 263.372 598.477 263.511 598.424C263.65 598.365 263.77 598.304 263.871 598.24C263.972 598.171 264.055 598.109 264.119 598.056C264.183 597.997 264.234 597.968 264.271 597.968C264.314 597.968 264.356 597.995 264.399 598.048L264.607 598.384C264.404 598.608 264.146 598.789 263.831 598.928C263.522 599.061 263.199 599.128 262.863 599.128C262.324 599.128 261.903 598.979 261.599 598.68C261.3 598.381 261.151 597.92 261.151 597.296V591.856H260.007C259.948 591.856 259.9 591.84 259.863 591.808C259.826 591.776 259.807 591.731 259.807 591.672V591.376L261.167 591.28L261.359 588.432C261.37 588.384 261.391 588.341 261.423 588.304C261.455 588.267 261.5 588.248 261.559 588.248H261.919V591.288H267.295V599ZM267.647 588.2C267.647 588.296 267.626 588.387 267.583 588.472C267.546 588.552 267.492 588.624 267.423 588.688C267.359 588.752 267.284 588.803 267.199 588.84C267.114 588.877 267.023 588.896 266.927 588.896C266.831 588.896 266.74 588.877 266.655 588.84C266.57 588.803 266.495 588.752 266.431 588.688C266.367 588.624 266.316 588.552 266.279 588.472C266.242 588.387 266.223 588.296 266.223 588.2C266.223 588.104 266.242 588.013 266.279 587.928C266.316 587.837 266.367 587.76 266.431 587.696C266.495 587.632 266.57 587.581 266.655 587.544C266.74 587.507 266.831 587.488 266.927 587.488C267.023 587.488 267.114 587.507 267.199 587.544C267.284 587.581 267.359 587.632 267.423 587.696C267.492 587.76 267.546 587.837 267.583 587.928C267.626 588.013 267.647 588.104 267.647 588.2ZM270 599V591.04H270.424C270.557 591.04 270.634 591.107 270.656 591.24L270.728 592.392C271.037 591.949 271.392 591.592 271.792 591.32C272.192 591.048 272.642 590.912 273.144 590.912C273.725 590.912 274.189 591.08 274.536 591.416C274.888 591.752 275.125 592.219 275.248 592.816C275.344 592.491 275.477 592.208 275.648 591.968C275.824 591.728 276.024 591.531 276.248 591.376C276.472 591.216 276.714 591.099 276.976 591.024C277.242 590.949 277.514 590.912 277.792 590.912C278.186 590.912 278.541 590.979 278.856 591.112C279.17 591.24 279.437 591.432 279.656 591.688C279.874 591.944 280.042 592.259 280.16 592.632C280.277 593.005 280.336 593.432 280.336 593.912V599H279.576V593.912C279.576 593.133 279.408 592.541 279.072 592.136C278.736 591.725 278.256 591.52 277.632 591.52C277.354 591.52 277.088 591.571 276.832 591.672C276.581 591.773 276.357 591.925 276.16 592.128C275.968 592.325 275.813 592.573 275.696 592.872C275.584 593.171 275.528 593.517 275.528 593.912V599H274.76V593.912C274.76 593.139 274.605 592.547 274.296 592.136C273.992 591.725 273.544 591.52 272.952 591.52C272.52 591.52 272.12 591.648 271.752 591.904C271.384 592.16 271.056 592.515 270.768 592.968V599H270ZM288.459 594.216C288.459 593.789 288.397 593.408 288.275 593.072C288.157 592.731 287.989 592.443 287.771 592.208C287.552 591.973 287.291 591.795 286.987 591.672C286.688 591.544 286.357 591.48 285.995 591.48C285.584 591.48 285.216 591.544 284.891 591.672C284.565 591.8 284.283 591.984 284.043 592.224C283.808 592.464 283.619 592.752 283.475 593.088C283.331 593.424 283.235 593.8 283.187 594.216H288.459ZM283.147 594.704V594.856C283.147 595.453 283.216 595.979 283.355 596.432C283.493 596.885 283.691 597.267 283.947 597.576C284.203 597.88 284.512 598.109 284.875 598.264C285.237 598.419 285.643 598.496 286.091 598.496C286.491 598.496 286.837 598.453 287.131 598.368C287.424 598.277 287.669 598.179 287.867 598.072C288.069 597.96 288.229 597.861 288.347 597.776C288.464 597.685 288.549 597.64 288.603 597.64C288.672 597.64 288.725 597.667 288.763 597.72L288.971 597.976C288.843 598.136 288.672 598.285 288.459 598.424C288.251 598.563 288.016 598.683 287.755 598.784C287.499 598.88 287.221 598.957 286.923 599.016C286.629 599.075 286.333 599.104 286.035 599.104C285.491 599.104 284.995 599.011 284.547 598.824C284.099 598.632 283.715 598.355 283.395 597.992C283.075 597.629 282.827 597.187 282.651 596.664C282.48 596.136 282.395 595.533 282.395 594.856C282.395 594.285 282.475 593.76 282.635 593.28C282.8 592.795 283.035 592.379 283.339 592.032C283.648 591.68 284.024 591.405 284.467 591.208C284.915 591.011 285.421 590.912 285.987 590.912C286.435 590.912 286.851 590.989 287.235 591.144C287.619 591.299 287.952 591.525 288.235 591.824C288.517 592.117 288.739 592.48 288.899 592.912C289.064 593.344 289.147 593.84 289.147 594.4C289.147 594.517 289.131 594.597 289.099 594.64C289.067 594.683 289.013 594.704 288.939 594.704H283.147Z" fill="black"/>
<defs>
<filter id="filter0_dd_1357_5780" x="0" y="18" width="448" height="872" filterUnits="userSpaceOnUse" color-interpolation-filters="sRGB">
<feFlood flood-opacity="0" result="BackgroundImageFix"/>
<feColorMatrix in="SourceAlpha" type="matrix" values="0 0 0 0 0 0 0 0 0 0 0 0 0 0 0 0 0 0 127 0" result="hardAlpha"/>
<feOffset dy="8"/>
<feGaussianBlur stdDeviation="12"/>
<feComposite in2="hardAlpha" operator="out"/>
<feColorMatrix type="matrix" values="0 0 0 0 0.133333 0 0 0 0 0.556863 0 0 0 0 0.898039 0 0 0 0.16 0"/>
<feBlend mode="normal" in2="BackgroundImageFix" result="effect1_dropShadow_1357_5780"/>
<feColorMatrix in="SourceAlpha" type="matrix" values="0 0 0 0 0 0 0 0 0 0 0 0 0 0 0 0 0 0 127 0" result="hardAlpha"/>
<feOffset dy="-8"/>
<feGaussianBlur stdDeviation="12"/>
<feComposite in2="hardAlpha" operator="out"/>
<feColorMatrix type="matrix" values="0 0 0 0 0.133333 0 0 0 0 0.556863 0 0 0 0 0.898039 0 0 0 0.16 0"/>
<feBlend mode="normal" in2="effect1_dropShadow_1357_5780" result="effect2_dropShadow_1357_5780"/>
<feBlend mode="normal" in="SourceGraphic" in2="effect2_dropShadow_1357_5780" result="shape"/>
</filter>
<filter id="filter1_d_1357_5780" x="76.1035" y="189.336" width="300.521" height="128.328" filterUnits="userSpaceOnUse" color-interpolation-filters="sRGB">
<feFlood flood-opacity="0" result="BackgroundImageFix"/>
<feColorMatrix in="SourceAlpha" type="matrix" values="0 0 0 0 0 0 0 0 0 0 0 0 0 0 0 0 0 0 127 0" result="hardAlpha"/>
<feOffset dy="8"/>
<feGaussianBlur stdDeviation="21"/>
<feComposite in2="hardAlpha" operator="out"/>
<feColorMatrix type="matrix" values="0 0 0 0 0.439216 0 0 0 0 0.564706 0 0 0 0 0.690196 0 0 0 0.1 0"/>
<feBlend mode="normal" in2="BackgroundImageFix" result="effect1_dropShadow_1357_5780"/>
<feBlend mode="normal" in="SourceGraphic" in2="effect1_dropShadow_1357_5780" result="shape"/>
</filter>
<linearGradient id="paint0_linear_1357_5780" x1="224" y1="50" x2="224" y2="858" gradientUnits="userSpaceOnUse">
<stop stop-color="#0CC2FF"/>
<stop offset="1" stop-color="#275EE7"/>
</linearGradient>
<linearGradient id="paint1_linear_1357_5780" x1="322" y1="666.489" x2="140" y2="666.489" gradientUnits="userSpaceOnUse">
<stop stop-color="#002A8F"/>
<stop offset="0.482939" stop-color="#020A1C" stop-opacity="0"/>
<stop offset="0.98329" stop-color="#012B8F"/>
</linearGradient>
</defs>
</svg>
